<svg width="19" height="22" fill="none" xmlns="http://www.w3.org/2000/svg"><path fill-rule="evenodd" clip-rule="evenodd" d="M13.396 0c.401 0 .728.34.728.76v.858c1.418.101 2.596.608 3.43 1.479.91.953 1.388 2.323 1.383 3.966v9.239c0 3.374-2.055 5.47-5.361 5.47H5.362C2.055 21.772 0 19.646 0 16.225V7.06c0-3.18 1.833-5.224 4.821-5.442L4.822.76c0-.42.326-.76.728-.76.402 0 .729.34.729.76v.839h6.388v-.84c0-.419.326-.759.729-.759zm4.085 9.016H1.457v7.208c0 2.599 1.387 4.029 3.905 4.029h8.214c2.518 0 3.905-1.404 3.905-3.951V9.016zm-3.69 6.372c.402 0 .729.34.729.76 0 .419-.326.76-.729.76-.402 0-.732-.341-.732-.76 0-.42.322-.76.724-.76h.008zm-4.309 0c.402 0 .728.34.728.76 0 .419-.326.76-.728.76-.402 0-.732-.341-.732-.76 0-.42.321-.76.723-.76h.009zm-4.319 0c.403 0 .729.34.729.76 0 .419-.326.76-.729.76a.749.749 0 01-.733-.76c0-.42.323-.76.725-.76h.008zm8.628-3.935c.402 0 .729.34.729.759 0 .42-.326.76-.729.76-.402 0-.732-.34-.732-.76s.322-.76.724-.76h.008zm-4.309 0c.402 0 .728.34.728.759 0 .42-.326.76-.728.76-.402 0-.732-.34-.732-.76s.321-.76.723-.76h.009zm-4.319 0c.403 0 .729.34.729.759 0 .42-.326.76-.729.76a.749.749 0 01-.733-.76c0-.42.323-.76.725-.76h.008zm7.504-8.335H6.278v.974c0 .42-.326.76-.728.76-.402 0-.728-.34-.728-.76v-.951c-2.176.19-3.365 1.566-3.365 3.92v.437H17.48V7.06c.003-1.25-.319-2.223-.959-2.89-.562-.588-1.383-.94-2.397-1.03l-.001.951c0 .42-.327.76-.729.76-.402 0-.728-.34-.728-.76v-.974z" fill="#616E7D"/></svg>