<?xml version="1.0" encoding="UTF-8"?> <svg xmlns="http://www.w3.org/2000/svg" width="40" height="40" viewBox="0 0 40 40" fill="none"> <g clip-path="url(#clip0_1001_698)"> <path d="M4.8301 40.3733H30.522L31.668 40C34.041 43.41 39.8211 45.7143 39.8211 45.7143L40.418 4.58333C40.2955 2.03476 37.6229 0 35.05 0L4.83911 0.00571429C2.26794 0.00571429 -0.832031 2.03476 -0.832031 4.58333L0.181458 35.6571C0.181458 38.3448 2.26433 40.3733 4.8301 40.3733ZM23.8355 10.8248L23.7761 10.8476L23.7977 10.8248H23.8355ZM10.086 13.2419C13.3887 10.701 16.45 10.8229 16.45 10.8229L16.6968 11.08C12.6554 12.099 10.8229 14.0076 10.8229 14.0076C11.0103 13.9657 19.1707 8.98857 29.059 14.1333C29.059 14.1333 27.2229 12.3486 23.4301 11.2057L23.7653 10.8571C24.2896 10.859 27.0644 10.9619 30.0337 13.2571C30.0337 13.2571 33.3563 19.2571 33.3563 26.6286C33.2464 26.4876 31.295 29.8019 26.2734 29.9162C26.2734 29.9162 25.4229 28.899 24.8175 28.0114C27.7545 27.12 28.8536 25.3371 28.8536 25.3371C23.1364 29.1429 18.1256 28.5486 12.131 25.9771C12.0752 25.9771 12.05 25.9505 12.0211 25.92V25.9086C11.9923 25.88 11.9671 25.8514 11.9112 25.8514H11.8031C11.4355 25.5962 11.1905 25.4705 11.1905 25.4705C11.1905 25.4705 12.2878 27.2533 15.1076 28.1448C14.3671 29.0381 13.6337 30.0533 13.6337 30.0533C8.61388 29.9276 6.78325 26.6133 6.78325 26.6133C6.78325 19.2305 10.086 13.2419 10.086 13.2419Z" fill="#E2D4CD"></path> <path d="M24.1602 24.3257C25.4413 24.3257 26.4845 23.1828 26.4845 21.7733C26.4845 20.3733 25.4467 19.2305 24.1602 19.2305V19.2362C22.8845 19.2362 21.8395 20.3752 21.8359 21.7848C21.8359 23.1828 22.8791 24.3257 24.1602 24.3257Z" fill="#E2D4CD"></path> <path d="M15.8399 24.3257C17.121 24.3257 18.1642 23.1828 18.1642 21.7733C18.1642 20.3733 17.1282 19.2305 15.8471 19.2305L15.8399 19.2362C14.5588 19.2362 13.5156 20.3752 13.5156 21.7848C13.5156 23.1828 14.5588 24.3257 15.8399 24.3257Z" fill="#E2D4CD"></path> </g> <defs> <clipPath id="clip0_1001_698"> <rect width="40" height="40" fill="white"></rect> </clipPath> </defs> </svg> 