<svg width="48" height="48" viewBox="0 0 48 48" fill="none" xmlns="http://www.w3.org/2000/svg">
<circle opacity="0.58" cx="24" cy="24" r="24" fill="#99F491"/>
<path d="M34.0129 31.3917C30.3073 30.7062 27.806 28.9089 27.806 27.3248C27.806 25.7406 27.8987 21.2198 27.8987 21.2198L23.3685 21.1364H23.3222L18.7921 21.2198C19.2149 23.2764 19.5242 25.3546 19.7185 27.4452C19.7185 29.0294 18.0788 30.9563 14.5399 31.3917C11.0288 32.1143 9.90787 35.5513 9.80597 37.7005L23.4056 36.9594H38.2466C38.1076 34.8101 36.8292 32.8554 34.0129 31.3917Z" fill="#FDCF85"/>
<path d="M23.4612 29.7612C25.135 29.6267 26.6964 28.8658 27.8338 27.6305C27.8247 27.5288 27.8247 27.4265 27.8338 27.3248C27.8338 25.7499 27.9265 21.2198 27.9265 21.2198L23.3963 21.1364H23.35L18.8199 21.2198C19.2427 23.2764 19.552 25.3546 19.7463 27.4452C19.7467 27.6647 19.7155 27.8831 19.6537 28.0937C20.7055 29.0523 22.0434 29.6382 23.4612 29.7612Z" fill="#EDBD77"/>
<path d="M31.7062 18.5054C31.7379 18.0758 31.6709 17.6445 31.5103 17.2447C31.3497 16.8449 31.0998 16.4871 30.7798 16.1987C30.8724 14.5497 30.891 12.4097 29.8534 11.5667C28.751 8.05558 25.0917 8 22.0808 8C19.07 8 16.9949 9.33402 15.8276 12.632C15.6244 13.7849 15.6591 14.9671 15.9295 16.106C15.6027 16.3951 15.3485 16.7571 15.1875 17.1627C15.0266 17.5683 14.9634 18.006 15.0031 18.4406C15.0031 19.8117 15.6423 20.9234 16.4205 20.9234C17.5322 26.1946 21.3027 28.4736 23.4704 28.4736C25.6382 28.4736 29.3439 26.2409 30.4092 20.9048C31.1318 20.8492 31.7062 19.8024 31.7062 18.5054Z" fill="#FDCF85"/>
<path d="M22.0808 8C19.1627 8 17.0041 9.33402 15.8276 12.632C15.6244 13.7849 15.6591 14.9671 15.9295 16.106C16.3557 16.3284 16.3464 17.0324 16.4946 18.0978C16.6614 18.4221 17.1802 18.2275 17.1802 18.2275C17.2113 17.506 17.2949 16.7877 17.4303 16.0783C17.0227 14.6516 17.1431 14.2254 18.1714 13.8086C21.4694 14.5849 24.9186 14.4245 28.1303 13.3454C28.4876 13.5663 28.7592 13.9021 28.9006 14.2976C29.042 14.6932 29.0447 15.1251 28.9084 15.5224C28.7843 16.6833 28.85 17.8567 29.103 18.9964C29.1678 19.2836 29.4643 19.2188 29.6218 19.1261C29.6781 18.0217 30.0909 16.9653 30.7983 16.1153C30.8909 14.4663 30.9002 12.3448 29.8719 11.4833C28.751 8.05558 25.0917 8 22.0808 8Z" fill="#99543B"/>
<path d="M28.6305 40.0258C33.2162 39.8035 36.8385 39.2662 38.3022 38.5806C37.9872 36.5611 37.2646 33.0222 35.9954 32.1514C33.8447 31.2068 31.6461 30.375 29.4087 29.6594L28.297 31.929L25.2584 33.2723L23.9985 33.7726L22.0253 33.4947C22.0253 33.4947 19.1349 29.7057 18.6717 29.6223C17.5785 30.7062 12.474 32.0865 12.474 32.0865C11.2234 33.0129 9.98199 34.9399 9.69481 38.5714C11.1678 39.2476 14.7808 39.785 19.3572 40.0073L28.6305 40.0258Z" fill="url(#paint0_linear_2_2)"/>
<path opacity="0.2" d="M28.9084 29.5389C28.5143 30.5747 27.9135 31.5195 27.1427 32.3158C26.3719 33.1121 25.4471 33.7433 24.4246 34.1709C25.8611 34.9813 26.9761 36.2599 27.5837 37.7932C27.5837 37.7932 29.5569 32.6887 29.5569 30.2337C29.4049 29.9497 29.1813 29.7102 28.9084 29.5389Z" fill="#231F20"/>
<path opacity="0.2" d="M19.2368 29.5389C19.632 30.5756 20.2342 31.5209 21.0067 32.3173C21.7791 33.1136 22.7057 33.7443 23.7298 34.1709C22.2895 34.9791 21.1708 36.258 20.5615 37.7932C20.5615 37.7932 18.5698 32.6887 18.6254 30.2337C18.7671 29.9541 18.9775 29.7151 19.2368 29.5389Z" fill="#231F20"/>
<path d="M25.7123 40.1185L24.9249 35.1251L22.9331 35.227L22.1457 40.1185H23.9985H25.7123Z" fill="url(#paint1_linear_2_2)"/>
<path opacity="0.2" d="M22.8683 35.4679C22.9957 35.5494 23.1432 35.5943 23.2944 35.5976H24.4061C24.6055 35.5903 24.7972 35.5188 24.9527 35.3938L24.9249 35.1251L22.9331 35.227L22.8683 35.4679Z" fill="#231F20"/>
<path d="M24.4061 33.5502H23.2852C22.794 33.5502 22.3958 33.9484 22.3958 34.4396V34.5044C22.3958 34.9956 22.794 35.3938 23.2852 35.3938H24.4061C24.8973 35.3938 25.2955 34.9956 25.2955 34.5044V34.4396C25.2955 33.9484 24.8973 33.5502 24.4061 33.5502Z" fill="url(#paint2_linear_2_2)"/>
<path d="M19.1812 28.9182C19.5754 29.954 20.1761 30.8988 20.947 31.6951C21.7178 32.4914 22.6425 33.1226 23.665 33.5503C22.2286 34.3607 21.1135 35.6392 20.5059 37.1725C20.5059 37.1725 18.5142 32.0865 18.5698 29.5667C18.7178 29.304 18.9277 29.0814 19.1812 28.9182Z" fill="url(#paint3_linear_2_2)"/>
<path d="M28.964 28.9182C28.5688 29.9549 27.9666 30.9002 27.1941 31.6966C26.4217 32.4929 25.4951 33.1237 24.471 33.5503C25.9113 34.3584 27.03 35.6374 27.6393 37.1725C27.6393 37.1725 29.6218 32.0865 29.5569 29.5667C29.4141 29.3061 29.2108 29.0837 28.964 28.9182Z" fill="url(#paint4_linear_2_2)"/>
<path d="M38.997 37.9044C39.001 37.886 39.001 37.8671 38.997 37.8488C38.2837 35.7922 37.1442 32.9296 35.9954 32.1514C34.2545 31.3091 32.4483 30.609 30.5945 30.0577V39.9054C35.56 39.5441 38.997 38.7844 38.997 37.9044Z" fill="url(#paint5_linear_2_2)"/>
<path d="M17.2543 39.8961V30.4468C15.4089 30.8497 13.6042 31.4202 11.8626 32.1514C10.7046 32.9573 9.62069 35.9774 9 38.034C9.31498 38.8493 12.5852 39.5533 17.2543 39.8961Z" fill="url(#paint6_linear_2_2)"/>
<defs>
<linearGradient id="paint0_linear_2_2" x1="23.98" y1="27.1488" x2="23.98" y2="39.4422" gradientUnits="userSpaceOnUse">
<stop stop-color="white"/>
<stop offset="0.3" stop-color="#FBFBFB"/>
<stop offset="1" stop-color="#F5F5F5"/>
</linearGradient>
<linearGradient id="paint1_linear_2_2" x1="22.0994" y1="37.6357" x2="25.7123" y2="37.6357" gradientUnits="userSpaceOnUse">
<stop stop-color="#C53535"/>
<stop offset="1" stop-color="#9C2A2A"/>
</linearGradient>
<linearGradient id="paint2_linear_2_2" x1="22.3958" y1="34.4766" x2="25.3047" y2="34.4766" gradientUnits="userSpaceOnUse">
<stop stop-color="#C53535"/>
<stop offset="1" stop-color="#9C2A2A"/>
</linearGradient>
<linearGradient id="paint3_linear_2_2" x1="21.1174" y1="29.1684" x2="21.1174" y2="37.9877" gradientUnits="userSpaceOnUse">
<stop stop-color="white"/>
<stop offset="0.3" stop-color="#FBFBFB"/>
<stop offset="1" stop-color="#F5F5F5"/>
</linearGradient>
<linearGradient id="paint4_linear_2_2" x1="27.0186" y1="29.1684" x2="27.0186" y2="37.9877" gradientUnits="userSpaceOnUse">
<stop stop-color="white"/>
<stop offset="0.3" stop-color="#FBFBFB"/>
<stop offset="1" stop-color="#F5F5F5"/>
</linearGradient>
<linearGradient id="paint5_linear_2_2" x1="34.7911" y1="30.7618" x2="34.7911" y2="40.7021" gradientUnits="userSpaceOnUse">
<stop stop-color="#72AFE0"/>
<stop offset="1" stop-color="#4991CC"/>
</linearGradient>
<linearGradient id="paint6_linear_2_2" x1="13.1318" y1="31.1323" x2="13.1318" y2="40.6743" gradientUnits="userSpaceOnUse">
<stop stop-color="#72AFE0"/>
<stop offset="1" stop-color="#4991CC"/>
</linearGradient>
</defs>
</svg>
