<?xml version="1.0" encoding="UTF-8" standalone="no"?>
<!-- Created with Inkscape (http://www.inkscape.org/) -->

<svg
   width="120"
   height="120"
   viewBox="0 0 120 120"
   version="1.1"
   id="svg5"
   inkscape:version="1.1.1 (3bf5ae0d25, 2021-09-20)"
   sodipodi:docname="gulp.svg"
   xmlns:inkscape="http://www.inkscape.org/namespaces/inkscape"
   xmlns:sodipodi="http://sodipodi.sourceforge.net/DTD/sodipodi-0.dtd"
   xmlns="http://www.w3.org/2000/svg"
   xmlns:svg="http://www.w3.org/2000/svg">
  <sodipodi:namedview
     id="namedview7"
     pagecolor="#ffffff"
     bordercolor="#666666"
     borderopacity="1.0"
     inkscape:pageshadow="2"
     inkscape:pageopacity="0.0"
     inkscape:pagecheckerboard="0"
     inkscape:document-units="px"
     showgrid="false"
     inkscape:zoom="5.3845836"
     inkscape:cx="24.607288"
     inkscape:cy="77.907602"
     inkscape:window-width="1920"
     inkscape:window-height="1013"
     inkscape:window-x="-9"
     inkscape:window-y="-9"
     inkscape:window-maximized="1"
     inkscape:current-layer="layer2" />
  <defs
     id="defs2">
    <style
       id="style824">.cls-1{fill:#ea6767;}.cls-2{opacity:0.75;isolation:isolate;}</style>
  </defs>
  <g
     inkscape:label="circle"
     inkscape:groupmode="layer"
     id="layer1">
    <circle
       class="cls-1"
       cx="59.519505"
       cy="60.433113"
       r="59"
       id="circle828"
       style="stroke-width:0.983333" />
  </g>
  <g
     inkscape:groupmode="layer"
     id="layer2"
     inkscape:label="icon"
     style="display:inline">
    <g
       id="g1849" />
    <path
       d="m -60.577078,31.871005 c 0,0 -0.444869,0.09959 -1.75351,0.10517 -1.309002,0.0054 -2.238412,-0.0085 -2.608626,-0.345223 -0.09954,-0.0904 -0.154,-0.269948 -0.153459,-0.391506 0.0011,-0.231409 0.165541,-0.367734 0.375082,-0.453094 l 0.198181,0.310467 c -0.0862,0.02971 -0.135427,0.06483 -0.135607,0.102288 -7.21e-4,0.175763 1.338395,0.29606 2.362658,0.283094 1.024444,-0.01261 2.262216,-0.09689 2.263298,-0.270128 0,-0.0524 -0.09359,-0.101748 -0.256427,-0.140646 l 0.197279,-0.308306 c 0.265443,0.0823 0.497165,0.241314 0.496624,0.516484 -0.0025,0.467862 -0.598689,0.538995 -0.985493,0.5914"
       fill="#ffffff"
       id="path850"
       style="stroke-width:0.180207" />
    <g
       id="g1854"
       transform="translate(128.28564,4.9150606)"
       style="opacity:0.5;fill:#ffffff">
      <path
         d="m -56.295188,103.37924 0.97864,-16.285105 2.702216,-4.60658 c 0,0 -6.150269,2.512549 -16.446821,2.512549 -10.296732,0 -16.353771,-2.466087 -16.353771,-2.466087 l 3.028429,5.025098 1.071329,15.820125 c 0,1.69604 5.60081,3.07081 12.510079,3.07081 6.908909,0 12.509899,-1.37477 12.509899,-3.07081 m -3.087036,-76.049083 2.054117,-8.108337 11.375274,-11.9533358 -2.998134,-2.5501867 -12.04303,12.7332845 -2.385019,9.687324 a 159.79591,159.58071 0 0 0 -5.38694,-0.0895 c -12.683554,0 -22.96568,1.443563 -22.96568,3.223885 0,1.780503 10.282126,3.223886 22.96568,3.223886 12.683374,0 22.96532,-1.443383 22.96532,-3.223886 0,-1.31102 -5.576465,-2.439434 -13.581588,-2.943132"
         fill="#d34a47"
         id="path848"
         style="fill:#ffffff;stroke-width:0.180207" />
      <path
         d="m -45.975194,7.2920753 c 0.286001,-0.3299161 -0.148049,-1.1737954 -0.969443,-1.8845917 -0.821755,-0.7104361 -1.719789,-1.0191022 -2.00633,-0.6891861 -0.286181,0.3299161 0.148049,1.1737954 0.969804,1.8842316 0.821394,0.7106162 1.719789,1.0196424 2.005969,0.6895462 m -0.261475,24.7491107 c 0,0 -3.100741,2.562612 -22.827549,2.562612 -19.726988,0 -22.506926,-2.509307 -22.506926,-2.509307 5.025383,48.370347 1.139586,10.970038 5.025383,48.370347 0,0 4.330217,3.416757 17.374608,3.416757 13.044391,0 17.53492,-3.363452 17.53492,-3.363452"
         fill="#d34a47"
         id="path852"
         style="fill:#ffffff;stroke-width:0.180207"
         sodipodi:nodetypes="ccccccsccsc" />
    </g>
  </g>
  <g
     inkscape:groupmode="layer"
     id="layer3"
     inkscape:label="text">
    <g
       aria-label="GULP"
       id="text1998"
       style="font-weight:bold;font-size:40px;line-height:1.25;font-family:Bahnschrift;-inkscape-font-specification:'Bahnschrift Bold';fill:#ffffff">
      <path
         d="m 32.937474,58.753426 v 5.546875 q 0,3.164062 -1.289062,5.585937 -1.269531,2.402344 -3.613281,3.730469 -2.34375,1.308594 -5.429688,1.308594 -3.105469,0 -5.488281,-1.230469 -2.363281,-1.25 -3.671875,-3.515625 -1.289063,-2.265625 -1.289063,-5.253906 v -8.378907 q 0,-3.164062 1.269532,-5.566406 1.289062,-2.402344 3.632812,-3.710937 2.34375,-1.328125 5.429688,-1.328125 2.539062,0 4.6875,1.054687 2.148437,1.035156 3.574218,2.949219 1.445313,1.914062 1.953125,4.433594 v 0 h -5.78125 v 0 q -0.292968,-0.898438 -0.976562,-1.542969 -0.664063,-0.664063 -1.582031,-0.996094 -0.898438,-0.351562 -1.875,-0.351562 -1.425782,0 -2.519532,0.625 -1.074218,0.625 -1.679687,1.777343 -0.585938,1.152344 -0.585938,2.65625 v 8.378907 q 0,1.328125 0.605469,2.34375 0.605469,1.015625 1.71875,1.5625 1.113281,0.546875 2.578125,0.546875 1.445313,0 2.519531,-0.585938 1.09375,-0.605469 1.679688,-1.738281 0.585937,-1.132813 0.585937,-2.675781 v -0.46875 h -4.296875 v -5.15625 z"
         id="path5698" />
      <path
         d="m 47.781224,74.925301 q -3.28125,0 -5.605468,-1.230469 -2.324219,-1.25 -3.535157,-3.613281 -1.210937,-2.382813 -1.210937,-5.722657 v -18.125 h 5.351562 v 18.261719 q 0,2.441406 1.308594,3.789063 1.308594,1.347656 3.691406,1.347656 2.402344,0 3.710938,-1.347656 1.328125,-1.347657 1.328125,-3.789063 V 46.233894 h 5.351562 v 18.125 q 0,3.339844 -1.230468,5.722657 -1.210938,2.363281 -3.554688,3.613281 -2.324219,1.230469 -5.605469,1.230469 z"
         id="path5700" />
      <path
         d="m 63.640599,46.233894 h 5.351563 v 28.398438 h -5.351563 z m 2.382813,23.242188 h 16.640625 v 5.15625 H 66.023412 Z"
         id="path5702" />
      <path
         d="m 89.011693,58.460457 h 9.082031 q 0.957032,0 1.679688,-0.429688 0.742188,-0.449218 1.152348,-1.25 0.41015,-0.800781 0.41015,-1.835937 v 0 q 0,-1.054688 -0.41015,-1.855469 -0.39063,-0.820312 -1.132817,-1.25 -0.722656,-0.449219 -1.699219,-0.449219 h -9.082031 v -5.15625 h 8.945313 q 2.656254,0 4.667964,1.09375 2.03125,1.074219 3.14454,3.046875 1.11328,1.972657 1.11328,4.570313 v 0 q 0,2.597656 -1.11328,4.570312 -1.11329,1.953125 -3.14454,3.027344 -2.01171,1.074219 -4.667964,1.074219 H 89.011693 Z M 86.570287,46.233894 h 5.351562 v 28.398438 h -5.351562 z"
         id="path5704" />
    </g>
  </g>
</svg>
