<?xml version="1.0" encoding="UTF-8" standalone="no"?>
<!-- Created with Inkscape (http://www.inkscape.org/) -->

<svg
   width="120"
   height="120"
   viewBox="0 0 120 120"
   version="1.1"
   id="svg5"
   inkscape:version="1.1.1 (3bf5ae0d25, 2021-09-20)"
   sodipodi:docname="css.svg"
   xmlns:inkscape="http://www.inkscape.org/namespaces/inkscape"
   xmlns:sodipodi="http://sodipodi.sourceforge.net/DTD/sodipodi-0.dtd"
   xmlns="http://www.w3.org/2000/svg"
   xmlns:svg="http://www.w3.org/2000/svg">
  <sodipodi:namedview
     id="namedview7"
     pagecolor="#ffffff"
     bordercolor="#666666"
     borderopacity="1.0"
     inkscape:pageshadow="2"
     inkscape:pageopacity="0.0"
     inkscape:pagecheckerboard="0"
     inkscape:document-units="px"
     showgrid="false"
     inkscape:zoom="5.7024028"
     inkscape:cx="43.753485"
     inkscape:cy="56.029012"
     inkscape:window-width="1920"
     inkscape:window-height="1013"
     inkscape:window-x="-9"
     inkscape:window-y="-9"
     inkscape:window-maximized="1"
     inkscape:current-layer="layer4" />
  <defs
     id="defs2" />
  <g
     inkscape:label="circle"
     inkscape:groupmode="layer"
     id="layer1"
     style="display:inline">
    <g
       inkscape:label="circle"
       id="layer1-5"
       style="display:inline"
       transform="translate(-2.0673327,41.129592)">
      <text
         xml:space="preserve"
         style="font-size:40px;line-height:1.25;font-family:monospace;-inkscape-font-specification:monospace"
         x="-10.163181"
         y="17.767797"
         id="text20869"><tspan
           sodipodi:role="line"
           id="tspan20867"
           x="-10.163181"
           y="17.767797" /></text>
    </g>
    <g
       id="layer3"
       inkscape:label="number"
       style="display:inline"
       transform="translate(-2.0673327,41.129592)" />
    <circle
       style="display:inline;fill:#3e6bde;fill-opacity:1;fill-rule:evenodd;stroke-width:3.69198"
       id="path31-7"
       cx="-59.982323"
       cy="-59.736271"
       r="59"
       transform="scale(-1)" />
    <g
       id="g56116"
       transform="matrix(0.93863914,0,0,0.93863914,2.3770953,41.083092)">
      <g
         aria-label="6"
         id="text1374-9-7"
         style="font-size:28.9274px;line-height:1.25;font-family:monospace;-inkscape-font-specification:monospace;display:inline;opacity:0.5;stroke-width:0.723186" />
      <g
         aria-label="JS"
         id="text3544-3-5"
         style="font-size:10.1854px;line-height:1.25;display:inline;fill:#ffffff;stroke-width:0.254635" />
    </g>
  </g>
  <g
     inkscape:groupmode="layer"
     id="layer2"
     inkscape:label="number">
    <g
       aria-label="3"
       id="text1374-9"
       style="font-size:28.9274px;line-height:1.25;font-family:monospace;-inkscape-font-specification:monospace;display:inline;opacity:0.5;stroke-width:0.723186"
       transform="matrix(3.6919806,0,0,3.6919806,-126.25591,3.6575237)">
      <path
         d="m 46.72213,15.846139 q -1.031104,0 -1.031104,-0.607363 0,-0.338993 0.197746,-0.748609 0.197746,-0.423741 1.144101,-1.242974 l 2.514198,-2.146956 q 1.553718,-1.3277224 3.404055,-2.6413205 -0.776859,-0.1271223 -4.152664,0.2824942 -2.613071,0.3248682 -3.658299,0.3248682 -2.42945,0 -2.42945,-2.217579 0,-0.4378659 0.282494,-0.7627342 0.296619,-0.338993 0.72036,-0.338993 0.310744,0 0.762734,0.3248683 0.564989,0.3954918 0.875732,0.5084895 0.324869,0.1129976 0.946356,0.1129976 1.002854,0 3.672424,-0.2542447 3.517052,-0.4096165 5.607508,-0.4096165 1.737339,0 1.737339,1.1299766 0,0.8051083 -0.72036,1.3700966 -0.706235,0.5649885 -2.062207,1.3700965 -1.793838,1.0734784 -2.514198,1.6102174 -0.706235,0.522614 -1.412471,1.384221 1.553718,-0.112998 2.344702,-0.112998 1.709089,0 2.937939,0.437866 1.228849,0.423742 1.836212,1.115852 0.621487,0.692111 0.946355,1.115852 0.324869,0.423741 0.324869,1.525468 0,0.946356 -1.384222,3.065062 -1.384221,2.104581 -4.576405,3.347556 -3.192184,1.242974 -6.228996,1.242974 -0.875732,0 -2.528322,-0.211871 -1.638467,-0.225995 -2.019834,-0.805108 -0.367242,-0.579113 -0.367242,-1.172351 0,-1.483094 1.398346,-1.483094 0.0565,0 0.211871,0.07062 l 0.974604,0.409617 q 1.610217,0.734485 2.93794,0.734485 1.158226,0 3.531176,-0.451991 2.372951,-0.466115 3.983168,-1.963334 1.610216,-1.511344 1.610216,-2.415325 0,-1.539593 -1.624341,-2.033958 -1.610217,-0.508489 -3.587676,-0.508489 -2.754317,0 -4.604654,1.045228 z"
         style="font-family:'Segoe Print';-inkscape-font-specification:'Segoe Print';opacity:1;fill:#ffffff"
         id="path1074" />
    </g>
  </g>
  <g
     inkscape:groupmode="layer"
     id="layer4"
     inkscape:label="text">
    <g
       aria-label="CSS"
       id="text2803"
       style="font-weight:bold;font-size:52.0436px;line-height:1.25;font-family:Bahnschrift;-inkscape-font-specification:'Bahnschrift Bold';fill:#ffffff;stroke-width:1.30109">
      <path
         d="m 29.017905,78.59191 q -4.218378,0 -7.216984,-1.60095 -2.998605,-1.626363 -4.574144,-4.701204 -1.575539,-3.100254 -1.575539,-7.471103 V 54.6793 q 0,-4.370849 1.575539,-7.445691 1.575539,-3.100253 4.574144,-4.726615 2.998606,-1.626363 7.216984,-1.626363 3.481432,0 6.225918,1.499303 2.744487,1.499303 4.523321,4.370849 1.804246,2.846134 2.490367,6.886628 v 0 h -7.216983 v 0 q -0.406591,-1.829657 -1.270596,-3.125665 -0.838593,-1.296007 -2.058365,-1.982129 -1.194359,-0.686122 -2.693662,-0.686122 -1.956718,0 -3.328961,0.813181 -1.372243,0.78777 -2.109189,2.337896 -0.711533,1.524715 -0.711533,3.684728 v 10.139353 q 0,2.160013 0.711533,3.684728 0.736946,1.524714 2.109189,2.337896 1.372243,0.787769 3.328961,0.787769 1.524714,0 2.744486,-0.66071 1.219772,-0.686121 2.058365,-1.982129 0.838593,-1.296008 1.219772,-3.151077 v 0 h 7.216983 v 0 q -0.711533,4.040494 -2.515779,6.91204 -1.778834,2.846134 -4.523321,4.345437 -2.719074,1.499303 -6.200506,1.499303 z"
         id="path7501" />
      <path
         d="m 59.207258,78.59191 q -2.642839,0 -5.18403,-0.53365 -2.51578,-0.53365 -4.752028,-1.550127 -2.210836,-1.041888 -3.964258,-2.490367 v 0 l 3.227313,-5.743093 v 0 q 2.1346,1.753422 4.929911,2.719075 2.79531,0.940241 5.743092,0.940241 3.405196,0 5.285678,-1.143536 1.880482,-1.168948 1.880482,-3.278137 v -0.02541 q 0,-1.473891 -0.838594,-2.337896 -0.838593,-0.864005 -2.185424,-1.270596 -1.346831,-0.40659 -3.45602,-0.736945 -0.07624,-0.02541 -0.152472,-0.02541 -0.05082,0 -0.127059,-0.02541 l -0.559062,-0.07624 Q 55.344647,62.429933 52.905104,61.565928 50.46556,60.676511 48.762962,58.491087 47.060364,56.28025 47.060364,52.239756 v -0.02541 q 0,-3.583079 1.60095,-6.124271 1.600951,-2.541191 4.65038,-3.862611 3.04943,-1.346831 7.369455,-1.346831 1.982129,0 4.040494,0.457414 2.083777,0.457415 4.065906,1.32142 1.98213,0.864005 3.760963,2.083777 v 0 l -2.947781,5.895564 v 0 q -2.134601,-1.473891 -4.472497,-2.287072 -2.312484,-0.813182 -4.447085,-0.813182 -3.201901,0 -4.955323,1.067301 -1.753422,1.041888 -1.753422,2.947782 v 0.02541 q 0,1.60095 0.914829,2.541191 0.914829,0.914829 2.26166,1.346831 1.346832,0.432003 3.786375,0.914829 0.101648,0.02541 0.203295,0.05082 0.101648,0 0.203296,0.02541 0.152471,0.02541 0.279531,0.07624 0.152471,0.02541 0.304943,0.05082 3.506844,0.686122 5.84474,1.677187 2.363308,0.965652 3.938846,3.151077 1.575539,2.160013 1.575539,5.920976 v 0.05082 q 0,3.532256 -1.651774,6.048036 -1.651775,2.515779 -4.828264,3.837199 -3.151077,1.321419 -7.598162,1.321419 z"
         id="path7503" />
      <path
         d="m 90.235206,78.59191 q -2.642839,0 -5.18403,-0.53365 -2.515779,-0.53365 -4.752028,-1.550127 -2.210836,-1.041888 -3.964258,-2.490367 v 0 l 3.227313,-5.743093 v 0 q 2.134601,1.753422 4.929911,2.719075 2.795311,0.940241 5.743092,0.940241 3.405197,0 5.285678,-1.143536 1.880482,-1.168948 1.880482,-3.278137 v -0.02541 q 0,-1.473891 -0.838593,-2.337896 -0.838593,-0.864005 -2.185425,-1.270596 -1.346831,-0.40659 -3.45602,-0.736945 -0.07624,-0.02541 -0.152471,-0.02541 -0.05082,0 -0.12706,-0.02541 l -0.559062,-0.07624 Q 86.372596,62.429933 83.933052,61.565928 81.493508,60.676511 79.79091,58.491087 78.088312,56.28025 78.088312,52.239756 v -0.02541 q 0,-3.583079 1.60095,-6.124271 1.600951,-2.541191 4.650381,-3.862611 3.049429,-1.346831 7.369454,-1.346831 1.98213,0 4.040495,0.457414 2.083776,0.457415 4.065906,1.32142 1.982132,0.864005 3.760962,2.083777 v 0 l -2.94778,5.895564 v 0 q -2.134602,-1.473891 -4.472498,-2.287072 -2.312484,-0.813182 -4.447085,-0.813182 -3.201901,0 -4.955323,1.067301 -1.753422,1.041888 -1.753422,2.947782 v 0.02541 q 0,1.60095 0.914829,2.541191 0.914829,0.914829 2.26166,1.346831 1.346832,0.432003 3.786376,0.914829 0.101647,0.02541 0.203295,0.05082 0.101648,0 0.203295,0.02541 0.152472,0.02541 0.279531,0.07624 0.152472,0.02541 0.304943,0.05082 3.506844,0.686122 5.84474,1.677187 2.363309,0.965652 3.938849,3.151077 1.57554,2.160013 1.57554,5.920976 v 0.05082 q 0,3.532256 -1.65178,6.048036 -1.65177,2.515779 -4.828262,3.837199 -3.151077,1.321419 -7.598162,1.321419 z"
         id="path7505" />
    </g>
  </g>
</svg>
