<?xml version="1.0" encoding="UTF-8" standalone="no"?>
<!-- Created with Inkscape (http://www.inkscape.org/) -->

<svg
   width="120"
   height="120"
   viewBox="0 0 120 120"
   version="1.1"
   id="svg5"
   inkscape:version="1.1.1 (3bf5ae0d25, 2021-09-20)"
   sodipodi:docname="js.svg"
   xmlns:inkscape="http://www.inkscape.org/namespaces/inkscape"
   xmlns:sodipodi="http://sodipodi.sourceforge.net/DTD/sodipodi-0.dtd"
   xmlns="http://www.w3.org/2000/svg"
   xmlns:svg="http://www.w3.org/2000/svg">
  <sodipodi:namedview
     id="namedview7"
     pagecolor="#ffffff"
     bordercolor="#666666"
     borderopacity="1.0"
     inkscape:pageshadow="2"
     inkscape:pageopacity="0.0"
     inkscape:pagecheckerboard="0"
     inkscape:document-units="px"
     showgrid="false"
     inkscape:zoom="3.4333333"
     inkscape:cx="63.932039"
     inkscape:cy="50.242719"
     inkscape:window-width="1920"
     inkscape:window-height="1013"
     inkscape:window-x="-9"
     inkscape:window-y="-9"
     inkscape:window-maximized="1"
     inkscape:current-layer="layer4" />
  <defs
     id="defs2" />
  <g
     inkscape:label="circle"
     inkscape:groupmode="layer"
     id="layer1">
    <g
       inkscape:label="circle"
       id="layer1-2"
       style="display:inline"
       transform="translate(4.7773274,53.358526)">
      <text
         xml:space="preserve"
         style="font-size:40px;line-height:1.25;font-family:monospace;-inkscape-font-specification:monospace"
         x="-10.163181"
         y="17.767797"
         id="text20869"><tspan
           sodipodi:role="line"
           id="tspan20867"
           x="-10.163181"
           y="17.767797" /></text>
    </g>
    <g
       id="layer3"
       inkscape:label="number"
       style="display:inline"
       transform="translate(4.7773274,53.358526)" />
    <circle
       style="display:inline;fill:#f1bf22;fill-opacity:1;fill-rule:evenodd;stroke-width:3.69198"
       id="path31-7-5"
       cx="-59.996273"
       cy="-60.259991"
       r="59"
       transform="scale(-1)" />
    <text
       xml:space="preserve"
       style="font-style:normal;font-variant:normal;font-weight:normal;font-stretch:normal;font-size:40px;line-height:1.25;font-family:Bahnschrift;-inkscape-font-specification:Bahnschrift"
       x="40.194176"
       y="58.54369"
       id="text6551"><tspan
         sodipodi:role="line"
         id="tspan6549"
         x="40.194176"
         y="58.54369" /></text>
  </g>
  <g
     inkscape:groupmode="layer"
     id="layer2"
     inkscape:label="number">
    <g
       aria-label="6"
       id="text1374-9-7"
       style="font-size:28.9274px;line-height:1.25;font-family:monospace;-inkscape-font-specification:monospace;display:inline;opacity:0.5;stroke-width:0.723186"
       transform="matrix(3.6919806,0,0,3.6919806,-239.39466,1.0262316)">
      <path
         d="m 83.797109,8.8614839 q -0.494364,0 -0.69211,0.1271223 -1.850337,0.5226142 -3.969043,3.1780588 -0.381367,0.50849 -1.313598,1.412471 -1.016979,0.974605 -1.539593,1.737339 -0.508489,0.74861 -0.974605,2.104582 -0.45199,1.355971 -0.45199,2.528322 0,0.72036 0.296619,1.327723 0.296618,0.607362 1.822087,1.567842 -0.282494,-2.217579 0.776859,-4.152664 1.059353,-1.949209 2.669569,-2.796692 1.610217,-0.861607 4.986022,-0.861607 1.624341,0 2.923814,1.129977 1.313598,1.115851 1.313598,2.683694 0,1.031104 -0.847482,2.16108 -0.847483,1.129977 -2.782568,2.358826 -1.935084,1.22885 -3.079186,1.666716 -1.129976,0.437866 -4.138539,0.437866 -1.567842,0 -2.796692,-0.536739 -1.214725,-0.536739 -2.344701,-1.864462 -1.115852,-1.327722 -1.115852,-2.415325 0,-2.429449 0.649736,-3.912543 0.649737,-1.497219 1.822087,-3.135685 1.186476,-1.652591 2.274078,-2.655445 0.367243,-0.338993 1.186476,-1.22885 1.539593,-1.6949649 2.570696,-2.4012002 1.045229,-0.7062354 2.005709,-0.7062354 0.48024,0 0.903981,0.338993 0.423741,0.3248683 0.423741,0.819233 0,0.9746048 -0.579113,1.0876025 z m 3.912544,9.4070551 q -1.596092,-1.158226 -3.714798,-1.158226 -5.028395,0 -5.353264,5.932377 0.466116,0.141247 1.257099,0.141247 l 1.384222,-0.0565 q 1.384221,0 3.898419,-1.737339 2.528322,-1.737339 2.528322,-3.121559 z"
         style="font-family:'Segoe Print';-inkscape-font-specification:'Segoe Print';opacity:1;fill:#ffffff"
         id="path1118" />
    </g>
  </g>
  <g
     inkscape:groupmode="layer"
     id="layer4"
     inkscape:label="text">
    <g
       aria-label="JS"
       id="text3544-3-5"
       style="font-size:10.1854px;line-height:1.25;display:inline;fill:#ffffff;stroke-width:0.254635"
       transform="matrix(3.6919806,0,0,3.6919806,-239.39466,1.026235)" />
    <text
       xml:space="preserve"
       style="font-size:40px;line-height:1.25;font-family:monospace;-inkscape-font-specification:monospace"
       x="65.242722"
       y="60"
       id="text4437"><tspan
         sodipodi:role="line"
         id="tspan4435" /></text>
    <g
       aria-label="JS"
       id="text11593"
       style="font-size:80.8326px;line-height:1.25;font-family:Bahnschrift;-inkscape-font-specification:Bahnschrift;fill:#ffffff;stroke-width:2.02082" />
    <g
       aria-label="JS"
       id="text1404"
       style="font-weight:bold;font-size:80.1137px;line-height:1.25;font-family:Bahnschrift;-inkscape-font-specification:'Bahnschrift Bold';fill:#ffffff;stroke-width:2.00284">
      <path
         d="m 32.731015,89.285562 q -5.241815,0 -9.349207,-2.034137 -4.068274,-2.034137 -6.337119,-5.750349 l 8.762436,-6.376237 q 1.408249,1.799429 3.36415,2.77738 1.995019,0.97795 4.14651,0.97795 3.090323,0 4.772398,-2.151491 1.682075,-2.190609 1.682075,-6.141529 V 31.821193 h 11.109517 v 38.805074 q 0,5.906821 -2.151491,10.092449 -2.112373,4.185628 -6.180647,6.376237 -4.068274,2.190609 -9.818622,2.190609 z"
         id="path838" />
      <path
         d="m 81.276475,89.285562 q -4.068274,0 -7.980076,-0.821479 -3.872684,-0.821478 -7.31507,-2.386199 -3.403267,-1.603838 -6.10241,-3.833565 v 0 l 4.967988,-8.840673 v 0 q 3.285913,2.699144 7.588895,4.185628 4.302982,1.447367 8.840673,1.447367 5.241814,0 8.136547,-1.760311 2.894734,-1.799429 2.894734,-5.046224 v -0.03912 q 0,-2.268845 -1.290895,-3.598858 -1.290895,-1.330012 -3.36415,-1.955901 -2.073254,-0.625888 -5.32005,-1.134422 -0.117354,-0.03912 -0.234708,-0.03912 -0.07824,0 -0.19559,-0.03912 l -0.860597,-0.117354 q -5.71123,-0.899715 -9.46656,-2.229727 -3.75533,-1.369131 -6.376237,-4.73328 -2.620907,-3.403268 -2.620907,-9.623033 v -0.03912 q 0,-5.51564 2.464435,-9.427442 2.464435,-3.911802 7.158597,-5.945939 4.694163,-2.073255 11.344226,-2.073255 3.051205,0 6.219764,0.704124 3.207678,0.704125 6.258883,2.034137 3.051206,1.330013 5.789463,3.207678 v 0 l -4.537686,9.07538 v 0 q -3.285914,-2.268845 -6.884771,-3.520622 -3.55974,-1.251776 -6.845653,-1.251776 -4.928871,0 -7.628014,1.642957 -2.699143,1.603838 -2.699143,4.53769 v 0.03912 q 0,2.464435 1.408248,3.911801 1.408249,1.408249 3.481504,2.073255 2.073255,0.665007 5.828585,1.408249 0.156472,0.03912 0.312944,0.07824 0.156472,0 0.312944,0.03912 0.234708,0.03912 0.430298,0.117354 0.234708,0.03912 0.469416,0.07824 5.398287,1.056187 8.997145,2.581789 3.637975,1.486485 6.063293,4.850635 2.42532,3.325031 2.42532,9.114498 v 0.07824 q 0,5.437404 -2.54267,9.310088 -2.542676,3.872684 -7.432428,5.906821 -4.850634,2.034137 -11.696287,2.034137 z"
         id="path840" />
    </g>
  </g>
</svg>
