<?xml version="1.0" encoding="UTF-8" standalone="no"?>
<!-- Created with Inkscape (http://www.inkscape.org/) -->

<svg
   width="120"
   height="120"
   viewBox="0 0 120 120"
   version="1.1"
   id="svg5"
   inkscape:version="1.1.1 (3bf5ae0d25, 2021-09-20)"
   sodipodi:docname="oug.svg"
   xmlns:inkscape="http://www.inkscape.org/namespaces/inkscape"
   xmlns:sodipodi="http://sodipodi.sourceforge.net/DTD/sodipodi-0.dtd"
   xmlns="http://www.w3.org/2000/svg"
   xmlns:svg="http://www.w3.org/2000/svg">
  <sodipodi:namedview
     id="namedview7"
     pagecolor="#ffffff"
     bordercolor="#666666"
     borderopacity="1.0"
     inkscape:pageshadow="2"
     inkscape:pageopacity="0.0"
     inkscape:pagecheckerboard="0"
     inkscape:document-units="px"
     showgrid="false"
     inkscape:zoom="2.6922918"
     inkscape:cx="78.557607"
     inkscape:cy="58.128915"
     inkscape:window-width="1366"
     inkscape:window-height="715"
     inkscape:window-x="-8"
     inkscape:window-y="22"
     inkscape:window-maximized="1"
     inkscape:current-layer="layer3" />
  <defs
     id="defs2">
    <style
       id="style824">.cls-1{fill:#ea6767;}.cls-2{opacity:0.75;isolation:isolate;}</style>
  </defs>
  <g
     inkscape:label="circle"
     inkscape:groupmode="layer"
     id="layer1">
    <circle
       class="cls-1"
       cx="60.158272"
       cy="60.433113"
       id="circle828"
       style="fill:#a07765;fill-opacity:1;stroke-width:0.983333"
       r="59" />
    <g
       id="g3332"
       transform="matrix(0.78127481,0,0,0.95151302,9.9613652,-2.0916791)"
       style="opacity:0.75">
      <path
         class="st1"
         d="m 107.4,50.9 c -0.2,-4.4 0.4,-8.3 -1.6,-11.6 C 101,31.1 89,26.3 65,26.3 V 27 H 64.5 65 v -0.7 c -24,0 -36.6,4.8 -41.4,13.1 -1.9,3.4 -1.7,7.2 -2,11.6 -0.2,3.5 -1.8,7.2 -1.1,11.2 0.8,5.2 1.1,10.4 1.9,15.2 0.6,3.9 6,7.2 6.5,10.9 1.4,10.2 12,14.9 36,14.9 V 104 H 64.3 65 v -0.8 c 24,0 34.2,-4.7 35.5,-14.9 0.5,-3.8 5.5,-7 6.1,-10.9 0.8,-4.8 1.1,-10 1.9,-15.2 0.7,-4 -0.9,-7.8 -1.1,-11.3 z"
         id="path3212" />
      <path
         class="st3"
         d="m 64.6,54.5 c 4.3,0.1 7.3,2.8 10.1,5.3 3.3,2.9 8.9,4.9 11.2,7.4 2.3,2.5 5.3,5 6.4,8.9 1.1,3.9 1.4,8.9 1.4,10.2 0,1.3 0.7,1 2.7,0 4.7,-2.3 9.9,-8.5 9.9,-8.5 -0.6,3.9 -5.7,7.4 -6.2,11.1 C 98.9,99.1 89,104 64.5,104 H 64.4 65"
         id="path3214" />
      <path
         class="st3"
         d="m 80.4,46.7 c 0.9,3.1 4.1,13.6 -2.1,10.1 0,0 2.6,1.5 4.2,7.2 1.7,5.7 5.8,6.4 5.8,6.4 0,0 6.7,1.3 11.7,-3 4.2,-3.6 4.9,-10 3.1,-14.9 -1.8,-4.8 -5,-6.3 -9.7,-7.3 -4.7,-1.1 -14.1,-2 -13,1.5 z"
         id="path3216" />
      <circle
         cx="92.300003"
         cy="58.099998"
         r="8.8000002"
         id="circle3218" />
      <circle
         class="st4"
         cx="90"
         cy="54.200001"
         r="2.3"
         id="circle3220" />
      <path
         class="st1"
         d="m 78.9,57.7 c 0,0 7.9,5.4 12.2,10.7 4.3,5.3 4.2,6.3 4.2,6.3 l -3.1,1.4 c 0,0 -4.4,-8.3 -9.8,-11.4 C 76.9,61.6 76.3,59 76.3,59 Z"
         id="path3222" />
      <path
         class="st3"
         d="m 64.9,54.5 c -4.3,0.1 -7.5,2.8 -10.4,5.3 -3.3,2.9 -9.1,4.9 -11.4,7.4 -2.3,2.5 -5.4,5 -6.5,8.9 -1.1,3.9 -1.5,8.9 -1.5,10.2 0,1.3 0.2,1.4 -2.7,0 -4.7,-2.2 -9.9,-8.5 -9.9,-8.5 0.6,3.9 5.7,7.4 6.2,11.1 C 30.1,99.1 40,104 64.5,104 H 65"
         id="path3224" />
      <path
         class="st7"
         d="M 88.1,71.4 C 83.3,65.5 75.6,60 64.9,60 h -0.1 c -10.7,0 -18.4,5.5 -23.2,11.4 -5,6.1 -4.6,8.5 -4.6,14.3 0,21 7.4,15 12.3,17.6 5,2.5 10.2,1.7 15.5,1.7 h 0.1 c 5.4,0 10.5,0.7 15.5,-1.8 4.9,-2.5 12.3,3.7 12.3,-17.3 0.1,-5.8 0.4,-8.4 -4.6,-14.5 z"
         id="path3226" />
      <path
         class="st8"
         d="m 64.4,65.2 c 0,0 -0.7,9.7 -2.1,11.6 l 2.6,-0.6 z"
         id="path3228" />
      <path
         class="st8"
         d="m 65.1,65.2 c 0,0 0.7,9.7 2.1,11.6 l -2.6,-0.6 z"
         id="path3230" />
      <path
         class="st7"
         d="m 56.7,62.9 c -1,-2.3 2.6,-6 8.3,-6.1 5.7,0 9.3,3.7 8.3,6.1 -1,2.4 -4.6,3.1 -8.3,3.2 -3.6,-0.1 -7.3,-0.8 -8.3,-3.2 z"
         id="path3232" />
      <path
         d="m 65,65.2 c 0,-0.4 3.4,-0.5 5.2,-1.7 0,0 -3.7,1.2 -4.5,0.7 -0.8,-0.4 -1,-1.6 -1,-1.6 0,0 -0.3,1.2 -0.9,1.6 -0.7,0.4 -4.9,-0.7 -4.9,-0.7 0,0 5.6,1.4 5.6,1.7 0,0.3 -0.1,1.3 -0.1,2 0,2.5 0,8.7 0.4,9.2 0.6,0.9 0.4,-6.7 0.4,-9.2 -0.1,-0.8 -0.1,-1.6 -0.2,-2 z"
         id="path3234" />
      <path
         class="st9"
         d="m 65.2,78.6 c 1.7,0 4.7,1.2 7.4,3.1 -2.6,-2.9 -5.7,-4.9 -7.4,-4.9 -1.8,0 -5.6,2.2 -8.3,5.4 2.8,-2.2 6.4,-3.6 8.3,-3.6 z"
         id="path3236" />
      <path
         class="st8"
         d="M 64.5,96.3 C 60.7,96.3 57,95.1 53.6,94.2 52.9,94 52.2,94.5 51.5,94.3 45.2,92.3 40.1,88.9 37,84.6 v 1 c 0,21 7.4,15.1 12.3,17.6 5,2.5 10.2,1.7 15.5,1.7 h 0.1 c 5.4,0 10.5,0.7 15.5,-1.8 4.9,-2.5 12.3,3.6 12.3,-17.4 0,-0.8 0,-1.6 0.1,-2.3 -2.9,4.7 -8.2,8.4 -14.8,10.6 -0.6,0.2 -2,-0.3 -2.6,-0.2 -3.6,1.2 -6.8,2.5 -10.9,2.5 z"
         id="path3238" />
      <path
         class="st8"
         d="m 55,85 c 0,0 -2.5,7.5 -0.8,10.8 l -2.3,-1 c 0,0 1.7,-7.6 3.1,-9.8 z m 19.8,0 c 0,0 2.5,7.5 0.8,10.8 l 2.3,-1 c 0,0 -1.8,-7.6 -3.1,-9.8 z"
         id="path3240" />
      <path
         class="st3"
         d="m 48.6,46.7 c -0.9,3.1 -4.1,13.6 2.1,10.1 0,0 -2.6,1.5 -4.2,7.2 -1.6,5.7 -5.8,6.4 -5.8,6.4 0,0 -6.7,1.3 -11.7,-3 -4.2,-3.6 -4.9,-10 -3.1,-14.9 1.8,-4.9 5,-6.3 9.7,-7.3 4.7,-1.1 14,-2 13,1.5 z"
         id="path3242" />
      <path
         d="m 64.9,76.8 c 2.7,0 11.1,5.8 11.2,12.9 V 89.3 C 76.1,81.9 69.3,76 64.9,76 60.5,76 53.7,82 53.7,89.3 v 0.4 c 0.1,-7.1 8.5,-12.9 11.2,-12.9 z"
         id="path3244" />
      <ellipse
         transform="rotate(-14.465,66.712,61.468)"
         class="st10"
         cx="66.699997"
         cy="61.5"
         rx="0.80000001"
         ry="1.5"
         id="ellipse3246" />
      <ellipse
         transform="rotate(17.235,62.371,61.462)"
         class="st10"
         cx="62.400002"
         cy="61.5"
         rx="0.80000001"
         ry="1.5"
         id="ellipse3248" />
      <circle
         cx="37.200001"
         cy="58.099998"
         r="8.8000002"
         id="circle3250" />
      <circle
         class="st4"
         cx="39.5"
         cy="54.200001"
         r="2.3"
         id="circle3252" />
      <path
         class="st9"
         d="m 67.5,58.2 c 0,-0.1 -2.3,1 -2.9,1.1 -0.6,-0.1 -2.9,-1.2 -2.9,-1.1 z"
         id="path3254" />
      <path
         class="st1"
         d="m 50,57.7 c 0,0 -7.9,5.4 -12.2,10.7 -4.3,5.3 -4.2,6.3 -4.2,6.3 l 3.1,1.4 c 0,0 4.4,-8.3 9.8,-11.4 5.4,-3.1 6.1,-5.7 6.1,-5.7 z"
         id="path3256" />
      <path
         class="st3"
         d="m 32.7,41.7 c 0,0 -2.7,7.4 -8.7,10.5 0,0 9.4,-1.1 8.7,-10.5 z m 63.1,0 c 0,0 2.7,7.4 8.7,10.5 0,0 -9.4,-1.1 -8.7,-10.5 z M 78.7,55.5 c 0,0 -5.9,-6.2 -13.8,-6.4 h 0.1 0.1 c -8,0.2 -13.8,6.4 -13.8,6.4 6.9,-4.8 12.8,-4.7 13.8,-4.7 -0.1,0 6.7,-0.1 13.6,4.7 z m -6.9,-13 c 0,0 -3,-4.2 -7,-4.3 H 65 c -3,0.1 -6.9,4.3 -6.9,4.3 3.4,-3.3 6.9,-3.2 6.9,-3.2 0,0 3.3,-0.1 6.8,3.2 z M 37.2,73.2 c 0,0 -4.7,2.3 -8.1,0.9 H 29 c -3,-1.7 -4.5,-6.8 -4.5,-6.8 0,0 3,9 12.7,5.9 z m 54.8,0 c 0,0 4.7,2.3 8.1,0.9 4,-1.7 4.6,-6.8 4.6,-6.8 0,0 -3,9 -12.7,5.9 z"
         id="path3258" />
      <path
         class="st3"
         d="m 42.6,41.2 c 2.6,-0.5 6.9,-0.6 10.3,0.5 4.3,1.5 0.8,7 1.7,7.3 0.9,0.3 2.1,-3.8 10.1,-3.4 8.1,0.4 9,4 10.1,3.4 1.1,-0.6 -1.1,-10 11,-7.8 0,0 -12.7,-3.4 -12.1,5.8 0,0 -7.3,-5.6 -17.5,-0.6 0.1,0 2.7,-8.6 -13.6,-5.2 z m 44.3,0 c 0.2,0 0.3,0.1 0.4,0.1 0.1,0 -0.1,-0.1 -0.4,-0.1 z m 0,0 z M 39.1,28.9 c 0,0 -10.8,13.6 -12.4,18.8 -1.6,5.3 -2.8,27 -4.2,30.1 l -5,-21.4 9.2,-22.3 z m 50.8,0 c 0,0 10.8,13.6 12.4,18.8 1.6,5.3 2.8,27 4.2,30.1 l 5,-21.4 -9.2,-22.3 z"
         id="path3260" />
      <path
         class="st7"
         d="m 89.4,28.9 c 0,0 11.6,9.7 15,20.9 3.4,11.2 2,24.8 4.6,26.5 3.7,2.4 7.9,-11.9 9.3,-13.4 2.2,-2.4 9.5,-8.5 10,-9.6 0.5,-1.1 -14.8,-17.8 -21.5,-21.1 -8.1,-3.8 -18.1,-4.1 -17.4,-3.3 z"
         id="path3262" />
      <path
         class="st8"
         d="m 99.3,34.9 c 0,0 13.7,17.5 13.5,39.3 L 118.3,63 c -0.1,0 -4.9,-14.3 -19,-28.1 z"
         id="path3264" />
      <path
         class="st7"
         d="m 39.1,28.9 c 0,0 -11.6,9.7 -15,20.9 C 20.7,61 22.1,74.6 19.5,76.3 15.8,78.7 11.6,64.4 10.2,62.9 8,60.5 0.7,54.4 0.2,53.3 -0.3,52.2 15,35.5 21.7,32.2 29.8,28.4 39.8,28.1 39.1,28.9 Z"
         id="path3266" />
      <path
         class="st8"
         d="m 29.2,34.9 c 0,0 -13.7,17.5 -13.5,39.3 L 10.3,63 c 0,0 4.8,-14.3 18.9,-28.1 z"
         id="path3268" />
      <path
         class="st3"
         d="m 21.8,74.6 c 0,0 1,5.4 2.6,7.1 1.6,1.7 0.5,-1.3 0.5,-1.3 0,0 -1.7,-0.9 -1.4,-7.8 0.3,-6.9 -1.7,2 -1.7,2 z m 85.3,0 c 0,0 -1,5.4 -2.6,7.1 -1.6,1.7 -0.5,-1.3 -0.5,-1.3 0,0 1.7,-0.9 1.4,-7.8 -0.3,-6.9 1.7,2 1.7,2 z"
         id="path3270" />
      <g
         id="g3278">
        <circle
           class="st8"
           cx="54.5"
           cy="70.5"
           r="0.80000001"
           id="circle3272" />
        <circle
           class="st8"
           cx="49.900002"
           cy="75.300003"
           r="0.80000001"
           id="circle3274" />
        <circle
           class="st8"
           cx="48.400002"
           cy="70.5"
           r="0.80000001"
           id="circle3276" />
      </g>
      <g
         id="g3286">
        <circle
           class="st8"
           cx="74"
           cy="70.5"
           r="0.80000001"
           id="circle3280" />
        <circle
           class="st8"
           cx="78.599998"
           cy="75.300003"
           r="0.80000001"
           id="circle3282" />
        <circle
           class="st8"
           cx="80.099998"
           cy="70.5"
           r="0.80000001"
           id="circle3284" />
      </g>
    </g>
  </g>
  <g
     inkscape:groupmode="layer"
     id="layer2"
     inkscape:label="icon"
     style="display:inline">
    <g
       id="g1849" />
    <path
       d="m -60.577078,31.871005 c 0,0 -0.444869,0.09959 -1.75351,0.10517 -1.309002,0.0054 -2.238412,-0.0085 -2.608626,-0.345223 -0.09954,-0.0904 -0.154,-0.269948 -0.153459,-0.391506 0.0011,-0.231409 0.165541,-0.367734 0.375082,-0.453094 l 0.198181,0.310467 c -0.0862,0.02971 -0.135427,0.06483 -0.135607,0.102288 -7.21e-4,0.175763 1.338395,0.29606 2.362658,0.283094 1.024444,-0.01261 2.262216,-0.09689 2.263298,-0.270128 0,-0.0524 -0.09359,-0.101748 -0.256427,-0.140646 l 0.197279,-0.308306 c 0.265443,0.0823 0.497165,0.241314 0.496624,0.516484 -0.0025,0.467862 -0.598689,0.538995 -0.985493,0.5914"
       fill="#ffffff"
       id="path850"
       style="stroke-width:0.180207" />
    <g
       id="g1854"
       transform="translate(128.28564,4.9150606)"
       style="opacity:0.5;fill:#ffffff">
      <g
         id="g3099" />
    </g>
  </g>
  <g
     inkscape:groupmode="layer"
     id="layer3"
     inkscape:label="text">
    <g
       aria-label="PUG"
       id="text5814"
       style="font-size:46.6667px;line-height:1.25;fill:#ffffff">
      <g
         id="g9541"
         transform="translate(0.74285829)">
        <path
           d="m 21.350607,58.13168 h 10.59571 q 1.116537,0 1.959637,-0.501302 0.865886,-0.524089 1.344402,-1.458335 0.478516,-0.934245 0.478516,-2.141928 v 0 q 0,-1.23047 -0.478516,-2.164715 -0.45573,-0.957032 -1.321616,-1.458335 -0.843099,-0.524088 -1.982423,-0.524088 h -10.59571 v -6.01563 h 10.436205 q 3.09896,0 5.445967,1.276043 2.369793,1.253256 3.668622,3.55469 1.298829,2.301434 1.298829,5.332035 v 0 q 0,3.030601 -1.298829,5.332035 -1.298829,2.278647 -3.668622,3.531903 -2.347007,1.253256 -5.445967,1.253256 H 21.350607 Z m -2.84831,-14.264333 h 6.243494 V 76.99888 h -6.243494 z"
           style="font-weight:bold;font-family:Bahnschrift;-inkscape-font-specification:'Bahnschrift Bold'"
           id="path9272" />
        <path
           d="m 58.720424,77.169779 q -3.828128,0 -6.539718,-1.435548 -2.71159,-1.458335 -4.124352,-4.215498 -1.412761,-2.77995 -1.412761,-6.676437 V 43.696448 h 6.243494 v 21.305354 q 0,2.848309 1.526693,4.420575 1.526694,1.572267 4.306644,1.572267 2.802736,0 4.32943,-1.572267 1.54948,-1.572266 1.54948,-4.420575 V 43.696448 h 6.243494 v 21.145848 q 0,3.896487 -1.435548,6.676437 -1.412761,2.757163 -4.147138,4.215498 -2.71159,1.435548 -6.539718,1.435548 z"
           style="font-weight:bold;font-family:Bahnschrift;-inkscape-font-specification:'Bahnschrift Bold'"
           id="path9274" />
        <path
           d="m 100.32853,58.473476 v 6.471359 q 0,3.691409 -1.503911,6.516931 -1.481121,2.802737 -4.215498,4.352217 -2.734377,1.526694 -6.33464,1.526694 -3.623049,0 -6.402999,-1.435548 -2.757163,-1.458335 -4.283857,-4.101566 -1.503907,-2.643231 -1.503907,-6.129561 v -9.775397 q 0,-3.691409 1.481121,-6.494145 1.503907,-2.802737 4.238284,-4.32943 2.734377,-1.549481 6.334639,-1.549481 2.962242,0 5.468754,1.23047 2.506512,1.207683 4.169925,3.440758 1.686199,2.233074 2.278649,5.172529 v 0 h -6.744798 v 0 q -0.341797,-1.048178 -1.139324,-1.800131 -0.77474,-0.77474 -1.845704,-1.162111 -1.048178,-0.410156 -2.187502,-0.410156 -1.663412,0 -2.939455,0.729167 -1.253256,0.729167 -1.959636,2.073569 -0.683595,1.344402 -0.683595,3.098961 v 9.775397 q 0,1.54948 0.706381,2.734377 0.706381,1.184896 2.00521,1.822918 1.298829,0.638021 3.007814,0.638021 1.686199,0 2.939455,-0.683594 1.276043,-0.706381 1.959637,-2.027996 0.683594,-1.321616 0.683594,-3.121747 v -0.546876 h -5.013024 v -6.015629 z"
           style="font-weight:bold;font-family:Bahnschrift;-inkscape-font-specification:'Bahnschrift Bold'"
           id="path9276" />
      </g>
    </g>
  </g>
  <style
     id="style3210">.st0{fill:#c1272d}.st1{fill:#efcca3}.st2{fill:#ed1c24}.st3{fill:#ccac8d}.st4{fill:#fff}.st5{fill:#ff931e}.st6{fill:#ffb81e}.st7{fill:#56332b}.st8{fill:#442823}.st9{fill:#7f4a41}.st10{fill:#331712}.st11{fill:#fc6}.st12{fill:#ccc}.st13{fill:#b3b3b3}.st14{fill:#989898}.st15{fill:#323232}.st16{fill:#1e1e1e}.st17{fill:#4c4c4c}.st18{fill:#e6e6e6}.st19{fill:#606060}</style>
</svg>
