<?xml version="1.0" encoding="UTF-8" standalone="no"?>
<!-- Created with Inkscape (http://www.inkscape.org/) -->

<svg
   width="120"
   height="120"
   viewBox="0 0 120 120"
   version="1.1"
   id="svg5"
   inkscape:version="1.1.1 (3bf5ae0d25, 2021-09-20)"
   sodipodi:docname="html.svg"
   xmlns:inkscape="http://www.inkscape.org/namespaces/inkscape"
   xmlns:sodipodi="http://sodipodi.sourceforge.net/DTD/sodipodi-0.dtd"
   xmlns="http://www.w3.org/2000/svg"
   xmlns:svg="http://www.w3.org/2000/svg">
  <sodipodi:namedview
     id="namedview7"
     pagecolor="#ffffff"
     bordercolor="#666666"
     borderopacity="1.0"
     inkscape:pageshadow="2"
     inkscape:pageopacity="0.0"
     inkscape:pagecheckerboard="0"
     inkscape:document-units="px"
     showgrid="false"
     inkscape:zoom="3.4333333"
     inkscape:cx="32.184466"
     inkscape:cy="65.679612"
     inkscape:window-width="1920"
     inkscape:window-height="1013"
     inkscape:window-x="-9"
     inkscape:window-y="-9"
     inkscape:window-maximized="1"
     inkscape:current-layer="layer3" />
  <defs
     id="defs2" />
  <g
     inkscape:label="circle"
     inkscape:groupmode="layer"
     id="layer1">
    <text
       xml:space="preserve"
       style="font-size:40px;line-height:1.25;font-family:monospace;-inkscape-font-specification:monospace"
       x="-27.470621"
       y="67.578041"
       id="text20869"><tspan
         sodipodi:role="line"
         id="tspan20867"
         x="-27.470621"
         y="67.578041" /></text>
    <circle
       style="display:inline;fill:#ea6767;fill-opacity:1;fill-rule:evenodd;stroke-width:3.69198"
       id="path31"
       cx="-60.426579"
       cy="-59.330097"
       transform="scale(-1)"
       r="59" />
  </g>
  <g
     inkscape:groupmode="layer"
     id="layer2"
     inkscape:label="number">
    <path
       d="m 98.129674,27.884227 q 0,1.66876 -1.92948,3.75468 -1.98163,2.13808 -3.70252,2.50314 -4.01541,0.88649 -10.89896,0.88649 -0.73008,0 -2.607412,-0.0523 -1.82519,-0.10423 -4.90193,-0.20847 -3.024596,-0.10423 -5.527706,-0.15654 -2.450962,-0.10424 -4.380447,-0.10424 -7.613632,0 -11.994075,1.46017 -0.938666,0.93865 -1.825185,1.8773 -0.834374,0.93869 -1.564448,1.87735 -0.730073,0.93869 -1.66874,2.24239 -0.886517,1.25155 -1.981629,2.86815 -1.095111,1.6166 -1.825185,2.6074 -0.677928,0.93865 -0.93867,1.35586 1.355856,0.78222 3.337485,1.40798 2.033777,0.57364 5.006224,1.09512 1.512297,0.26078 2.920297,0.46932 1.460147,0.20847 2.868146,0.41721 1.460153,0.20847 2.503114,0.36501 1.042964,0.15655 1.72089,0.3131 9.282372,1.66871 14.080003,5.47555 4.745488,3.8068 4.745488,12.56771 0.0521,2.24235 -0.886522,4.58902 -0.886523,2.29451 -2.450967,4.43259 -1.564444,2.13808 -3.546073,3.96327 -1.929485,1.77303 -3.911114,3.02457 -6.25778,4.01542 -11.994078,5.89277 -5.892739,1.82518 -12.880593,1.82518 -5.371262,0 -9.647413,-1.19943 -4.27615,-1.19939 -8.18726,-4.06754 -0.625778,-0.41721 -1.251556,-0.83438 -0.573629,-0.41721 -1.042962,-0.88653 -0.469334,-0.46933 -0.782222,-0.99081 -0.260741,-0.57364 -0.260741,-1.25155 0,-5.00622 6.309924,-5.00622 1.355852,0 3.024596,1.3037 0.886518,0.62575 1.407999,0.99081 0.521482,0.36501 0.782222,0.46932 5.475558,2.60741 11.107561,2.60741 5.527706,0 11.472593,-2.34667 5.997039,-2.34666 10.012449,-5.99703 1.929481,-1.72088 2.607407,-2.65957 0.730074,-1.04296 0.730074,-2.81599 0,-3.91111 -1.929481,-6.36209 -1.929481,-2.45093 -5.058373,-3.70248 -3.128888,-1.3037 -6.51852,-1.82519 -3.337481,-0.57363 -7.457187,-0.88653 -0.782222,-0.10423 -1.98163,-0.20847 -1.199407,-0.15654 -2.815999,-0.3127 -1.616596,-0.20846 -2.868151,-0.36501 -1.251554,-0.15655 -2.138072,-0.3127 -2.555264,-0.36501 -5.475558,-2.24239 -2.763855,-1.8773 -2.763855,-3.65037 0,-1.77303 1.929483,-4.01539 0.365054,-0.52148 4.536892,-6.57067 4.119703,-6.1535 6.883558,-9.6474 2.763852,-3.5461 4.067554,-3.75468 1.199407,-0.26078 2.920299,-0.41717 1.773037,-0.15655 4.119703,-0.26078 2.60741,-0.15655 7.248594,-0.3127 4.693337,-0.26078 8.656594,-0.3127 2.398819,-0.10424 4.954078,-0.15655 2.555265,-0.10423 4.536897,-0.36501 0.67792,-0.10424 1.87733,-0.36502 1.25155,-0.3127 3.07674,-0.83437 3.75467,-1.04297 4.79763,-1.04297 3.23319,0 5.632,1.92946 0.52148,0.3127 0.83437,0.52148 0.36506,0.20847 0.57363,0.41721 0.20859,0.15655 0.26074,0.41717 0.0522,0.20847 0.0522,0.57364 z"
       style="font-size:27.1524px;line-height:1.25;font-family:'Segoe Script';-inkscape-font-specification:'Segoe Script';opacity:0.5;fill:#ffffff;stroke-width:2.66999"
       id="path942" />
  </g>
  <g
     inkscape:groupmode="layer"
     id="layer3"
     inkscape:label="text">
    <text
       xml:space="preserve"
       style="font-size:40px;line-height:1.25;font-family:monospace;-inkscape-font-specification:monospace"
       x="-48.640778"
       y="85.048546"
       id="text12937"><tspan
         sodipodi:role="line"
         id="tspan12935"
         x="-48.640778"
         y="85.048546" /></text>
    <g
       aria-label="HTML"
       id="text1661"
       style="font-weight:bold;font-size:40px;line-height:1.25;font-family:Bahnschrift;-inkscape-font-specification:'Bahnschrift Bold';fill:#ffffff">
      <path
         d="m 26.500797,45.130875 h 5.351563 v 28.398437 h -5.351563 z m -15.546875,0 h 5.351563 v 28.398437 h -5.351563 z m 2.480469,11.738281 H 29.97736 v 5.15625 H 13.434391 Z"
         id="path831" />
      <path
         d="m 43.492985,47.455093 h 5.351562 V 73.529312 H 43.492985 Z M 35.75861,45.130875 h 20.820312 v 5.15625 H 35.75861 Z"
         id="path833" />
      <path
         d="m 77.575016,45.130875 h 7.050781 V 73.529312 H 79.762516 V 51.478531 l 0.195313,1.25 -5.429688,17.636719 H 69.801579 L 64.371891,53.119156 64.567204,51.478531 V 73.529312 H 59.703922 V 45.130875 h 7.050782 L 72.16486,64.2715 Z"
         id="path835" />
      <path
         d="m 90.875797,45.130875 h 5.351563 v 28.398437 h -5.351563 z m 2.382813,23.242187 h 16.64062 v 5.15625 H 93.25861 Z"
         id="path837" />
    </g>
  </g>
</svg>
