<?xml version="1.0" encoding="UTF-8" standalone="no"?>
<!-- Created with Inkscape (http://www.inkscape.org/) -->

<svg
   width="120"
   height="120"
   viewBox="0 0 120 120"
   version="1.1"
   id="svg5"
   inkscape:version="1.1.1 (3bf5ae0d25, 2021-09-20)"
   sodipodi:docname="sass.svg"
   xmlns:inkscape="http://www.inkscape.org/namespaces/inkscape"
   xmlns:sodipodi="http://sodipodi.sourceforge.net/DTD/sodipodi-0.dtd"
   xmlns="http://www.w3.org/2000/svg"
   xmlns:svg="http://www.w3.org/2000/svg">
  <sodipodi:namedview
     id="namedview7"
     pagecolor="#ffffff"
     bordercolor="#666666"
     borderopacity="1.0"
     inkscape:pageshadow="2"
     inkscape:pageopacity="0.0"
     inkscape:pagecheckerboard="0"
     inkscape:document-units="px"
     showgrid="false"
     inkscape:zoom="3.4333333"
     inkscape:cx="55.194175"
     inkscape:cy="81.990291"
     inkscape:window-width="1920"
     inkscape:window-height="1013"
     inkscape:window-x="-9"
     inkscape:window-y="-9"
     inkscape:window-maximized="1"
     inkscape:current-layer="layer4" />
  <defs
     id="defs2" />
  <g
     inkscape:label="circle"
     inkscape:groupmode="layer"
     id="layer1">
    <g
       inkscape:label="circle"
       id="layer1-6"
       style="display:inline"
       transform="translate(-28.337233,35.296588)">
      <text
         xml:space="preserve"
         style="font-size:40px;line-height:1.25;font-family:monospace;-inkscape-font-specification:monospace"
         x="-10.163181"
         y="17.767797"
         id="text20869"><tspan
           sodipodi:role="line"
           id="tspan20867"
           x="-10.163181"
           y="17.767797" /></text>
    </g>
    <g
       id="layer3"
       inkscape:label="number"
       style="display:inline"
       transform="translate(-28.337233,35.296588)" />
    <circle
       style="display:inline;fill:#cf649a;fill-opacity:1;fill-rule:evenodd;stroke-width:3.69198"
       id="path31-7-5-4"
       cx="-60.14521"
       cy="-59.600216"
       r="59"
       transform="scale(-1)" />
  </g>
  <g
     inkscape:groupmode="layer"
     id="layer2"
     inkscape:label="letter"
     style="display:inline">
    <path
       d="m 74.011673,24.338099 c -0.948174,0.03921 -1.828711,0.09618 -1.956786,0.126302 -0.128112,0.0299 -0.766419,0.09968 -1.418681,0.154547 -1.725225,0.145648 -3.857824,0.45799 -5.106932,0.748379 -0.395485,0.09197 -1.115938,0.239979 -1.60099,0.329361 -0.485053,0.08916 -1.255606,0.263792 -1.712193,0.387732 -2.847403,0.773825 -3.829101,1.057443 -4.625129,1.336394 -0.130327,0.04574 -0.744156,0.233665 -1.363818,0.417607 -0.619662,0.183935 -1.207573,0.369988 -1.306592,0.413406 -0.09931,0.04364 -0.84646,0.300896 -1.66032,0.571906 -0.814119,0.27077 -1.560379,0.544829 -1.658216,0.608557 -0.09784,0.06372 -0.311234,0.147753 -0.474383,0.18674 -0.374478,0.08964 -4.445477,1.726924 -5.088546,2.046727 -0.264346,0.131176 -0.512595,0.238797 -0.55173,0.238797 -0.169462,0 -5.323651,2.507051 -5.670254,2.757991 -0.07347,0.0532 -0.347046,0.198887 -0.608069,0.323787 -0.496904,0.237874 -0.530132,0.256777 -1.008059,0.572371 -0.163185,0.107622 -0.429894,0.262389 -0.592969,0.343834 -2.837324,1.417164 -8.184087,5.491938 -10.274893,7.829985 -0.204904,0.229235 -0.474641,0.508179 -0.599799,0.620227 -0.696123,0.623261 -2.723758,3.553287 -3.177687,4.592292 -0.112237,0.256777 -0.242933,0.550895 -0.291298,0.653606 -1.427836,3.046279 -1.00684,5.761088 1.362046,8.784023 0.615822,0.785727 1.707467,2.011476 1.947926,2.187251 0.03692,0.02584 0.464266,0.401267 0.953491,0.834749 0.48915,0.433483 1.152968,0.979712 1.474946,1.213842 0.321941,0.234146 0.680432,0.497908 0.79636,0.585914 0.259177,0.196783 1.711012,1.183029 2.592177,1.760772 0.804039,0.527089 2.869333,1.749334 4.012592,2.374228 0.46962,0.256777 1.079498,0.596886 1.355215,0.755852 0.517948,0.29857 1.386339,0.77289 3.228969,1.764275 1.431123,0.769852 2.832599,1.556284 2.905552,1.630284 0.03323,0.0332 0.246255,0.16248 0.474383,0.28712 1.39136,0.76029 1.407678,0.83918 0.26693,1.30231 -3.277297,1.33033 -7.996719,3.62426 -9.526861,4.63081 -0.267668,0.17622 -0.523596,0.3205 -0.568085,0.3205 -0.04467,0 -0.241455,0.11556 -0.438201,0.25678 -0.196413,0.14122 -0.727874,0.48787 -1.180584,0.77032 -4.468885,2.78811 -6.517565,5.7074 -6.519041,9.29057 -8.86e-4,1.84737 0.0022,1.86768 0.614308,3.03461 0.782109,1.49373 2.206402,2.71947 3.535552,3.04254 3.440076,0.83569 8.088317,0.56093 11.562803,-0.68395 0.423987,-0.15197 0.948765,-0.33103 1.16637,-0.39824 0.217458,-0.0672 0.457769,-0.17016 0.533676,-0.22875 0.07569,-0.0586 0.444404,-0.24393 0.818586,-0.41177 2.353158,-1.05511 4.973504,-3.13662 6.581325,-5.22817 0.633876,-0.82471 1.573448,-2.40317 1.573448,-2.64361 0,-0.0733 0.04541,-0.17345 0.10153,-0.22222 1.239877,-1.08382 1.455711,-8.00646 0.316771,-10.15262 -0.219672,-0.41364 -0.232594,-0.71523 -0.03323,-0.75912 0.08159,-0.0177 0.441782,-0.0999 0.800532,-0.18231 1.928617,-0.44282 8.391059,-0.42788 9.45867,0.0218 0.13771,0.0581 0.38127,0.10552 0.541096,0.10552 0.159863,0 0.550253,0.0609 0.867505,0.13538 0.317141,0.0745 0.897151,0.20867 1.288501,0.29857 2.214745,0.50772 5.676457,2.41228 6.226156,3.42514 0.03323,0.06 0.194937,0.27731 0.360337,0.48273 2.07482,2.57172 1.238438,5.39694 -2.100552,7.09702 -1.852414,0.9433 -0.778269,1.65106 1.238992,0.81631 4.762429,-1.97063 5.949219,-6.08859 2.926596,-10.15427 -0.614013,-0.82587 -0.755453,-0.97037 -1.839677,-1.88052 -2.017261,-1.69354 -4.297798,-2.66088 -8.332357,-3.534615 -2.94081,-0.637032 -10.246465,-0.33752 -13.871547,0.568407 -0.158016,0.03947 -0.389873,-0.08355 -0.83579,-0.443987 -1.262731,-1.019629 -2.837324,-2.110218 -4.763283,-3.298851 -0.717499,-0.44282 -1.385452,-0.856927 -1.484176,-0.920185 -0.09895,-0.06302 -0.819214,-0.502811 -1.601027,-0.977146 -5.717697,-3.468786 -7.895929,-5.243797 -9.360574,-7.627366 -1.333544,-2.169976 -1.529255,-5.110746 -0.466925,-7.016945 0.09008,-0.162004 0.163924,-0.353175 0.163924,-0.424847 0,-0.07188 0.04283,-0.170644 0.09488,-0.219415 0.05206,-0.04877 0.220411,-0.340807 0.373554,-0.648939 0.152848,-0.308133 0.344093,-0.623258 0.424874,-0.700291 0.08049,-0.07705 0.323048,-0.392166 0.53962,-0.700295 2.119861,-3.021067 7.280401,-6.670062 14.024505,-9.916627 1.389034,-0.668779 1.609925,-0.770319 2.450146,-1.125602 0.42395,-0.179504 0.840221,-0.369756 0.92473,-0.422747 0.08492,-0.0532 0.565095,-0.258623 1.067352,-0.456122 0.502515,-0.197705 1.126903,-0.45356 1.387815,-0.568406 0.261023,-0.115079 0.767895,-0.313043 1.126645,-0.440018 0.35886,-0.126745 0.839039,-0.318618 1.067352,-0.426246 0.228164,-0.1074 0.948728,-0.377457 1.60099,-0.60015 0.652262,-0.222479 1.479451,-0.507012 1.8382,-0.632134 1.21289,-0.422742 1.430827,-0.491605 1.557425,-0.491605 0.06941,0 0.294251,-0.05719 0.500153,-0.126967 1.093749,-0.371392 1.435553,-0.465231 3.279106,-0.899179 0.489188,-0.115079 1.022864,-0.250944 1.185938,-0.301819 0.815337,-0.254673 3.057034,-0.653374 5.988947,-1.06538 2.784861,-0.391465 7.859453,-0.507245 9.961813,-0.227611 2.04901,0.272653 3.66455,0.610421 4.76155,0.995816 0.20564,0.07214 0.4032,0.131176 0.43875,0.131176 0.0369,0 0.30237,0.126044 0.59242,0.280111 0.28982,0.154066 0.5645,0.28011 0.60984,0.28011 0.31677,0 1.74745,1.128642 2.21533,1.74747 1.07474,1.421593 1.20964,4.187753 0.27321,5.60118 -0.0952,0.143802 -0.17352,0.332167 -0.17389,0.41901 -3e-4,0.08684 -0.0539,0.183935 -0.11925,0.215686 -0.0653,0.03175 -0.11925,0.12885 -0.12073,0.215685 -8.9e-4,0.08684 -0.14768,0.376523 -0.326,0.644037 -0.17833,0.267521 -0.4732,0.708697 -0.65526,0.980412 -1.40679,2.098544 -4.79263,4.883379 -8.20753,6.750595 -0.75899,0.415041 -3.68289,1.820298 -3.78756,1.820298 -0.0258,0 -0.62321,0.212879 -1.33033,0.473164 -1.554142,0.571906 -1.565698,0.575643 -2.531336,0.840121 -0.423987,0.116002 -0.824235,0.239979 -0.889472,0.274979 -0.443517,0.239019 -4.449021,1.049741 -6.700502,1.356234 -5.856145,0.796936 -11.502661,-0.09082 -13.908909,-2.187251 -0.902209,-0.785963 -1.462541,-0.947964 -1.815347,-0.524287 -0.895711,1.076353 2.367409,4.07828 5.543325,5.10001 0.479108,0.154066 0.978116,0.318876 1.108554,0.366023 2.541153,0.919487 10.003901,1.016594 14.942737,0.194456 1.591244,-0.264715 5.00758,-0.98975 5.75177,-1.220376 0.35886,-0.111129 0.99913,-0.287347 1.42311,-0.391469 0.42395,-0.104113 1.26539,-0.374887 1.86992,-0.601549 0.60452,-0.22665 1.12635,-0.41201 1.15983,-0.41201 0.0528,0 1.00566,-0.415041 1.94464,-0.846889 3.13885,-1.443771 6.94067,-4.093919 8.89805,-6.202734 0.28613,-0.308133 0.55058,-0.581243 0.58761,-0.606921 0.43285,-0.299013 2.30044,-2.903887 2.94558,-4.108388 0.190502,-0.355501 0.627962,-1.410392 1.114752,-2.687496 0.41598,-1.09129 0.58378,-3.632889 0.32711,-4.956911 -0.8432,-4.350922 -4.851032,-7.390666 -11.850442,-8.98757 -2.87114,-0.655241 -7.79539,-1.000486 -11.863733,-0.831947 M 48.398041,75.600197 c 0.380089,0.5593 0.583776,3.17046 0.35443,4.54771 -0.68933,4.14387 -4.632549,8.07368 -9.508511,9.4766 -4.966969,1.42907 -7.018049,-0.31747 -5.116975,-4.35769 1.263322,-2.68493 5.327491,-5.93639 10.399424,-8.32043 0.315664,-0.14845 0.742678,-0.34922 0.948765,-0.44608 0.206012,-0.0969 0.774983,-0.34384 1.264171,-0.5488 0.489187,-0.20472 0.940163,-0.4092 1.002114,-0.45402 0.194937,-0.14078 0.526292,-0.0889 0.656434,0.10271"
       style="fill:#fbfafa;fill-opacity:0.501961;fill-rule:evenodd;stroke:none;stroke-width:1.94416"
       id="path55018" />
  </g>
  <g
     inkscape:groupmode="layer"
     id="layer4"
     inkscape:label="text">
    <g
       aria-label="SASS"
       id="text3953"
       style="font-weight:bold;font-size:40px;line-height:1.25;font-family:Bahnschrift;-inkscape-font-specification:'Bahnschrift Bold';fill:#ffffff">
      <path
         d="m 23.670601,74.092407 q -2.03125,0 -3.984375,-0.410156 -1.933594,-0.410156 -3.652344,-1.191406 -1.699219,-0.800782 -3.046875,-1.914063 v 0 l 2.480469,-4.414062 v 0 q 1.640625,1.347656 3.789062,2.089843 2.148438,0.722657 4.414063,0.722657 2.617187,0 4.0625,-0.878907 1.445312,-0.898437 1.445312,-2.519531 v -0.01953 q 0,-1.132813 -0.644531,-1.796875 -0.644531,-0.664063 -1.679687,-0.976563 -1.035157,-0.3125 -2.65625,-0.566406 -0.05859,-0.01953 -0.117188,-0.01953 -0.03906,0 -0.09766,-0.01953 l -0.429688,-0.05859 q -2.851562,-0.449219 -4.726562,-1.113281 -1.875,-0.683594 -3.183594,-2.363282 -1.308594,-1.699218 -1.308594,-4.804687 v -0.01953 q 0,-2.753907 1.230469,-4.707032 1.230469,-1.953125 3.574219,-2.96875 2.34375,-1.035156 5.664062,-1.035156 1.523438,0 3.105469,0.351563 1.601563,0.351562 3.125,1.015625 1.523438,0.664062 2.890625,1.601562 v 0 l -2.265625,4.53125 v 0 q -1.640625,-1.132812 -3.4375,-1.757812 -1.777344,-0.625 -3.417969,-0.625 -2.460937,0 -3.808593,0.820312 -1.347657,0.800781 -1.347657,2.265625 v 0.01953 q 0,1.230469 0.703125,1.953125 0.703125,0.703125 1.738282,1.035157 1.035156,0.332031 2.910156,0.703125 0.07813,0.01953 0.15625,0.03906 0.07813,0 0.15625,0.01953 0.117187,0.01953 0.214844,0.05859 0.117187,0.01953 0.234375,0.03906 2.695312,0.527343 4.492187,1.289062 1.816406,0.742188 3.027344,2.421875 1.210937,1.660156 1.210937,4.550781 v 0.03906 q 0,2.714844 -1.269531,4.648437 -1.269531,1.933594 -3.710937,2.949219 -2.421875,1.015625 -5.839844,1.015625 z"
         id="path16373" />
      <path
         d="m 47.498726,45.401001 h 3.398437 L 61.756538,73.799438 H 55.99482 L 49.197945,54.404907 42.40107,73.799438 h -5.761719 z m -5.644531,18.691406 h 14.941406 v 5.15625 H 41.854195 Z"
         id="path16375" />
      <path
         d="m 72.635445,74.092407 q -2.03125,0 -3.984375,-0.410156 -1.933594,-0.410156 -3.652344,-1.191406 -1.699219,-0.800782 -3.046875,-1.914063 v 0 L 64.43232,66.16272 v 0 q 1.640625,1.347656 3.789062,2.089843 2.148438,0.722657 4.414063,0.722657 2.617187,0 4.0625,-0.878907 1.445312,-0.898437 1.445312,-2.519531 v -0.01953 q 0,-1.132813 -0.644531,-1.796875 -0.644531,-0.664063 -1.679688,-0.976563 -1.035156,-0.3125 -2.65625,-0.566406 -0.05859,-0.01953 -0.117187,-0.01953 -0.03906,0 -0.09766,-0.01953 l -0.429688,-0.05859 q -2.851562,-0.449219 -4.726562,-1.113281 -1.875,-0.683594 -3.183594,-2.363282 -1.308594,-1.699218 -1.308594,-4.804687 v -0.01953 q 0,-2.753907 1.230469,-4.707032 1.230469,-1.953125 3.574219,-2.96875 2.34375,-1.035156 5.664062,-1.035156 1.523438,0 3.105469,0.351563 1.601562,0.351562 3.125,1.015625 1.523437,0.664062 2.890625,1.601562 v 0 l -2.265625,4.53125 v 0 q -1.640625,-1.132812 -3.4375,-1.757812 -1.777344,-0.625 -3.417969,-0.625 -2.460937,0 -3.808594,0.820312 -1.347656,0.800781 -1.347656,2.265625 v 0.01953 q 0,1.230469 0.703125,1.953125 0.703125,0.703125 1.738281,1.035157 1.035157,0.332031 2.910157,0.703125 0.07813,0.01953 0.15625,0.03906 0.07813,0 0.15625,0.01953 0.117187,0.01953 0.214843,0.05859 0.117188,0.01953 0.234375,0.03906 2.695313,0.527343 4.492188,1.289062 1.816406,0.742188 3.027344,2.421875 1.210937,1.660156 1.210937,4.550781 v 0.03906 q 0,2.714844 -1.269531,4.648437 -1.269531,1.933594 -3.710938,2.949219 -2.421875,1.015625 -5.839843,1.015625 z"
         id="path16377" />
      <path
         d="m 96.483101,74.092407 q -2.03125,0 -3.984375,-0.410156 -1.933594,-0.410156 -3.652344,-1.191406 -1.699219,-0.800782 -3.046875,-1.914063 v 0 l 2.480469,-4.414062 v 0 q 1.640625,1.347656 3.789062,2.089843 2.148438,0.722657 4.414063,0.722657 2.617187,0 4.062499,-0.878907 1.44531,-0.898437 1.44531,-2.519531 v -0.01953 q 0,-1.132813 -0.64453,-1.796875 -0.64453,-0.664063 -1.679685,-0.976563 -1.035157,-0.3125 -2.65625,-0.566406 -0.05859,-0.01953 -0.117188,-0.01953 -0.03906,0 -0.09766,-0.01953 l -0.429688,-0.05859 q -2.851562,-0.449219 -4.726562,-1.113281 -1.875,-0.683594 -3.183594,-2.363282 -1.308594,-1.699218 -1.308594,-4.804687 v -0.01953 q 0,-2.753907 1.230469,-4.707032 1.230469,-1.953125 3.574219,-2.96875 2.34375,-1.035156 5.664062,-1.035156 1.523438,0 3.105467,0.351563 1.60156,0.351562 3.125,1.015625 1.52344,0.664062 2.89063,1.601562 v 0 l -2.26563,4.53125 v 0 q -1.64062,-1.132812 -3.4375,-1.757812 -1.777342,-0.625 -3.417967,-0.625 -2.460937,0 -3.808593,0.820312 -1.347657,0.800781 -1.347657,2.265625 v 0.01953 q 0,1.230469 0.703125,1.953125 0.703125,0.703125 1.738282,1.035157 1.035156,0.332031 2.910156,0.703125 0.07813,0.01953 0.15625,0.03906 0.07813,0 0.15625,0.01953 0.117187,0.01953 0.214844,0.05859 0.117187,0.01953 0.234375,0.03906 2.695315,0.527343 4.492185,1.289062 1.81641,0.742188 3.02735,2.421875 1.21093,1.660156 1.21093,4.550781 v 0.03906 q 0,2.714844 -1.26953,4.648437 -1.26953,1.933594 -3.71094,2.949219 -2.42187,1.015625 -5.839839,1.015625 z"
         id="path16379" />
    </g>
  </g>
</svg>
