<svg width="120" height="120" version="1.1" id="svg5" xmlns="http://www.w3.org/2000/svg"><defs id="defs2"><style id="style824"/></defs><g id="layer1"><circle cx="60.158" cy="60.433" id="circle828" r="59" fill="#a07765" fill-opacity="1" stroke-width=".983"/><g id="g3332" transform="matrix(.78127 0 0 .95151 9.961 -2.092)" opacity=".75"><path class="st1" d="M107.4 50.9c-.2-4.4.4-8.3-1.6-11.6-4.8-8.2-16.8-13-40.8-13v.7h-.5.5v-.7c-24 0-36.6 4.8-41.4 13.1-1.9 3.4-1.7 7.2-2 11.6-.2 3.5-1.8 7.2-1.1 11.2.8 5.2 1.1 10.4 1.9 15.2.6 3.9 6 7.2 6.5 10.9 1.4 10.2 12 14.9 36 14.9v.8h-.6.7v-.8c24 0 34.2-4.7 35.5-14.9.5-3.8 5.5-7 6.1-10.9.8-4.8 1.1-10 1.9-15.2.7-4-.9-7.8-1.1-11.3z" id="path3212"/><path class="st3" d="M64.6 54.5c4.3.1 7.3 2.8 10.1 5.3 3.3 2.9 8.9 4.9 11.2 7.4 2.3 2.5 5.3 5 6.4 8.9 1.1 3.9 1.4 8.9 1.4 10.2 0 1.3.7 1 2.7 0 4.7-2.3 9.9-8.5 9.9-8.5-.6 3.9-5.7 7.4-6.2 11.1C98.9 99.1 89 104 64.5 104h-.1.6" id="path3214"/><path class="st3" d="M80.4 46.7c.9 3.1 4.1 13.6-2.1 10.1 0 0 2.6 1.5 4.2 7.2 1.7 5.7 5.8 6.4 5.8 6.4s6.7 1.3 11.7-3c4.2-3.6 4.9-10 3.1-14.9-1.8-4.8-5-6.3-9.7-7.3-4.7-1.1-14.1-2-13 1.5z" id="path3216"/><circle cx="92.3" cy="58.1" r="8.8" id="circle3218"/><circle class="st4" cx="90" cy="54.2" r="2.3" id="circle3220"/><path class="st1" d="M78.9 57.7s7.9 5.4 12.2 10.7c4.3 5.3 4.2 6.3 4.2 6.3l-3.1 1.4s-4.4-8.3-9.8-11.4c-5.5-3.1-6.1-5.7-6.1-5.7z" id="path3222"/><path class="st3" d="M64.9 54.5c-4.3.1-7.5 2.8-10.4 5.3-3.3 2.9-9.1 4.9-11.4 7.4-2.3 2.5-5.4 5-6.5 8.9-1.1 3.9-1.5 8.9-1.5 10.2 0 1.3.2 1.4-2.7 0-4.7-2.2-9.9-8.5-9.9-8.5.6 3.9 5.7 7.4 6.2 11.1C30.1 99.1 40 104 64.5 104h.5" id="path3224"/><path class="st7" d="M88.1 71.4C83.3 65.5 75.6 60 64.9 60h-.1c-10.7 0-18.4 5.5-23.2 11.4-5 6.1-4.6 8.5-4.6 14.3 0 21 7.4 15 12.3 17.6 5 2.5 10.2 1.7 15.5 1.7h.1c5.4 0 10.5.7 15.5-1.8 4.9-2.5 12.3 3.7 12.3-17.3.1-5.8.4-8.4-4.6-14.5z" id="path3226"/><path class="st8" d="M64.4 65.2s-.7 9.7-2.1 11.6l2.6-.6z" id="path3228"/><path class="st8" d="M65.1 65.2s.7 9.7 2.1 11.6l-2.6-.6z" id="path3230"/><path class="st7" d="M56.7 62.9c-1-2.3 2.6-6 8.3-6.1 5.7 0 9.3 3.7 8.3 6.1-1 2.4-4.6 3.1-8.3 3.2-3.6-.1-7.3-.8-8.3-3.2z" id="path3232"/><path d="M65 65.2c0-.4 3.4-.5 5.2-1.7 0 0-3.7 1.2-4.5.7-.8-.4-1-1.6-1-1.6s-.3 1.2-.9 1.6c-.7.4-4.9-.7-4.9-.7s5.6 1.4 5.6 1.7c0 .3-.1 1.3-.1 2 0 2.5 0 8.7.4 9.2.6.9.4-6.7.4-9.2-.1-.8-.1-1.6-.2-2z" id="path3234"/><path class="st9" d="M65.2 78.6c1.7 0 4.7 1.2 7.4 3.1-2.6-2.9-5.7-4.9-7.4-4.9-1.8 0-5.6 2.2-8.3 5.4 2.8-2.2 6.4-3.6 8.3-3.6z" id="path3236"/><path class="st8" d="M64.5 96.3c-3.8 0-7.5-1.2-10.9-2.1-.7-.2-1.4.3-2.1.1-6.3-2-11.4-5.4-14.5-9.7v1c0 21 7.4 15.1 12.3 17.6 5 2.5 10.2 1.7 15.5 1.7h.1c5.4 0 10.5.7 15.5-1.8 4.9-2.5 12.3 3.6 12.3-17.4 0-.8 0-1.6.1-2.3-2.9 4.7-8.2 8.4-14.8 10.6-.6.2-2-.3-2.6-.2-3.6 1.2-6.8 2.5-10.9 2.5z" id="path3238"/><path class="st8" d="M55 85s-2.5 7.5-.8 10.8l-2.3-1s1.7-7.6 3.1-9.8zm19.8 0s2.5 7.5.8 10.8l2.3-1s-1.8-7.6-3.1-9.8z" id="path3240"/><path class="st3" d="M48.6 46.7c-.9 3.1-4.1 13.6 2.1 10.1 0 0-2.6 1.5-4.2 7.2s-5.8 6.4-5.8 6.4-6.7 1.3-11.7-3c-4.2-3.6-4.9-10-3.1-14.9 1.8-4.9 5-6.3 9.7-7.3 4.7-1.1 14-2 13 1.5z" id="path3242"/><path d="M64.9 76.8c2.7 0 11.1 5.8 11.2 12.9v-.4c0-7.4-6.8-13.3-11.2-13.3-4.4 0-11.2 6-11.2 13.3v.4c.1-7.1 8.5-12.9 11.2-12.9z" id="path3244"/><ellipse transform="rotate(-14.465 66.712 61.468)" class="st10" cx="66.7" cy="61.5" rx=".8" ry="1.5" id="ellipse3246"/><ellipse transform="rotate(17.235 62.371 61.462)" class="st10" cx="62.4" cy="61.5" rx=".8" ry="1.5" id="ellipse3248"/><circle cx="37.2" cy="58.1" r="8.8" id="circle3250"/><circle class="st4" cx="39.5" cy="54.2" r="2.3" id="circle3252"/><path class="st9" d="M67.5 58.2c0-.1-2.3 1-2.9 1.1-.6-.1-2.9-1.2-2.9-1.1z" id="path3254"/><path class="st1" d="M50 57.7s-7.9 5.4-12.2 10.7c-4.3 5.3-4.2 6.3-4.2 6.3l3.1 1.4s4.4-8.3 9.8-11.4c5.4-3.1 6.1-5.7 6.1-5.7z" id="path3256"/><path class="st3" d="M32.7 41.7S30 49.1 24 52.2c0 0 9.4-1.1 8.7-10.5zm63.1 0s2.7 7.4 8.7 10.5c0 0-9.4-1.1-8.7-10.5zM78.7 55.5s-5.9-6.2-13.8-6.4h.2c-8 .2-13.8 6.4-13.8 6.4 6.9-4.8 12.8-4.7 13.8-4.7-.1 0 6.7-.1 13.6 4.7zm-6.9-13s-3-4.2-7-4.3h.2c-3 .1-6.9 4.3-6.9 4.3 3.4-3.3 6.9-3.2 6.9-3.2s3.3-.1 6.8 3.2zM37.2 73.2s-4.7 2.3-8.1.9H29c-3-1.7-4.5-6.8-4.5-6.8s3 9 12.7 5.9zm54.8 0s4.7 2.3 8.1.9c4-1.7 4.6-6.8 4.6-6.8s-3 9-12.7 5.9z" id="path3258"/><path class="st3" d="M42.6 41.2c2.6-.5 6.9-.6 10.3.5 4.3 1.5.8 7 1.7 7.3.9.3 2.1-3.8 10.1-3.4 8.1.4 9 4 10.1 3.4 1.1-.6-1.1-10 11-7.8 0 0-12.7-3.4-12.1 5.8 0 0-7.3-5.6-17.5-.6.1 0 2.7-8.6-13.6-5.2zm44.3 0c.2 0 .3.1.4.1.1 0-.1-.1-.4-.1zm0 0zM39.1 28.9S28.3 42.5 26.7 47.7c-1.6 5.3-2.8 27-4.2 30.1l-5-21.4 9.2-22.3zm50.8 0s10.8 13.6 12.4 18.8c1.6 5.3 2.8 27 4.2 30.1l5-21.4-9.2-22.3z" id="path3260"/><path class="st7" d="M89.4 28.9s11.6 9.7 15 20.9c3.4 11.2 2 24.8 4.6 26.5 3.7 2.4 7.9-11.9 9.3-13.4 2.2-2.4 9.5-8.5 10-9.6.5-1.1-14.8-17.8-21.5-21.1-8.1-3.8-18.1-4.1-17.4-3.3z" id="path3262"/><path class="st8" d="M99.3 34.9s13.7 17.5 13.5 39.3l5.5-11.2c-.1 0-4.9-14.3-19-28.1z" id="path3264"/><path class="st7" d="M39.1 28.9s-11.6 9.7-15 20.9c-3.4 11.2-2 24.8-4.6 26.5-3.7 2.4-7.9-11.9-9.3-13.4C8 60.5.7 54.4.2 53.3-.3 52.2 15 35.5 21.7 32.2c8.1-3.8 18.1-4.1 17.4-3.3z" id="path3266"/><path class="st8" d="M29.2 34.9S15.5 52.4 15.7 74.2L10.3 63s4.8-14.3 18.9-28.1z" id="path3268"/><path class="st3" d="M21.8 74.6s1 5.4 2.6 7.1c1.6 1.7.5-1.3.5-1.3s-1.7-.9-1.4-7.8c.3-6.9-1.7 2-1.7 2zm85.3 0s-1 5.4-2.6 7.1c-1.6 1.7-.5-1.3-.5-1.3s1.7-.9 1.4-7.8c-.3-6.9 1.7 2 1.7 2z" id="path3270"/><g id="g3278"><circle class="st8" cx="54.5" cy="70.5" r=".8" id="circle3272"/><circle class="st8" cx="49.9" cy="75.3" r=".8" id="circle3274"/><circle class="st8" cx="48.4" cy="70.5" r=".8" id="circle3276"/></g><g id="g3286"><circle class="st8" cx="74" cy="70.5" r=".8" id="circle3280"/><circle class="st8" cx="78.6" cy="75.3" r=".8" id="circle3282"/><circle class="st8" cx="80.1" cy="70.5" r=".8" id="circle3284"/></g></g></g><g id="layer2" display="inline"><path d="M-60.577 31.871s-.445.1-1.754.105c-1.309.006-2.238-.008-2.608-.345-.1-.09-.154-.27-.154-.392.001-.231.166-.367.375-.453l.199.31c-.087.03-.136.066-.136.103 0 .176 1.338.296 2.363.283 1.024-.012 2.262-.097 2.263-.27 0-.052-.094-.102-.256-.14l.197-.309c.265.082.497.241.496.517-.002.467-.598.539-.985.591" fill="#fff" id="path850" stroke-width=".18"/></g><g id="layer3"><g aria-label="PUG" id="text5814" style="line-height:1.25" font-size="46.667" fill="#fff"><g id="g9541" transform="translate(.743)" font-weight="700" font-family="Bahnschrift"><path d="M21.35 58.132h10.596q1.117 0 1.96-.502.866-.524 1.344-1.458.479-.934.479-2.142 0-1.23-.479-2.165-.455-.957-1.321-1.458-.843-.524-1.983-.524H21.351v-6.016h10.436q3.099 0 5.446 1.276 2.37 1.254 3.668 3.555 1.3 2.302 1.3 5.332t-1.3 5.332q-1.298 2.279-3.668 3.532-2.347 1.253-5.446 1.253H21.35zm-2.848-14.265h6.244V77h-6.244z" style="-inkscape-font-specification:'Bahnschrift Bold'" id="path9272"/><path d="M58.72 77.17q-3.828 0-6.54-1.436-2.71-1.458-4.124-4.215-1.412-2.78-1.412-6.677V43.696h6.243v21.306q0 2.848 1.527 4.42 1.526 1.573 4.306 1.573 2.803 0 4.33-1.573 1.55-1.572 1.55-4.42V43.696h6.243v21.146q0 3.897-1.436 6.677-1.412 2.757-4.147 4.215-2.711 1.436-6.54 1.436z" style="-inkscape-font-specification:'Bahnschrift Bold'" id="path9274"/><path d="M100.329 58.473v6.472q0 3.691-1.504 6.517-1.482 2.803-4.216 4.352-2.734 1.527-6.335 1.527-3.623 0-6.403-1.436-2.757-1.458-4.283-4.101-1.504-2.644-1.504-6.13v-9.775q0-3.692 1.48-6.495 1.505-2.802 4.24-4.329 2.734-1.55 6.334-1.55 2.962 0 5.469 1.231 2.506 1.208 4.17 3.44 1.686 2.234 2.278 5.173H93.31q-.342-1.048-1.139-1.8-.775-.775-1.846-1.162-1.048-.41-2.187-.41-1.664 0-2.94.73-1.253.728-1.96 2.073-.683 1.344-.683 3.099v9.775q0 1.55.706 2.734.707 1.185 2.006 1.823 1.298.638 3.007.638 1.687 0 2.94-.683 1.276-.707 1.96-2.028.683-1.322.683-3.122v-.547h-5.013v-6.016z" style="-inkscape-font-specification:'Bahnschrift Bold'" id="path9276"/></g></g></g><style id="style3210">.st1{fill:#efcca3}.st3{fill:#ccac8d}.st4{fill:#fff}.st7{fill:#56332b}.st8{fill:#442823}.st9{fill:#7f4a41}.st10{fill:#331712}</style></svg>