<svg width="120" height="120" xmlns="http://www.w3.org/2000/svg"><circle cx="-59.982" cy="-59.736" r="59" transform="scale(-1)" fill="#3e6bde" fill-rule="evenodd"/><g style="line-height:1.25;-inkscape-font-specification:monospace"><path d="M46.241 62.161q-3.807 0-3.807-2.242 0-1.252.73-2.764.73-1.565 4.225-4.59l9.282-7.926q5.736-4.902 12.568-9.751-2.869-.47-15.332 1.043-9.647 1.199-13.506 1.199-8.97 0-8.97-8.187 0-1.617 1.043-2.816 1.095-1.252 2.66-1.252 1.147 0 2.816 1.2 2.086 1.46 3.233 1.877 1.2.417 3.494.417 3.702 0 13.558-.939 12.985-1.512 20.703-1.512 6.414 0 6.414 4.172 0 2.972-2.66 5.058-2.607 2.086-7.613 5.059-6.623 3.963-9.282 5.945-2.608 1.93-5.215 5.11 5.736-.417 8.657-.417 6.31 0 10.846 1.617 4.537 1.564 6.78 4.12 2.294 2.555 3.494 4.119 1.199 1.564 1.199 5.632 0 3.494-5.11 11.316-5.111 7.77-16.896 12.36-11.786 4.588-22.998 4.588-3.233 0-9.334-.782-6.05-.834-7.458-2.972-1.355-2.138-1.355-4.329 0-5.475 5.162-5.475.209 0 .783.26l3.598 1.513q5.945 2.712 10.847 2.712 4.276 0 13.037-1.67 8.76-1.72 14.705-7.248 5.945-5.58 5.945-8.917 0-5.684-5.997-7.51-5.945-1.877-13.245-1.877-10.17 0-17 3.86z" style="-inkscape-font-specification:'Segoe Print'" font-family="Segoe Print" fill="#fff" aria-label="3" font-size="28.927" opacity=".5"/></g><path d="M29.018 78.592q-4.218 0-7.217-1.601-2.999-1.626-4.574-4.701-1.576-3.1-1.576-7.471v-10.14q0-4.37 1.576-7.445 1.575-3.1 4.574-4.727 2.999-1.626 7.217-1.626 3.481 0 6.226 1.499 2.744 1.5 4.523 4.37 1.804 2.847 2.49 6.887h-7.216q-.407-1.83-1.271-3.125-.839-1.296-2.058-1.982-1.195-.687-2.694-.687-1.957 0-3.33.814-1.371.787-2.108 2.338-.712 1.524-.712 3.684v10.14q0 2.16.712 3.684.737 1.525 2.109 2.338 1.372.788 3.329.788 1.525 0 2.744-.66 1.22-.687 2.059-1.983.838-1.296 1.22-3.15h7.217q-.712 4.04-2.516 6.911-1.78 2.846-4.524 4.346-2.719 1.499-6.2 1.499zm30.189 0q-2.643 0-5.184-.534-2.516-.533-4.752-1.55-2.21-1.042-3.964-2.49l3.227-5.743q2.135 1.753 4.93 2.719 2.795.94 5.743.94 3.405 0 5.286-1.144 1.88-1.168 1.88-3.278v-.025q0-1.474-.838-2.338-.839-.864-2.186-1.27-1.346-.407-3.456-.738-.076-.025-.152-.025-.05 0-.127-.025l-.56-.077q-3.71-.584-6.149-1.448-2.44-.89-4.142-3.075-1.703-2.21-1.703-6.251v-.026q0-3.583 1.601-6.124 1.601-2.541 4.65-3.863 3.05-1.346 7.37-1.346 1.982 0 4.04.457 2.084.457 4.067 1.321 1.982.864 3.76 2.084l-2.947 5.896q-2.135-1.474-4.473-2.287-2.312-.813-4.447-.813-3.202 0-4.955 1.067-1.754 1.042-1.754 2.948v.025q0 1.601.915 2.541.915.915 2.262 1.347 1.347.432 3.786.915l.204.05q.101 0 .203.026.152.026.28.076l.304.051q3.507.686 5.845 1.677 2.363.966 3.939 3.151 1.575 2.16 1.575 5.921v.051q0 3.533-1.651 6.048-1.652 2.516-4.829 3.837-3.15 1.322-7.598 1.322zm31.028 0q-2.643 0-5.184-.534-2.516-.533-4.752-1.55-2.21-1.042-3.964-2.49l3.227-5.743q2.135 1.753 4.93 2.719 2.795.94 5.743.94 3.405 0 5.286-1.144 1.88-1.168 1.88-3.278v-.025q0-1.474-.838-2.338-.839-.864-2.186-1.27-1.346-.407-3.456-.738-.076-.025-.152-.025-.051 0-.127-.025l-.56-.077q-3.71-.584-6.149-1.448-2.44-.89-4.142-3.075-1.703-2.21-1.703-6.251v-.026q0-3.583 1.601-6.124 1.601-2.541 4.65-3.863 3.05-1.346 7.37-1.346 1.982 0 4.04.457 2.084.457 4.066 1.321 1.983.864 3.761 2.084l-2.947 5.896q-2.135-1.474-4.473-2.287-2.312-.813-4.447-.813-3.202 0-4.955 1.067Q85 49.648 85 51.554v.025q0 1.601.915 2.541.915.915 2.262 1.347 1.347.432 3.786.915l.204.05q.101 0 .203.026.152.026.28.076l.304.051q3.507.686 5.845 1.677 2.363.966 3.939 3.151 1.575 2.16 1.575 5.921v.051q0 3.533-1.651 6.048-1.652 2.516-4.829 3.837-3.15 1.322-7.598 1.322z" aria-label="CSS" font-weight="700" font-size="52.044" font-family="Bahnschrift" fill="#fff"/></svg>