<svg width="120" height="120" xmlns="http://www.w3.org/2000/svg"><circle cx="-59.996" cy="-60.26" r="59" transform="scale(-1)" fill="#f1bf22" fill-rule="evenodd"/><g style="line-height:1.25;-inkscape-font-specification:monospace"><path d="M69.983 33.743q-1.826 0-2.556.469-6.831 1.93-14.653 11.733-1.408 1.878-4.85 5.215-3.755 3.598-5.684 6.414-1.878 2.764-3.598 7.77-1.67 5.007-1.67 9.335 0 2.66 1.096 4.902 1.095 2.242 6.727 5.788-1.043-8.187 2.868-15.331 3.911-7.197 9.856-10.326 5.945-3.18 18.409-3.18 5.997 0 10.794 4.171 4.85 4.12 4.85 9.908 0 3.807-3.129 7.98-3.129 4.17-10.273 8.708-7.144 4.537-11.368 6.153-4.172 1.617-15.28 1.617-5.788 0-10.325-1.982-4.485-1.981-8.657-6.883-4.12-4.902-4.12-8.918 0-8.97 2.4-14.445 2.398-5.527 6.726-11.577 4.38-6.1 8.396-9.803 1.356-1.252 4.38-4.537 5.685-6.258 9.492-8.865 3.859-2.608 7.405-2.608 1.773 0 3.337 1.252 1.565 1.2 1.565 3.024 0 3.598-2.138 4.016zm14.445 34.73q-5.893-4.276-13.715-4.276-18.565 0-19.764 21.902 1.72.522 4.64.522l5.111-.209q5.11 0 14.393-6.414 9.335-6.414 9.335-11.525z" style="-inkscape-font-specification:'Segoe Print'" font-family="Segoe Print" fill="#fff" aria-label="6" font-size="28.927" opacity=".5"/></g><path d="M32.731 89.286q-5.242 0-9.35-2.035-4.067-2.034-6.336-5.75l8.762-6.376q1.408 1.8 3.364 2.777 1.995.978 4.147.978 3.09 0 4.772-2.151 1.682-2.19 1.682-6.142V31.821h11.11v38.805q0 5.907-2.152 10.093-2.112 4.185-6.18 6.376-4.069 2.19-9.819 2.19zm48.545 0q-4.068 0-7.98-.822-3.872-.821-7.315-2.386-3.403-1.604-6.102-3.834l4.968-8.84q3.286 2.699 7.589 4.185 4.303 1.448 8.84 1.448 5.242 0 8.137-1.76 2.895-1.8 2.895-5.047v-.039q0-2.269-1.291-3.599t-3.364-1.956q-2.074-.626-5.32-1.134-.118-.04-.235-.04-.078 0-.196-.038l-.86-.118q-5.711-.9-9.467-2.23-3.755-1.369-6.376-4.733-2.62-3.403-2.62-9.623v-.039q0-5.516 2.463-9.427 2.465-3.912 7.16-5.946 4.693-2.074 11.343-2.074 3.052 0 6.22.705 3.208.704 6.259 2.034 3.051 1.33 5.79 3.207l-4.538 9.076q-3.286-2.27-6.885-3.52-3.56-1.253-6.846-1.253-4.929 0-7.628 1.643-2.699 1.604-2.699 4.538v.04q0 2.464 1.408 3.91 1.409 1.41 3.482 2.074 2.073.665 5.828 1.408l.313.079q.157 0 .313.039.235.039.43.117l.47.078q5.398 1.057 8.997 2.582 3.638 1.487 6.064 4.85 2.425 3.326 2.425 9.115v.079q0 5.437-2.543 9.31-2.542 3.872-7.432 5.906-4.85 2.035-11.697 2.035z" aria-label="JS" font-weight="700" font-size="80.114" font-family="Bahnschrift" fill="#fff"/></svg>