<svg width="120" height="120" xmlns="http://www.w3.org/2000/svg"><circle cx="-60.427" cy="-59.33" transform="scale(-1)" r="59" fill="#ea6767" fill-rule="evenodd"/><path d="M98.13 27.884q0 1.669-1.93 3.755-1.981 2.138-3.702 2.503-4.016.887-10.9.887-.73 0-2.607-.053-1.825-.104-4.902-.208-3.024-.104-5.527-.157-2.451-.104-4.38-.104-7.614 0-11.995 1.46-.939.939-1.825 1.877-.834.94-1.564 1.878-.73.938-1.67 2.242-.886 1.252-1.98 2.868-1.096 1.617-1.826 2.608-.678.938-.939 1.356 1.356.782 3.338 1.408 2.034.573 5.006 1.095 1.512.26 2.92.469 1.46.208 2.868.417 1.46.209 2.504.365 1.043.157 1.72.313 9.283 1.67 14.08 5.476 4.746 3.807 4.746 12.568.052 2.242-.887 4.589-.886 2.294-2.45 4.432-1.565 2.138-3.547 3.963-1.93 1.774-3.91 3.025-6.259 4.015-11.995 5.893-5.893 1.825-12.88 1.825-5.372 0-9.648-1.2-4.276-1.199-8.187-4.067l-1.252-.834q-.573-.418-1.043-.887-.469-.47-.782-.99-.26-.574-.26-1.252 0-5.006 6.31-5.006 1.355 0 3.024 1.303.886.626 1.408.991.521.365.782.47 5.476 2.607 11.108 2.607 5.527 0 11.472-2.347 5.997-2.347 10.013-5.997 1.93-1.72 2.607-2.66.73-1.042.73-2.815 0-3.912-1.93-6.363-1.929-2.45-5.058-3.702-3.128-1.304-6.518-1.825-3.338-.574-7.457-.887-.783-.104-1.982-.208-1.2-.157-2.816-.313-1.617-.208-2.868-.365-1.252-.156-2.138-.313-2.555-.365-5.476-2.242-2.764-1.877-2.764-3.65t1.93-4.016q.365-.521 4.537-6.57 4.12-6.154 6.883-9.648 2.764-3.546 4.068-3.755 1.2-.26 2.92-.417 1.773-.156 4.12-.26 2.607-.157 7.249-.313 4.693-.261 8.656-.313 2.399-.104 4.954-.156 2.555-.105 4.537-.365.678-.105 1.877-.365 1.252-.313 3.077-.835 3.755-1.043 4.798-1.043 3.233 0 5.632 1.93.521.312.834.521.365.209.574.417.208.157.26.418.053.208.053.573z" style="line-height:1.25;-inkscape-font-specification:'Segoe Script'" font-size="27.152" font-family="Segoe Script" opacity=".5" fill="#fff"/><path d="M26.5 45.13h5.352v28.4h-5.351zm-15.546 0h5.351v28.4h-5.351zm2.48 11.74h16.543v5.155H13.434zm30.059-9.415h5.352V73.53h-5.352zm-7.734-2.324h20.82v5.156h-20.82zm41.816-.001h7.05v28.4h-4.862V51.478l.195 1.25-5.43 17.636h-4.726l-5.43-17.246.195-1.64v22.05h-4.863V45.131h7.05l5.41 19.14zm13.301 0h5.351v28.4h-5.351zm2.383 23.243h16.64v5.156H93.26z" aria-label="HTML" font-weight="700" font-family="Bahnschrift" fill="#fff" font-size="40"/></svg>