<svg width="120" height="120" xmlns="http://www.w3.org/2000/svg"><circle cx="-60.145" cy="-59.6" r="59" transform="scale(-1)" fill="#cf649a" fill-rule="evenodd"/><path d="M74.012 24.338c-.949.04-1.829.096-1.957.126-.128.03-.767.1-1.419.155-1.725.146-3.858.458-5.107.748a43.2 43.2 0 01-1.6.33 25.37 25.37 0 00-1.713.387c-2.847.774-3.829 1.058-4.625 1.337-.13.046-.744.233-1.364.417-.62.184-1.207.37-1.306.414-.1.043-.847.3-1.66.572-.815.27-1.561.545-1.659.608a1.844 1.844 0 01-.474.187c-.375.09-4.446 1.727-5.089 2.047-.264.13-.513.239-.552.239-.17 0-5.323 2.507-5.67 2.758a6.068 6.068 0 01-.608.323c-.497.238-.53.257-1.008.573-.163.107-.43.262-.593.344-2.837 1.417-8.184 5.491-10.275 7.83-.205.229-.475.508-.6.62-.696.623-2.723 3.553-3.177 4.592-.113.257-.243.55-.292.654-1.428 3.046-1.007 5.76 1.362 8.784.616.785 1.708 2.011 1.948 2.187.037.026.465.401.954.835.489.433 1.153.98 1.475 1.214.322.234.68.497.796.585.26.197 1.711 1.183 2.592 1.761.804.527 2.87 1.75 4.013 2.374.47.257 1.08.597 1.355.756.518.299 1.386.773 3.23 1.765 1.43.77 2.832 1.556 2.905 1.63.033.033.246.162.474.287 1.391.76 1.408.84.267 1.302-3.277 1.33-7.997 3.625-9.527 4.631-.268.176-.524.32-.568.32-.045 0-.241.116-.438.257a29.69 29.69 0 01-1.18.77c-4.47 2.789-6.518 5.708-6.52 9.291 0 1.848.002 1.868.614 3.035.783 1.494 2.207 2.72 3.536 3.042 3.44.836 8.088.561 11.563-.684.424-.152.949-.33 1.166-.398.218-.067.458-.17.534-.229.076-.058.444-.243.818-.411 2.354-1.055 4.974-3.137 6.582-5.228.634-.825 1.573-2.404 1.573-2.644 0-.073.046-.174.102-.222 1.24-1.084 1.455-8.007.317-10.153-.22-.414-.233-.715-.034-.76.082-.017.442-.099.8-.181 1.93-.443 8.392-.428 9.46.021.137.059.38.106.54.106.16 0 .55.06.868.135.317.075.897.209 1.289.299 2.214.508 5.676 2.412 6.226 3.425.033.06.195.277.36.483 2.075 2.571 1.239 5.397-2.1 7.097-1.853.943-.779 1.65 1.239.816 4.762-1.97 5.949-6.088 2.926-10.154-.614-.826-.755-.97-1.84-1.88-2.017-1.694-4.297-2.662-8.332-3.535-2.94-.637-10.246-.338-13.871.568-.158.04-.39-.083-.836-.444-1.263-1.02-2.838-2.11-4.764-3.299a226.348 226.348 0 00-3.085-1.897c-5.717-3.469-7.896-5.244-9.36-7.627-1.334-2.17-1.53-5.111-.467-7.017.09-.162.164-.354.164-.425a.35.35 0 01.095-.22c.052-.048.22-.34.373-.649.153-.308.344-.623.425-.7.08-.077.323-.392.54-.7 2.12-3.021 7.28-6.67 14.024-9.917 1.39-.669 1.61-.77 2.45-1.125.424-.18.84-.37.925-.423.085-.053.565-.259 1.067-.456a49.523 49.523 0 001.388-.569 19.88 19.88 0 011.127-.44 13.72 13.72 0 001.067-.426c.228-.107.949-.377 1.601-.6.652-.223 1.48-.507 1.838-.632 1.213-.423 1.431-.492 1.558-.492.07 0 .294-.057.5-.127 1.094-.371 1.435-.465 3.279-.899a26.28 26.28 0 001.186-.302c.815-.254 3.057-.653 5.989-1.065 2.785-.392 7.86-.507 9.962-.228 2.049.273 3.664.61 4.761.996.206.072.403.131.439.131.037 0 .302.126.592.28.29.154.565.28.61.28.317 0 1.748 1.13 2.216 1.748 1.074 1.422 1.21 4.188.273 5.601-.095.144-.174.332-.174.42 0 .086-.054.183-.12.215-.065.032-.119.129-.12.215 0 .087-.148.377-.326.645l-.655.98c-1.407 2.098-4.793 4.883-8.208 6.75-.759.416-3.683 1.82-3.787 1.82-.026 0-.624.214-1.33.474-1.555.572-1.566.576-2.532.84-.424.116-.824.24-.89.275-.443.24-4.449 1.05-6.7 1.356-5.856.797-11.503-.09-13.909-2.187-.902-.786-1.462-.948-1.815-.524-.896 1.076 2.367 4.078 5.543 5.1.48.154.978.319 1.109.366 2.54.92 10.003 1.016 14.942.194 1.592-.264 5.008-.99 5.752-1.22.359-.111 1-.287 1.423-.392a20.838 20.838 0 001.87-.601c.605-.227 1.126-.412 1.16-.412.053 0 1.006-.415 1.945-.847 3.138-1.444 6.94-4.094 8.898-6.203.286-.308.55-.581.587-.607.433-.299 2.3-2.904 2.946-4.108.19-.356.628-1.41 1.115-2.688.416-1.09.583-3.632.327-4.956-.843-4.351-4.851-7.391-11.85-8.988-2.872-.655-7.796-1-11.864-.832M48.398 75.6c.38.56.584 3.17.354 4.548-.689 4.144-4.632 8.074-9.508 9.477-4.967 1.429-7.018-.318-5.117-4.358 1.263-2.685 5.327-5.937 10.4-8.32.315-.15.742-.35.948-.447.206-.097.775-.344 1.264-.548.49-.205.94-.41 1.002-.455.195-.14.527-.088.657.103" fill="#fbfafa" fill-opacity=".502" fill-rule="evenodd"/><path d="M23.67 74.092q-2.03 0-3.984-.41-1.933-.41-3.652-1.191-1.7-.8-3.047-1.914l2.48-4.414q1.641 1.347 3.79 2.09 2.148.722 4.414.722 2.617 0 4.062-.879 1.445-.898 1.445-2.52v-.019q0-1.133-.644-1.797-.645-.664-1.68-.976-1.035-.313-2.656-.567-.059-.02-.117-.02-.04 0-.098-.019l-.43-.058q-2.851-.45-4.726-1.114-1.875-.683-3.184-2.363-1.308-1.699-1.308-4.804v-.02q0-2.754 1.23-4.707 1.23-1.953 3.574-2.969 2.344-1.035 5.664-1.035 1.524 0 3.106.352 1.601.351 3.125 1.015 1.523.664 2.89 1.602l-2.265 4.531q-1.64-1.133-3.438-1.758-1.777-.625-3.418-.625-2.46 0-3.808.82-1.348.801-1.348 2.266v.02q0 1.23.703 1.953.703.703 1.739 1.035 1.035.332 2.91.703l.156.04q.078 0 .156.019.117.02.215.058l.234.04q2.696.527 4.493 1.288 1.816.743 3.027 2.422 1.21 1.66 1.21 4.551v.04q0 2.714-1.269 4.648-1.27 1.933-3.71 2.949-2.422 1.015-5.84 1.015zm23.829-28.691h3.398l10.86 28.398h-5.762l-6.797-19.394L42.4 73.799h-5.76zm-5.645 18.691h14.942v5.157H41.854zm30.781 10q-2.03 0-3.984-.41-1.934-.41-3.652-1.191-1.7-.8-3.047-1.914l2.48-4.414q1.64 1.347 3.79 2.09 2.148.722 4.413.722 2.618 0 4.063-.879 1.445-.898 1.445-2.52v-.019q0-1.133-.644-1.797-.645-.664-1.68-.976-1.035-.313-2.656-.567-.059-.02-.117-.02-.04 0-.098-.019l-.43-.058q-2.851-.45-4.726-1.114-1.875-.683-3.184-2.363Q63.3 56.944 63.3 53.84v-.02q0-2.754 1.23-4.707 1.23-1.953 3.574-2.969 2.344-1.035 5.664-1.035 1.524 0 3.106.352 1.601.351 3.125 1.015 1.523.664 2.89 1.602l-2.265 4.531q-1.64-1.133-3.438-1.758-1.777-.625-3.418-.625-2.46 0-3.808.82-1.348.801-1.348 2.266v.02q0 1.23.703 1.953.703.703 1.738 1.035 1.036.332 2.91.703l.157.04q.078 0 .156.019.117.02.215.058l.234.04q2.696.527 4.492 1.288 1.817.743 3.028 2.422 1.21 1.66 1.21 4.551v.04q0 2.714-1.269 4.648-1.27 1.933-3.71 2.949-2.423 1.015-5.84 1.015zm23.848 0q-2.031 0-3.984-.41-1.934-.41-3.653-1.191-1.699-.8-3.046-1.914l2.48-4.414q1.64 1.347 3.789 2.09 2.148.722 4.414.722 2.617 0 4.063-.879 1.445-.898 1.445-2.52v-.019q0-1.133-.645-1.797-.644-.664-1.68-.976-1.034-.313-2.656-.567-.058-.02-.117-.02-.039 0-.097-.019l-.43-.058q-2.852-.45-4.727-1.114-1.875-.683-3.183-2.363-1.309-1.699-1.309-4.804v-.02q0-2.754 1.23-4.707 1.231-1.953 3.575-2.969 2.344-1.035 5.664-1.035 1.523 0 3.105.352 1.602.351 3.125 1.015 1.524.664 2.891 1.602l-2.266 4.531q-1.64-1.133-3.437-1.758-1.777-.625-3.418-.625-2.461 0-3.809.82-1.347.801-1.347 2.266v.02q0 1.23.703 1.953.703.703 1.738 1.035 1.035.332 2.91.703l.156.04q.079 0 .157.019.117.02.215.058l.234.04q2.695.527 4.492 1.288 1.817.743 3.027 2.422 1.211 1.66 1.211 4.551v.04q0 2.714-1.27 4.648-1.269 1.933-3.71 2.949-2.422 1.015-5.84 1.015z" aria-label="SASS" font-weight="700" font-size="40" font-family="Bahnschrift" fill="#fff"/></svg>