<svg width="120" height="120" version="1.1" id="svg5" xmlns="http://www.w3.org/2000/svg"><defs id="defs2"><style id="style824"/></defs><g id="layer1"><circle cx="59.52" cy="60.433" r="59" id="circle828" stroke-width=".983" fill="#ea6767"/></g><g id="layer2" display="inline" fill="#fff" stroke-width=".18"><path d="M-60.577 31.871s-.445.1-1.754.105c-1.309.006-2.238-.008-2.608-.345-.1-.09-.154-.27-.154-.392.001-.231.166-.367.375-.453l.199.31c-.087.03-.136.066-.136.103 0 .176 1.338.296 2.363.283 1.024-.012 2.262-.097 2.263-.27 0-.052-.094-.102-.256-.14l.197-.309c.265.082.497.241.496.517-.002.467-.598.539-.985.591" id="path850"/><g id="g1854" transform="translate(128.286 4.915)" opacity=".5"><path d="M-56.295 103.38l.978-16.286 2.703-4.606S-58.764 85-69.061 85c-10.297 0-16.354-2.466-16.354-2.466l3.029 5.025 1.07 15.82c0 1.696 5.602 3.071 12.51 3.071 6.91 0 12.51-1.375 12.51-3.07m-3.086-76.05l2.054-8.108 11.375-11.954-2.998-2.55-12.043 12.734-2.385 9.687a159.796 159.58 0 00-5.387-.09c-12.684 0-22.966 1.444-22.966 3.224 0 1.78 10.282 3.224 22.966 3.224 12.683 0 22.965-1.443 22.965-3.224 0-1.31-5.576-2.44-13.581-2.943" id="path848"/><path d="M-45.975 7.292c.286-.33-.148-1.174-.97-1.885-.821-.71-1.72-1.019-2.006-.689-.286.33.148 1.174.97 1.885.821.71 1.72 1.02 2.006.69m-.262 24.748s-3.1 2.563-22.827 2.563-22.507-2.51-22.507-2.51l5.025 48.37s4.33 3.418 17.375 3.418c13.044 0 17.535-3.364 17.535-3.364" id="path852"/></g></g><g id="layer3"><g aria-label="GULP" id="text1998" style="line-height:1.25;-inkscape-font-specification:'Bahnschrift Bold'" font-weight="700" font-size="40" font-family="Bahnschrift" fill="#fff"><path d="M32.937 58.753V64.3q0 3.164-1.289 5.586-1.27 2.403-3.613 3.73-2.344 1.31-5.43 1.31-3.105 0-5.488-1.231-2.363-1.25-3.672-3.516-1.289-2.265-1.289-5.254v-8.379q0-3.164 1.27-5.566 1.289-2.402 3.633-3.71 2.343-1.33 5.43-1.33 2.538 0 4.687 1.056 2.148 1.035 3.574 2.949 1.445 1.914 1.953 4.433h-5.781q-.293-.898-.977-1.543-.664-.664-1.582-.996-.898-.351-1.875-.351-1.426 0-2.52.625-1.073.625-1.679 1.777-.586 1.152-.586 2.656v8.38q0 1.327.606 2.343.605 1.016 1.718 1.563 1.114.546 2.578.546 1.446 0 2.52-.586 1.094-.605 1.68-1.738.586-1.133.586-2.676v-.468h-4.297v-5.157z" id="path5698"/><path d="M47.781 74.925q-3.281 0-5.605-1.23-2.324-1.25-3.535-3.613-1.211-2.383-1.211-5.723V46.234h5.351v18.262q0 2.441 1.309 3.789 1.308 1.347 3.691 1.347 2.403 0 3.711-1.347 1.328-1.348 1.328-3.79v-18.26h5.352V64.36q0 3.34-1.23 5.723-1.212 2.363-3.555 3.613-2.325 1.23-5.606 1.23z" id="path5700"/><path d="M63.64 46.234h5.352v28.398h-5.351zm2.383 23.242h16.641v5.156h-16.64z" id="path5702"/><path d="M89.012 58.46h9.082q.957 0 1.68-.43.742-.448 1.152-1.25.41-.8.41-1.835 0-1.055-.41-1.856-.39-.82-1.133-1.25-.723-.449-1.7-.449h-9.081v-5.156h8.945q2.656 0 4.668 1.094 2.031 1.074 3.145 3.047 1.113 1.972 1.113 4.57 0 2.597-1.113 4.57-1.114 1.953-3.145 3.027-2.012 1.075-4.668 1.075h-8.945zM86.57 46.234h5.352v28.398H86.57z" id="path5704"/></g></g></svg>