<svg width="48" height="48" viewBox="0 0 48 48" fill="none" xmlns="http://www.w3.org/2000/svg">
<g clip-path="url(#clip0_5_60)">
<circle cx="24" cy="24" r="22" fill="#3B5998"/>
<path d="M24 -3.33786e-06C10.7452 -3.33786e-06 0 10.7471 0 24C0 37.2548 10.7452 47.998 24 47.998C37.2548 47.998 48 37.2548 48 24C48 10.7471 37.2538 -3.33786e-06 24 -3.33786e-06ZM30.3516 23.8996H26.1958C26.1958 30.5407 26.1958 38.7206 26.1958 38.7206H20.0362C20.0362 38.7206 20.0362 30.6245 20.0362 23.8996H17.1065V18.6669H20.0362V15.2762C20.0362 12.8494 21.1882 9.06103 26.2533 9.06103L30.8145 9.07858V14.1612C30.8145 14.1612 28.0408 14.1612 27.5028 14.1612C26.9619 14.1612 26.1968 14.4312 26.1968 15.5851V18.6679H30.8925L30.3516 23.8996Z" fill="white"/>
</g>
<defs>
<clipPath id="clip0_5_60">
<rect width="48" height="48" fill="white"/>
</clipPath>
</defs>
</svg>
