<svg width="48" height="48" fill="none" xmlns="http://www.w3.org/2000/svg">
    <g clip-path="url(#a)">
        <circle cx="24" cy="24" r="22" fill="#3B5998"/>
        <path d="M24 0C10.745 0 0 10.747 0 24c0 13.255 10.745 23.998 24 23.998S48 37.255 48 24C48 10.747 37.254 0 24 0Zm6.352 23.9h-4.156v14.82h-6.16V23.9h-2.93v-5.233h2.93v-3.39c0-2.428 1.152-6.216 6.217-6.216l4.561.018v5.082h-3.311c-.541 0-1.306.27-1.306 1.424v3.083h4.695l-.54 5.232Z" fill="#fff"/>
    </g>
    <defs>
        <clipPath id="a">
            <path fill="#fff" d="M0 0h48v48H0z"/>
        </clipPath>
    </defs>
</svg>
