<svg width="48" height="48" fill="none" xmlns="http://www.w3.org/2000/svg">
<circle cx="24" cy="24" r="22" fill="#D74142"/>
<path d="m25.02 27.04 9.664 6.72V20.382l-4.274 2.944-5.39 3.712Z" fill="#fff"/>
<path d="M24 0C10.746 0 0 10.744 0 23.998 0 37.254 10.746 48 24 48s24-10.746 24-24C48 10.743 37.254 0 24 0Zm11.274 34.879H11.876a2.39 2.39 0 0 1-2.383-2.383V16.218a2.39 2.39 0 0 1 2.383-2.383l.01.007-.01-.008h24.319a2.39 2.39 0 0 1 2.383 2.383v.69l.004 15.592c-.057 1.732-.808 2.351-3.308 2.38Z" fill="#fff"/>
<path d="M23.995 27.62a.584.584 0 0 1-.333-.104l-.174-.121-9.925 6.901h20.872l-9.928-6.903s-.396.228-.512.228ZM36.194 13.835h-.001.001ZM34.42 14.417H13.641l10.355 7.678 10.422-7.678ZM22.968 27.033l-9.655-6.65-.005 13.38 9.67-6.723-.01-.007Z" fill="#fff"/>
</svg>
