<svg width="48" height="48" fill="none" xmlns="http://www.w3.org/2000/svg">
    <circle cx="24" cy="24" r="22" fill="#E1306C"/>
    <path d="M23.805 28.487a4.293 4.293 0 1 0 0-8.585 4.293 4.293 0 0 0 0 8.585Z" fill="#fff"/>
    <path d="M29.17 13.658H18.44c-1.561 0-2.927.488-3.805 1.366-.878.878-1.366 2.244-1.366 3.805v10.732c0 1.56.488 2.926 1.463 3.902.976.878 2.244 1.366 3.805 1.366H29.17c1.561 0 2.927-.488 3.805-1.366.976-.878 1.464-2.244 1.464-3.805V18.927c0-1.561-.488-2.83-1.366-3.805-.976-.976-2.244-1.464-3.903-1.464Zm-5.365 17.17c-3.708 0-6.634-3.023-6.634-6.633 0-3.707 3.024-6.634 6.634-6.634 3.61 0 6.731 2.927 6.731 6.634 0 3.707-3.024 6.634-6.731 6.634ZM30.73 18.83a1.541 1.541 0 0 1-1.56-1.56c0-.879.682-1.562 1.56-1.562s1.561.683 1.561 1.561a1.54 1.54 0 0 1-1.56 1.561Z" fill="#fff"/>
    <path d="M24 0C10.732 0 0 10.732 0 24s10.732 24 24 24 24-10.732 24-24c.097-13.268-10.732-24-24-24Zm12.78 29.658c0 2.244-.78 4.195-2.146 5.561-1.366 1.366-3.317 2.049-5.464 2.049H18.536c-2.146 0-4.097-.683-5.463-2.049-1.463-1.366-2.146-3.317-2.146-5.56V18.926c0-4.488 3.024-7.61 7.61-7.61h10.73c2.245 0 4.098.78 5.464 2.146 1.366 1.366 2.049 3.22 2.049 5.464v10.731Z" fill="#fff"/>
</svg>
