<svg width="48" height="48" fill="none" xmlns="http://www.w3.org/2000/svg">
    <circle cx="24" cy="24" r="22" fill="#1DA1F2"/>
    <path d="M24.001 0C10.746 0 0 10.748 0 24.001 0 37.256 10.746 48 24.001 48S48 37.256 48 24.001C48 10.748 37.255 0 24.001 0Zm12.09 19.162c.012.26.017.52.017.782 0 7.994-6.084 17.209-17.208 17.209a17.126 17.126 0 0 1-9.272-2.716c.473.055.954.084 1.442.084 2.835 0 5.443-.967 7.512-2.59a6.057 6.057 0 0 1-5.65-4.201 5.91 5.91 0 0 0 1.138.108 6.01 6.01 0 0 0 1.594-.211 6.053 6.053 0 0 1-4.853-5.93v-.078a6.027 6.027 0 0 0 2.74.757 6.047 6.047 0 0 1-2.69-5.035c0-1.108.298-2.148.818-3.04a17.172 17.172 0 0 0 12.468 6.318 6.048 6.048 0 0 1 5.892-7.426c1.74 0 3.31.735 4.414 1.91a12.078 12.078 0 0 0 3.841-1.469 6.066 6.066 0 0 1-2.66 3.346 12.092 12.092 0 0 0 3.474-.952 12.22 12.22 0 0 1-3.017 3.134Z" fill="#fff"/>
</svg>
