<svg width="48" height="48" fill="none" xmlns="http://www.w3.org/2000/svg">
    <g clip-path="url(#a)">
        <circle cx="24" cy="24" r="22" fill="#665CAC"/>
        <path d="M24 0C10.746 0 0 10.744 0 23.999 0 37.254 10.746 48 24 48s24-10.746 24-24.001S37.254 0 24 0Zm-1.123 12.678c.195-.178.332-.203 1.01-.183.354.013.873.055 1.156.088 1.43.178 2.586.524 3.854 1.143 1.247.611 2.045 1.19 3.101 2.241.99.994 1.539 1.746 2.12 2.914.811 1.63 1.273 3.567 1.352 5.7.03.728.008.89-.158 1.098-.316.403-1.01.337-1.247-.116-.075-.15-.096-.279-.12-.861a15.09 15.09 0 0 0-.23-2.162c-.49-2.706-1.787-4.868-3.858-6.42-1.725-1.296-3.508-1.928-5.845-2.065-.79-.046-.927-.075-1.106-.213-.333-.261-.35-.877-.03-1.164Zm4.956 5.355c-.836-.498-2.07-.869-3.197-.96-.408-.033-.633-.116-.786-.295a.757.757 0 0 1-.063-.94c.217-.336.55-.39 1.543-.24 2.523.37 4.477 1.542 5.758 3.446.72 1.072 1.168 2.332 1.322 3.683.054.495.054 1.397-.004 1.547a.946.946 0 0 1-.379.411c-.162.084-.507.075-.698-.024-.32-.163-.416-.42-.416-1.119 0-1.077-.278-2.212-.76-3.093a6.319 6.319 0 0 0-2.32-2.416Zm1.405 5.542c-.245.225-.699.233-.973.021-.2-.15-.262-.308-.308-.736-.054-.57-.154-.968-.324-1.338-.366-.786-1.01-1.194-2.1-1.327-.51-.062-.665-.12-.831-.316a.775.775 0 0 1 .233-1.164c.158-.079.224-.087.574-.066.216.012.536.05.706.087.82.175 1.447.486 1.983.99.69.652 1.069 1.442 1.235 2.577.112.74.067 1.031-.195 1.272Zm6.211 10.922c-.308.794-1.505 2.283-2.34 2.919-.757.574-1.294.794-2 .827-.582.03-.824-.02-1.568-.328-5.837-2.407-10.497-6-14.197-10.935-1.934-2.577-3.405-5.25-4.412-8.024-.586-1.617-.615-2.32-.133-3.147.208-.35 1.094-1.214 1.738-1.696 1.073-.798 1.568-1.094 1.963-1.177.27-.058.74-.012 1.039.096.146.05.37.166.499.25.79.523 2.99 3.338 3.708 4.743.412.802.549 1.397.42 1.838-.133.474-.353.723-1.339 1.517-.395.32-.765.649-.823.736-.15.216-.27.64-.27.94.004.694.453 1.954 1.044 2.922.457.753 1.276 1.717 2.087 2.458.952.873 1.792 1.467 2.74 1.937 1.217.607 1.962.76 2.506.507a2.02 2.02 0 0 0 .329-.183c.041-.037.361-.428.71-.86.674-.849.828-.985 1.29-1.143.586-.2 1.184-.146 1.787.162.457.237 1.455.856 2.1 1.305.848.595 2.66 2.075 2.906 2.37.432.532.507 1.214.216 1.966Z" fill="#fff"/>
    </g>
</svg>
