<svg xmlns="http://www.w3.org/2000/svg" width="56.693" height="56.693"><path d="M28.241 4.484c-13.6 0-24.625 11.024-24.625 24.623 0 13.6 11.025 24.625 24.625 24.625 13.599 0 24.624-11.025 24.624-24.625S41.84 4.484 28.241 4.484zm-1.153 13.008c.2-.183.341-.209 1.037-.188.362.013.896.056 1.186.09 1.467.183 2.653.538 3.954 1.173 1.28.627 2.098 1.22 3.182 2.3 1.015 1.019 1.578 1.79 2.175 2.99.832 1.672 1.306 3.66 1.387 5.848.03.746.008.912-.162 1.126-.324.413-1.037.345-1.28-.12-.077-.153-.098-.285-.124-.883-.042-.917-.106-1.51-.234-2.218-.504-2.777-1.834-4.995-3.959-6.586-1.77-1.33-3.6-1.98-5.997-2.12-.81-.047-.951-.077-1.135-.217-.341-.27-.358-.9-.03-1.195zm5.085 5.494c-.858-.512-2.124-.891-3.28-.985-.419-.034-.649-.12-.807-.303a.777.777 0 01-.064-.964c.222-.345.563-.4 1.583-.247 2.59.38 4.594 1.582 5.908 3.536.738 1.1 1.199 2.393 1.356 3.78.056.507.056 1.433-.004 1.586a.97.97 0 01-.388.422c-.166.086-.52.077-.717-.025-.328-.167-.426-.431-.426-1.148 0-1.105-.286-2.269-.781-3.173a6.483 6.483 0 00-2.38-2.479zm1.442 5.686c-.252.23-.717.24-.999.022-.204-.154-.268-.316-.315-.755-.056-.585-.158-.994-.333-1.374-.375-.806-1.036-1.224-2.154-1.36-.525-.064-.683-.124-.853-.325a.795.795 0 01.239-1.194c.162-.081.23-.09.588-.068.222.012.55.05.726.09.84.178 1.484.498 2.034 1.014.708.67 1.097 1.48 1.267 2.645.115.76.068 1.058-.2 1.305zm6.372 11.206c-.315.815-1.544 2.342-2.401 2.995-.776.588-1.327.814-2.052.849-.597.03-.844-.022-1.608-.337-5.99-2.47-10.77-6.156-14.567-11.219-1.984-2.645-3.494-5.387-4.526-8.233-.602-1.659-.631-2.38-.137-3.229.214-.358 1.122-1.245 1.783-1.74 1.101-.82 1.609-1.122 2.014-1.207.277-.06.76-.013 1.066.098.15.05.38.17.512.256.81.537 3.067 3.425 3.805 4.867.422.823.563 1.433.43 1.885-.136.486-.362.742-1.373 1.557-.405.329-.785.666-.844.755-.154.222-.277.657-.277.964.004.713.465 2.005 1.07 2.999.47.772 1.31 1.762 2.141 2.521.977.896 1.839 1.506 2.812 1.988 1.25.622 2.013.78 2.572.52.14-.064.29-.15.337-.188.042-.038.37-.439.73-.882.69-.87.848-1.011 1.321-1.173.602-.205 1.216-.15 1.835.166.469.243 1.493.879 2.154 1.34.87.61 2.73 2.128 2.982 2.43.443.547.52 1.246.221 2.018z"/></svg>