<svg width="48" height="48" fill="none" xmlns="http://www.w3.org/2000/svg">
<g clip-path="url(#a)">
<circle cx="24" cy="24" r="22" fill="#43D854"/>
<path d="M24.532 11.5c-6.605 0-11.976 5.372-11.979 11.973a11.945 11.945 0 0 0 1.83 6.373l.286.453-1.21 4.418 4.532-1.189.437.26a11.957 11.957 0 0 0 6.094 1.669h.005c6.6 0 11.971-5.372 11.974-11.974a11.902 11.902 0 0 0-3.504-8.471 11.893 11.893 0 0 0-8.465-3.511Zm7.043 17.122c-.3.84-1.738 1.608-2.43 1.711-.62.093-1.405.131-2.267-.143a20.715 20.715 0 0 1-2.052-.758c-3.611-1.56-5.97-5.195-6.15-5.435-.18-.24-1.47-1.952-1.47-3.724 0-1.771.93-2.642 1.26-3.003.33-.36.72-.45.96-.45s.48.002.69.012c.221.012.518-.083.81.618.3.721 1.02 2.493 1.11 2.673.09.18.15.39.03.63s-.18.391-.36.601c-.18.21-.378.47-.54.63-.18.18-.367.375-.157.735.21.361.932 1.54 2.002 2.494 1.375 1.226 2.535 1.607 2.895 1.787.36.18.57.15.78-.09.21-.24.9-1.051 1.14-1.412.24-.36.48-.3.81-.18.33.12 2.1.991 2.46 1.171.359.18.599.27.689.42.09.15.09.872-.21 1.713Z" fill="#fff"/>
<path d="M24 0C10.746 0 0 10.744 0 23.998 0 37.254 10.746 48 24 48s24-10.746 24-24C48 10.743 37.254 0 24 0Zm.527 37.89h-.006c-2.41 0-4.78-.606-6.884-1.753L10 38.14l2.044-7.465a14.38 14.38 0 0 1-1.923-7.202c.003-7.943 6.466-14.406 14.406-14.406a14.313 14.313 0 0 1 10.19 4.225 14.32 14.32 0 0 1 4.216 10.192c-.003 7.943-6.466 14.406-14.406 14.406Z" fill="#fff"/>
</g>
</svg>
