<svg xmlns="http://www.w3.org/2000/svg" width="56.693" height="56.693"><path d="M29.752 16.173c-6.777 0-12.288 5.511-12.29 12.285a12.256 12.256 0 001.878 6.538l.292.465-1.241 4.533 4.65-1.22.448.267a12.268 12.268 0 006.253 1.712h.005c6.771 0 12.283-5.511 12.285-12.285a12.212 12.212 0 00-3.595-8.692 12.202 12.202 0 00-8.685-3.603zm7.226 17.567c-.308.862-1.783 1.65-2.493 1.756-.636.095-1.441.135-2.326-.146a21.236 21.236 0 01-2.106-.778c-3.704-1.6-6.124-5.33-6.309-5.577-.184-.246-1.508-2.003-1.508-3.82 0-1.818.954-2.712 1.293-3.082.338-.37.739-.462.985-.462s.492.002.708.013c.226.012.53-.086.83.634.308.74 1.047 2.558 1.14 2.743.092.184.153.4.03.647-.123.246-.185.4-.37.616-.184.215-.387.481-.553.647-.185.184-.378.384-.162.753.215.37.957 1.58 2.055 2.559 1.41 1.258 2.6 1.648 2.97 1.833.369.185.584.154.8-.092.215-.247.923-1.079 1.17-1.449.245-.37.492-.308.83-.184.339.123 2.154 1.016 2.524 1.201.37.185.615.278.708.432.092.154.092.893-.216 1.756z"/><path d="M29.207 4.374c-13.6 0-24.625 11.023-24.625 24.623s11.025 24.625 24.625 24.625c13.598 0 24.624-11.026 24.624-24.625S42.805 4.374 29.207 4.374zm.54 38.876h-.006a14.77 14.77 0 01-7.064-1.8l-7.835 2.056 2.097-7.66a14.754 14.754 0 01-1.973-7.389c.003-8.15 6.634-14.78 14.78-14.78a14.685 14.685 0 0110.457 4.335 14.692 14.692 0 014.325 10.457c-.003 8.15-6.635 14.78-14.781 14.78z"/></svg>