<svg xmlns="http://www.w3.org/2000/svg" width="56.693" height="56.693"><path d="M17.833 31.853h1.783v8.857h1.723v-8.857h1.781v-1.508h-5.287zm10.58-7.36c.234 0 .42-.062.557-.189.137-.131.207-.309.207-.533v-4.59a.54.54 0 00-.211-.445c-.141-.115-.324-.172-.553-.172a.753.753 0 00-.512.172.556.556 0 00-.195.445v4.59c0 .23.061.408.184.533.121.127.297.189.523.189zm3.799 8.477a1.51 1.51 0 00-.705.182 2.359 2.359 0 00-.654.533v-3.34h-1.545V40.71h1.545v-.586c.199.236.418.408.652.52.232.111.5.166.801.166.451 0 .801-.143 1.037-.432.24-.291.361-.705.361-1.246v-4.244c0-.627-.127-1.104-.385-1.428-.254-.326-.623-.49-1.107-.49zm-.084 5.951c0 .246-.045.42-.133.527-.088.109-.225.162-.412.162a.894.894 0 01-.369-.082 1.247 1.247 0 01-.361-.27v-4.764c.104-.107.209-.186.314-.234a.713.713 0 01.324-.076c.205 0 .365.066.477.197.107.135.16.33.16.59v3.95zm-5.5-.047a2.157 2.157 0 01-.473.408c-.172.107-.316.16-.426.16-.145 0-.248-.039-.314-.121-.062-.08-.096-.211-.096-.391v-5.867h-1.527v6.395c0 .457.09.793.268 1.025.182.227.445.34.799.34.287 0 .584-.078.889-.242.305-.166.598-.4.881-.709v.838h1.529v-7.646h-1.529v5.81z"/><path d="M28.347 5.155c-13.6 0-24.625 11.025-24.625 24.625 0 13.602 11.025 24.625 24.625 24.625S52.972 43.382 52.972 29.78c0-13.6-11.026-24.625-24.625-24.625zm3.978 12.162h1.719v6.459c0 .201.039.344.111.432.07.09.188.137.35.137.125 0 .285-.061.48-.178.191-.121.369-.271.529-.457v-6.393h1.723v8.424h-1.723v-.93a3.612 3.612 0 01-.99.783c-.342.178-.674.27-.998.27-.398 0-.697-.127-.9-.379-.199-.248-.301-.623-.301-1.129v-7.039zm-6.39 1.926c0-.65.23-1.17.693-1.561.465-.383 1.088-.578 1.869-.578.713 0 1.295.205 1.752.611.453.406.68.934.68 1.578v4.35c0 .723-.223 1.287-.666 1.695-.449.408-1.062.613-1.844.613-.752 0-1.355-.211-1.807-.631-.451-.426-.678-.996-.678-1.711v-4.366zm-4.688-4.92l1.258 4.562h.123l1.197-4.562h1.969l-2.254 6.682v4.737h-1.938v-4.526l-2.307-6.893h1.952zm22.539 24.033a5.52 5.52 0 01-5.518 5.52H19.092a5.52 5.52 0 01-5.52-5.52v-4.438a5.52 5.52 0 015.52-5.52h19.176a5.52 5.52 0 015.518 5.52v4.438z"/><path d="M36.827 32.874c-.686 0-1.24.207-1.674.627-.432.416-.65.959-.65 1.617v3.438c0 .738.199 1.316.592 1.734.393.42.932.631 1.617.631.762 0 1.334-.197 1.715-.592.387-.398.576-.988.576-1.773v-.393h-1.572v.348c0 .451-.053.742-.152.873s-.277.197-.531.197c-.244 0-.416-.076-.518-.23-.1-.158-.148-.436-.148-.84v-1.439h2.922v-1.953c0-.723-.186-1.277-.562-1.666-.377-.386-.916-.579-1.615-.579zm.604 3.008h-1.35v-.773c0-.32.049-.553.156-.686.107-.143.281-.211.525-.211.23 0 .404.068.508.211.105.133.16.365.16.686v.773z"/></svg>