<svg width="48" height="48" fill="none" xmlns="http://www.w3.org/2000/svg">
    <g clip-path="url(#a)">
        <circle cx="24" cy="24" r="22" fill="#C4302B"/>
        <path d="M13.753 26.02h1.738v8.633h1.679V26.02h1.736v-1.47h-5.153v1.47ZM24.064 18.847c.228 0 .41-.06.543-.184a.686.686 0 0 0 .202-.52V13.67a.526.526 0 0 0-.206-.434c-.137-.112-.316-.167-.539-.167a.734.734 0 0 0-.499.167.542.542 0 0 0-.19.434v4.473c0 .225.06.398.18.52.117.124.29.184.51.184ZM27.767 27.109c-.232 0-.461.06-.687.177a2.298 2.298 0 0 0-.638.52V24.55h-1.505v10.102h1.505v-.572c.194.23.408.398.636.507.226.108.487.162.78.162.44 0 .781-.14 1.011-.421.234-.284.352-.687.352-1.214v-4.137c0-.61-.124-1.076-.375-1.391-.248-.318-.607-.478-1.08-.478Zm-.082 5.8c0 .24-.044.41-.13.514-.085.106-.219.157-.401.157a.872.872 0 0 1-.36-.08 1.215 1.215 0 0 1-.352-.263v-4.643c.102-.104.204-.18.306-.228a.694.694 0 0 1 .316-.074c.2 0 .356.064.465.192.104.132.156.322.156.575v3.85ZM22.325 32.863a2.1 2.1 0 0 1-.461.398c-.168.104-.308.156-.416.156-.14 0-.241-.038-.306-.118-.06-.078-.093-.206-.093-.381V27.2H19.56v6.232c0 .446.087.773.26 1 .178.22.434.33.78.33.28 0 .569-.075.866-.235.297-.162.583-.39.859-.691v.817h1.49V27.2h-1.49v5.662h-.001Z" fill="#fff"/>
        <path d="M24 0C10.745 0 0 10.745 0 24c0 13.257 10.745 24 24 24s24-10.743 24-24C48 10.745 37.254 0 24 0Zm3.877 11.853h1.675v6.295c0 .196.038.336.109.421.068.088.183.134.34.134.122 0 .278-.06.468-.174a2.3 2.3 0 0 0 .516-.445v-6.23h1.68v8.21h-1.68v-.907c-.306.333-.628.59-.965.763-.333.174-.657.263-.972.263-.388 0-.68-.123-.878-.369-.194-.242-.293-.607-.293-1.1v-6.86Zm-6.228 1.877c0-.633.224-1.14.676-1.52.453-.374 1.06-.564 1.821-.564.695 0 1.262.2 1.708.595.441.396.663.91.663 1.538v4.24c0 .704-.218 1.254-.65 1.652-.437.397-1.035.597-1.797.597-.733 0-1.32-.206-1.761-.615-.44-.415-.66-.97-.66-1.667V13.73ZM17.08 8.935l1.226 4.447h.12l1.167-4.447h1.919l-2.197 6.513v4.616h-1.889v-4.41l-2.248-6.719h1.902Zm21.967 23.423a5.38 5.38 0 0 1-5.378 5.38H14.98a5.38 5.38 0 0 1-5.379-5.38v-4.325a5.38 5.38 0 0 1 5.38-5.38h18.69a5.379 5.379 0 0 1 5.377 5.38v4.325Z" fill="#fff"/>
        <path d="M32.265 27.015c-.669 0-1.209.202-1.632.612-.42.405-.633.934-.633 1.576v3.35c0 .72.194 1.283.577 1.69.383.41.908.615 1.576.615.742 0 1.3-.192 1.671-.577.377-.388.562-.963.562-1.728v-.383h-1.533v.34c0 .439-.051.723-.148.85-.096.128-.27.192-.517.192-.238 0-.406-.074-.505-.224-.098-.154-.144-.425-.144-.819v-1.402h2.847v-1.904c0-.704-.18-1.244-.547-1.623-.368-.376-.893-.564-1.574-.564Zm.588 2.932h-1.315v-.753c0-.312.047-.54.152-.669.104-.14.274-.205.511-.205.225 0 .394.066.495.205.103.13.157.356.157.669v.753Z" fill="#fff"/>
    </g>
    <defs>
        <clipPath id="a">
            <path fill="#fff" d="M0 0h48v48H0z"/>
        </clipPath>
    </defs>
</svg>
