<svg width="206" height="58" viewBox="0 0 206 58" fill="none" xmlns="http://www.w3.org/2000/svg">
<path d="M24.3997 23.5859C24.3997 24.3748 24.5919 25.0626 24.9762 25.6492C25.3605 26.2358 25.8258 26.7314 26.372 27.136C26.9181 27.5204 27.6868 28.0159 28.678 28.6228C29.7299 29.2499 30.5491 29.7758 31.1358 30.2006C31.7224 30.6254 32.218 31.1716 32.6226 31.8391C33.0474 32.4864 33.2598 33.2652 33.2598 34.1755C33.2598 35.1465 33.017 36.0264 32.5315 36.8153C32.046 37.6042 31.3279 38.2313 30.3772 38.6966C29.4467 39.1416 28.324 39.3641 27.0092 39.3641C25.4516 39.3641 24.0255 39.0101 22.7308 38.3021C22.6297 38.2414 22.5589 38.1706 22.5184 38.0897C22.4982 38.0088 22.478 37.8874 22.4578 37.7256L22.0633 33.599C22.0431 33.5181 22.0835 33.4675 22.1847 33.4473C22.306 33.4271 22.3768 33.4574 22.3971 33.5383C22.7207 34.9948 23.3175 36.2489 24.1873 37.3008C25.0773 38.3527 26.2506 38.8786 27.707 38.8786C28.7185 38.8786 29.5681 38.6055 30.2558 38.0594C30.9638 37.493 31.3178 36.6029 31.3178 35.3892C31.3178 34.4789 31.1155 33.69 30.711 33.0225C30.3064 32.355 29.8108 31.8088 29.2242 31.384C28.6578 30.939 27.879 30.4231 26.8878 29.8365C25.9168 29.2499 25.1481 28.7442 24.5817 28.3194C24.0356 27.8946 23.5703 27.3585 23.186 26.7112C22.8016 26.0639 22.6095 25.3053 22.6095 24.4355C22.6095 23.4241 22.8724 22.5644 23.3984 21.8564C23.9445 21.1282 24.6424 20.5921 25.492 20.2482C26.3618 19.8841 27.2822 19.7021 28.2532 19.7021C29.4467 19.7021 30.6301 19.9448 31.8033 20.4303C32.1067 20.5314 32.2584 20.7034 32.2584 20.9461L32.4708 24.4355C32.4708 24.5164 32.4203 24.5569 32.3191 24.5569C32.218 24.5569 32.1573 24.5164 32.1371 24.4355C31.9752 23.3836 31.5403 22.4127 30.8323 21.5226C30.1243 20.6123 29.1028 20.1572 27.7677 20.1572C26.6349 20.1572 25.7853 20.491 25.2189 21.1585C24.6728 21.8058 24.3997 22.615 24.3997 23.5859ZM56.1142 38.6359C56.1951 38.6359 56.2356 38.6966 56.2356 38.8179C56.2356 38.9393 56.1951 39 56.1142 39C55.7299 39 55.1331 38.9798 54.324 38.9393C53.5148 38.8989 52.9282 38.8786 52.5641 38.8786C52.1191 38.8786 51.5527 38.8989 50.8649 38.9393C50.2176 38.9798 49.722 39 49.3781 39C49.2972 39 49.2567 38.9393 49.2567 38.8179C49.2567 38.6966 49.2972 38.6359 49.3781 38.6359C50.1266 38.6359 50.6727 38.5651 51.0166 38.4235C51.3605 38.2819 51.5324 38.0391 51.5324 37.6953C51.5324 37.4121 51.401 36.9772 51.138 36.3905L47.6486 28.9566H41.9138L39.3043 35.1465C39.0211 35.8342 38.8795 36.4006 38.8795 36.8457C38.8795 38.0391 39.8707 38.6359 41.8531 38.6359C41.9543 38.6359 42.0048 38.6966 42.0048 38.8179C42.0048 38.9393 41.9543 39 41.8531 39C41.489 39 40.9631 38.9798 40.2753 38.9393C39.5066 38.8989 38.8391 38.8786 38.2727 38.8786C37.7468 38.8786 37.1399 38.8989 36.4521 38.9393C35.8453 38.9798 35.3396 39 34.935 39C34.8339 39 34.7833 38.9393 34.7833 38.8179C34.7833 38.6966 34.8339 38.6359 34.935 38.6359C35.5014 38.6359 35.9768 38.5347 36.3611 38.3325C36.7657 38.1099 37.1399 37.7357 37.4838 37.2098C37.8479 36.6636 38.2424 35.8848 38.6672 34.8734L45.0695 19.7627C45.1099 19.7021 45.1807 19.6717 45.2819 19.6717C45.383 19.6717 45.4437 19.7021 45.4639 19.7627L52.6248 34.8431C53.3126 36.34 53.8992 37.3514 54.3847 37.8773C54.8701 38.383 55.4467 38.6359 56.1142 38.6359ZM42.1869 28.3194H47.3452L44.6143 22.5543L42.1869 28.3194ZM77.571 20.0358C77.6317 20.0358 77.662 20.0965 77.662 20.2179C77.662 20.3392 77.6317 20.3999 77.571 20.3999C76.7214 20.3999 76.1044 20.6326 75.7201 21.0978C75.3357 21.5631 75.1436 22.3216 75.1436 23.3735V39.3641C75.1436 39.4046 75.093 39.4349 74.9918 39.4551C74.8907 39.4754 74.8199 39.4653 74.7794 39.4248L60.8218 22.5239L60.5487 22.2205V35.6926C60.5487 36.7445 60.7308 37.5031 61.0949 37.9683C61.4792 38.4134 62.0861 38.6359 62.9155 38.6359C62.9761 38.6359 63.0065 38.6966 63.0065 38.8179C63.0065 38.9393 62.9761 39 62.9155 39C62.4097 39 62.0254 38.9899 61.7624 38.9697L60.2453 38.9393L58.6978 38.9697C58.4146 38.9899 57.9999 39 57.4538 39C57.4133 39 57.3931 38.9393 57.3931 38.8179C57.3931 38.6966 57.4133 38.6359 57.4538 38.6359C58.3236 38.6359 58.9406 38.4134 59.3047 37.9683C59.6688 37.5031 59.8508 36.7445 59.8508 35.6926V21.4923C59.0619 20.764 58.2629 20.3999 57.4538 20.3999C57.3931 20.3999 57.3627 20.3392 57.3627 20.2179C57.3627 20.0965 57.3931 20.0358 57.4538 20.0358L58.5765 20.0662C58.8192 20.0864 59.153 20.0965 59.5778 20.0965C60.0228 20.0965 60.3869 20.0864 60.6701 20.0662C60.9533 20.0459 61.1758 20.0358 61.3376 20.0358C61.4995 20.0358 61.6107 20.0763 61.6714 20.1572C61.7523 20.2179 61.8737 20.3696 62.0355 20.6123C62.2783 20.9764 62.521 21.3102 62.7637 21.6136L74.4457 35.9657V23.3735C74.4457 22.3216 74.2636 21.5631 73.8995 21.0978C73.5556 20.6326 72.969 20.3999 72.1396 20.3999C72.0992 20.3999 72.0789 20.3392 72.0789 20.2179C72.0789 20.0965 72.0992 20.0358 72.1396 20.0358L73.323 20.0662C73.9299 20.1066 74.4254 20.1269 74.8098 20.1269C75.1739 20.1269 75.6796 20.1066 76.3269 20.0662L77.571 20.0358ZM82.6553 23.5859C82.6553 24.3748 82.8474 25.0626 83.2318 25.6492C83.6161 26.2358 84.0814 26.7314 84.6275 27.136C85.1737 27.5204 85.9424 28.0159 86.9336 28.6228C87.9855 29.2499 88.8047 29.7758 89.3913 30.2006C89.978 30.6254 90.4736 31.1716 90.8781 31.8391C91.3029 32.4864 91.5153 33.2652 91.5153 34.1755C91.5153 35.1465 91.2726 36.0264 90.7871 36.8153C90.3016 37.6042 89.5835 38.2313 88.6328 38.6966C87.7023 39.1416 86.5796 39.3641 85.2647 39.3641C83.7071 39.3641 82.281 39.0101 80.9864 38.3021C80.8853 38.2414 80.8145 38.1706 80.774 38.0897C80.7538 38.0088 80.7336 37.8874 80.7133 37.7256L80.3189 33.599C80.2987 33.5181 80.3391 33.4675 80.4403 33.4473C80.5616 33.4271 80.6324 33.4574 80.6526 33.5383C80.9763 34.9948 81.573 36.2489 82.4429 37.3008C83.3329 38.3527 84.5062 38.8786 85.9626 38.8786C86.974 38.8786 87.8236 38.6055 88.5114 38.0594C89.2194 37.493 89.5734 36.6029 89.5734 35.3892C89.5734 34.4789 89.3711 33.69 88.9665 33.0225C88.562 32.355 88.0664 31.8088 87.4798 31.384C86.9134 30.939 86.1346 30.4231 85.1434 29.8365C84.1724 29.2499 83.4037 28.7442 82.8373 28.3194C82.2912 27.8946 81.8259 27.3585 81.4416 26.7112C81.0572 26.0639 80.865 25.3053 80.865 24.4355C80.865 23.4241 81.128 22.5644 81.654 21.8564C82.2001 21.1282 82.898 20.5921 83.7476 20.2482C84.6174 19.8841 85.5378 19.7021 86.5088 19.7021C87.7023 19.7021 88.8856 19.9448 90.0589 20.4303C90.3623 20.5314 90.514 20.7034 90.514 20.9461L90.7264 24.4355C90.7264 24.5164 90.6758 24.5569 90.5747 24.5569C90.4736 24.5569 90.4129 24.5164 90.3927 24.4355C90.2308 23.3836 89.7959 22.4127 89.0879 21.5226C88.3799 20.6123 87.3584 20.1572 86.0233 20.1572C84.8905 20.1572 84.0409 20.491 83.4745 21.1585C82.9284 21.8058 82.6553 22.615 82.6553 23.5859ZM121.421 38.6359C121.502 38.6561 121.532 38.7269 121.512 38.8483C121.512 38.9494 121.481 39 121.421 39H118.144C117.233 39 115.848 38.2718 113.987 36.8153C112.348 38.5145 110.305 39.3641 107.857 39.3641C106.603 39.3641 105.551 39.1517 104.702 38.7269C103.872 38.3021 103.245 37.7458 102.821 37.0581C102.416 36.3703 102.214 35.632 102.214 34.8431C102.214 33.69 102.568 32.6887 103.276 31.8391C104.004 30.9693 105.046 30.0388 106.401 29.0476C106.037 28.5014 105.744 27.9957 105.521 27.5305C104.934 26.2358 104.641 25.1334 104.641 24.2231C104.641 23.3533 104.854 22.5543 105.278 21.826C105.703 21.0776 106.3 20.491 107.069 20.0662C107.837 19.6211 108.707 19.3986 109.678 19.3986C110.649 19.3986 111.478 19.6313 112.166 20.0965C112.874 20.5618 113.228 21.3304 113.228 22.4026C113.228 23.1915 113.026 23.9096 112.621 24.5569C112.217 25.2042 111.711 25.7706 111.104 26.2561C110.518 26.7416 109.729 27.308 108.737 27.9553C108.697 27.9755 108.525 28.0867 108.222 28.289C109.638 30.5951 111.792 32.8505 114.685 35.0555C115.393 33.8215 115.747 32.4561 115.747 30.9592C115.747 30.231 115.595 29.6848 115.291 29.3207C115.008 28.9566 114.442 28.7745 113.592 28.7745C113.532 28.7745 113.491 28.7138 113.471 28.5925C113.471 28.4711 113.511 28.4104 113.592 28.4104L119.934 28.3801C120.015 28.3801 120.055 28.4407 120.055 28.5621C120.055 28.6835 120.015 28.7442 119.934 28.7442C119.246 28.7442 118.73 28.815 118.386 28.9566C118.043 29.0779 117.8 29.2499 117.658 29.4724C117.517 29.6949 117.375 30.0489 117.233 30.5344C116.647 32.537 115.949 34.1553 115.14 35.3892C116.333 36.259 117.486 36.9772 118.599 37.5436C119.711 38.1099 120.652 38.4741 121.421 38.6359ZM106.401 22.9487C106.401 24.5063 106.927 26.165 107.979 27.9249C109.091 27.0956 109.941 26.2965 110.528 25.5278C111.134 24.7389 111.438 23.859 111.438 22.888C111.438 21.998 111.195 21.3001 110.71 20.7944C110.244 20.2887 109.607 20.0358 108.798 20.0358C107.2 20.0358 106.401 21.0068 106.401 22.9487ZM109.223 38.4538C110.072 38.4538 110.872 38.2819 111.62 37.938C112.368 37.5941 113.036 37.1188 113.623 36.5119C113.501 36.431 113.319 36.2894 113.076 36.0871C111.863 35.1566 110.689 34.1047 109.557 32.9315C108.424 31.7582 107.463 30.585 106.674 29.4117C105.885 30.059 105.268 30.7367 104.823 31.4447C104.378 32.1324 104.156 32.9112 104.156 33.7811C104.156 34.6307 104.368 35.4196 104.793 36.1478C105.238 36.8558 105.845 37.4222 106.613 37.847C107.402 38.2515 108.272 38.4538 109.223 38.4538ZM132.94 23.5859C132.94 24.3748 133.132 25.0626 133.516 25.6492C133.901 26.2358 134.366 26.7314 134.912 27.136C135.458 27.5204 136.227 28.0159 137.218 28.6228C138.27 29.2499 139.089 29.7758 139.676 30.2006C140.263 30.6254 140.758 31.1716 141.163 31.8391C141.588 32.4864 141.8 33.2652 141.8 34.1755C141.8 35.1465 141.557 36.0264 141.072 36.8153C140.586 37.6042 139.868 38.2313 138.917 38.6966C137.987 39.1416 136.864 39.3641 135.549 39.3641C133.992 39.3641 132.566 39.0101 131.271 38.3021C131.17 38.2414 131.099 38.1706 131.059 38.0897C131.038 38.0088 131.018 37.8874 130.998 37.7256L130.604 33.599C130.583 33.5181 130.624 33.4675 130.725 33.4473C130.846 33.4271 130.917 33.4574 130.937 33.5383C131.261 34.9948 131.858 36.2489 132.728 37.3008C133.618 38.3527 134.791 38.8786 136.247 38.8786C137.259 38.8786 138.108 38.6055 138.796 38.0594C139.504 37.493 139.858 36.6029 139.858 35.3892C139.858 34.4789 139.656 33.69 139.251 33.0225C138.847 32.355 138.351 31.8088 137.764 31.384C137.198 30.939 136.419 30.4231 135.428 29.8365C134.457 29.2499 133.688 28.7442 133.122 28.3194C132.576 27.8946 132.111 27.3585 131.726 26.7112C131.342 26.0639 131.15 25.3053 131.15 24.4355C131.15 23.4241 131.413 22.5644 131.939 21.8564C132.485 21.1282 133.183 20.5921 134.032 20.2482C134.902 19.8841 135.823 19.7021 136.793 19.7021C137.987 19.7021 139.17 19.9448 140.344 20.4303C140.647 20.5314 140.799 20.7034 140.799 20.9461L141.011 24.4355C141.011 24.5164 140.961 24.5569 140.859 24.5569C140.758 24.5569 140.698 24.5164 140.677 24.4355C140.516 23.3836 140.081 22.4127 139.373 21.5226C138.665 20.6123 137.643 20.1572 136.308 20.1572C135.175 20.1572 134.326 20.491 133.759 21.1585C133.213 21.8058 132.94 22.615 132.94 23.5859ZM157.858 34.4789C157.858 34.4385 157.898 34.4183 157.979 34.4183C158.04 34.4183 158.09 34.4284 158.131 34.4486C158.191 34.4688 158.222 34.4992 158.222 34.5396C158.04 35.814 157.949 37.1491 157.949 38.5449C157.949 38.7067 157.908 38.8281 157.827 38.909C157.767 38.9697 157.645 39 157.463 39H144.75C144.709 39 144.689 38.9393 144.689 38.8179C144.689 38.6966 144.709 38.6359 144.75 38.6359C145.518 38.6359 146.075 38.5853 146.419 38.4842C146.783 38.383 147.025 38.1909 147.147 37.9077C147.288 37.6042 147.359 37.1491 147.359 36.5422V22.4936C147.359 21.8867 147.288 21.4417 147.147 21.1585C147.025 20.8753 146.783 20.6831 146.419 20.582C146.075 20.4606 145.518 20.3999 144.75 20.3999C144.709 20.3999 144.689 20.3392 144.689 20.2179C144.689 20.0965 144.709 20.0358 144.75 20.0358H156.947C157.129 20.0358 157.221 20.1269 157.221 20.3089L157.281 24.0411C157.281 24.1017 157.231 24.1422 157.129 24.1624C157.028 24.1624 156.968 24.1321 156.947 24.0714C156.887 22.9993 156.563 22.1699 155.976 21.5833C155.39 20.9764 154.611 20.673 153.64 20.673H151.789C151.081 20.673 150.555 20.7337 150.211 20.8551C149.888 20.9562 149.655 21.1484 149.513 21.4316C149.392 21.6946 149.331 22.0991 149.331 22.6453V28.8049H153.033C154.004 28.8049 154.692 28.643 155.097 28.3194C155.521 27.9957 155.734 27.4496 155.734 26.6809C155.734 26.6404 155.794 26.6202 155.916 26.6202C156.037 26.6202 156.098 26.6404 156.098 26.6809L156.067 29.1386C156.067 29.7253 156.078 30.1703 156.098 30.4737L156.128 31.9302C156.128 31.9706 156.067 31.9908 155.946 31.9908C155.825 31.9908 155.764 31.9706 155.764 31.9302C155.764 31.0401 155.542 30.4029 155.097 30.0186C154.672 29.6342 153.954 29.4421 152.942 29.4421H149.331V36.4209C149.331 36.9873 149.392 37.402 149.513 37.6649C149.635 37.9279 149.857 38.1099 150.181 38.2111C150.505 38.3122 151.01 38.3628 151.698 38.3628H154.126C155.097 38.3628 155.906 38.0189 156.553 37.3312C157.2 36.6434 157.635 35.6926 157.858 34.4789ZM180.466 38.6359C180.507 38.6359 180.527 38.6966 180.527 38.8179C180.527 38.9393 180.507 39 180.466 39H176.552C176.046 39 175.096 38.1403 173.7 36.4209C172.324 34.6812 170.645 32.2639 168.663 29.169C168.178 29.3106 167.631 29.3814 167.025 29.3814C166.64 29.3814 166.185 29.3611 165.659 29.3207V36.5422C165.659 37.1693 165.72 37.6245 165.841 37.9077C165.963 38.1909 166.195 38.383 166.539 38.4842C166.903 38.5853 167.47 38.6359 168.238 38.6359C168.299 38.6359 168.329 38.6966 168.329 38.8179C168.329 38.9393 168.299 39 168.238 39C167.611 39 167.116 38.9899 166.751 38.9697L164.658 38.9393L162.594 38.9697C162.23 38.9899 161.715 39 161.047 39C161.007 39 160.986 38.9393 160.986 38.8179C160.986 38.6966 161.007 38.6359 161.047 38.6359C161.816 38.6359 162.382 38.5853 162.746 38.4842C163.11 38.3628 163.363 38.1605 163.505 37.8773C163.646 37.5941 163.717 37.1491 163.717 36.5422V22.4936C163.717 21.8867 163.646 21.4417 163.505 21.1585C163.383 20.8753 163.141 20.6831 162.777 20.582C162.433 20.4606 161.876 20.3999 161.108 20.3999C161.047 20.3999 161.017 20.3392 161.017 20.2179C161.017 20.0965 161.047 20.0358 161.108 20.0358L162.594 20.0662C163.444 20.1066 164.132 20.1269 164.658 20.1269C165.022 20.1269 165.366 20.1167 165.689 20.0965C166.013 20.0763 166.296 20.0561 166.539 20.0358C167.186 19.9751 167.773 19.9448 168.299 19.9448C169.937 19.9448 171.202 20.2786 172.092 20.9461C172.982 21.6136 173.427 22.5442 173.427 23.7376C173.427 24.7086 173.144 25.629 172.577 26.4988C172.011 27.3484 171.262 28.0261 170.332 28.5318C172.051 31.1008 173.498 33.1135 174.671 34.57C175.844 36.0062 176.886 37.048 177.796 37.6953C178.706 38.3223 179.597 38.6359 180.466 38.6359ZM165.659 28.5621C166.165 28.643 166.762 28.6835 167.449 28.6835C168.845 28.6835 169.846 28.3902 170.453 27.8035C171.06 27.1967 171.364 26.1954 171.364 24.7996C171.364 21.8665 170.13 20.3999 167.662 20.3999C167.116 20.3999 166.701 20.4505 166.418 20.5516C166.155 20.6326 165.963 20.8247 165.841 21.1282C165.72 21.4114 165.659 21.8867 165.659 22.5543V28.5621ZM186.197 36.5422C186.197 37.1491 186.257 37.6042 186.379 37.9077C186.5 38.1909 186.733 38.383 187.077 38.4842C187.441 38.5853 188.007 38.6359 188.776 38.6359C188.836 38.6359 188.867 38.6966 188.867 38.8179C188.867 38.9393 188.836 39 188.776 39C188.169 39 187.683 38.9899 187.319 38.9697L185.165 38.9393L183.071 38.9697C182.707 38.9899 182.212 39 181.585 39C181.524 39 181.493 38.9393 181.493 38.8179C181.493 38.6966 181.524 38.6359 181.585 38.6359C182.353 38.6359 182.909 38.5853 183.253 38.4842C183.617 38.383 183.86 38.1909 183.982 37.9077C184.123 37.6042 184.194 37.1491 184.194 36.5422V22.4936C184.194 21.8867 184.123 21.4417 183.982 21.1585C183.86 20.8753 183.617 20.6831 183.253 20.582C182.909 20.4606 182.353 20.3999 181.585 20.3999C181.524 20.3999 181.493 20.3392 181.493 20.2179C181.493 20.0965 181.524 20.0358 181.585 20.0358L183.071 20.0662C183.921 20.1066 184.619 20.1269 185.165 20.1269C185.772 20.1269 186.5 20.1066 187.35 20.0662L188.776 20.0358C188.836 20.0358 188.867 20.0965 188.867 20.2179C188.867 20.3392 188.836 20.3999 188.776 20.3999C188.027 20.3999 187.471 20.4606 187.107 20.582C186.763 20.7034 186.52 20.9158 186.379 21.2192C186.257 21.5024 186.197 21.9474 186.197 22.5543V36.5422ZM204.069 24.0411C204.069 24.1017 204.019 24.1422 203.918 24.1624C203.817 24.1624 203.756 24.1321 203.736 24.0714C203.675 22.9993 203.351 22.1699 202.765 21.5833C202.178 20.9764 201.399 20.673 200.428 20.673H198.577C197.89 20.673 197.374 20.7236 197.03 20.8247C196.686 20.9259 196.443 21.1079 196.302 21.3709C196.18 21.6339 196.12 22.0182 196.12 22.5239V29.169H199.184C200.256 29.169 201.015 29.0071 201.46 28.6835C201.925 28.3396 202.158 27.7934 202.158 27.045C202.158 27.0045 202.218 26.9843 202.34 26.9843C202.461 26.9843 202.522 27.0045 202.522 27.045L202.492 29.5027C202.492 30.0894 202.502 30.5344 202.522 30.8378L202.552 32.2943C202.552 32.3347 202.492 32.355 202.37 32.355C202.249 32.355 202.188 32.3347 202.188 32.2943C202.188 31.4042 201.945 30.767 201.46 30.3827C200.995 29.9983 200.206 29.8062 199.093 29.8062H196.12V36.4209C196.12 37.0682 196.201 37.5436 196.362 37.847C196.544 38.1302 196.888 38.3325 197.394 38.4538C197.9 38.5752 198.699 38.6359 199.791 38.6359C199.852 38.6359 199.882 38.6966 199.882 38.8179C199.882 38.9393 199.852 39 199.791 39C198.962 39 198.314 38.9899 197.849 38.9697L195.118 38.9393L193.055 38.9697C192.691 38.9899 192.175 39 191.508 39C191.467 39 191.447 38.9393 191.447 38.8179C191.447 38.6966 191.467 38.6359 191.508 38.6359C192.276 38.6359 192.843 38.5853 193.207 38.4842C193.571 38.383 193.814 38.1909 193.935 37.9077C194.077 37.6042 194.147 37.1491 194.147 36.5422V22.4936C194.147 21.8867 194.077 21.4417 193.935 21.1585C193.814 20.8753 193.571 20.6831 193.207 20.582C192.863 20.4606 192.307 20.3999 191.538 20.3999C191.497 20.3999 191.477 20.3392 191.477 20.2179C191.477 20.0965 191.497 20.0358 191.538 20.0358H203.736C203.918 20.0358 204.009 20.1269 204.009 20.3089L204.069 24.0411Z" fill="black"/>
<path d="M5.52738 34.7481L6.31194 34.7481L6.31194 36.7843L12 36.7843L12 37.6902L6.31194 37.6902L6.31194 39.7264L5.52738 39.7264L5.52738 34.7481ZM5.52738 27.9446L5.52738 27.0386L12 27.0386L12 27.9446L9.0112 27.9446L9.0112 31.1109L12 31.1109L12 32.0168L5.52738 32.0168L5.52738 31.1109L8.22664 31.1109L8.22664 27.9446L5.52738 27.9446ZM12 23.6568L5.52738 23.6568L5.52738 19.706L6.3026 19.706L6.3026 22.7508L8.22664 22.7508L8.22664 20.0422L8.98318 20.0422L8.98318 22.7508L11.2248 22.7508L11.2248 19.4725L12 19.4725L12 23.6568Z" fill="black"/>
</svg>
