<svg width="100" height="100" fill="none" xmlns="http://www.w3.org/2000/svg">
  <mask id="a" style="mask-type:alpha" maskUnits="userSpaceOnUse" x="0" y="0" width="100" height="100">
    <path fill="#000" d="M0 0h100v100H0z"/>
  </mask>
  <g mask="url(#a)">
    <path d="m45.512 9.577 5.433 7.975c-2.443 1.445-5.427 3.937-8.95 7.476-3.312 3.437-6.446 7.376-9.402 11.819-2.956 4.442-5.097 9.08-6.423 13.912 1.211.068 2.238.16 3.08.277a9.437 9.437 0 0 1 2.998.512c3.463 1.204 5.965 3.397 7.506 6.58 1.752 3.079 1.918 6.665.495 10.758-1.587 4.566-4.211 7.8-7.872 9.704-3.607 1.746-7.457 1.907-11.55.485-5.982-2.08-9.781-5.87-11.398-11.373C7.813 62.2 8.1 56.3 10.288 50.003c1.532-4.408 3.964-9.12 7.296-14.138 3.544-5.12 7.718-10.022 12.521-14.704 4.858-4.84 9.994-8.702 15.407-11.584Zm43.45 15.102 5.433 7.975c-2.443 1.445-5.426 3.937-8.95 7.476-3.312 3.437-6.446 7.376-9.401 11.819-2.956 4.443-5.097 9.08-6.424 13.912 1.211.068 2.238.16 3.08.277a9.437 9.437 0 0 1 2.998.512c3.463 1.204 5.965 3.397 7.506 6.58 1.753 3.079 1.918 6.665.495 10.758-1.587 4.566-4.21 7.8-7.872 9.704-3.606 1.746-7.456 1.907-11.55.485-5.982-2.08-9.781-5.87-11.398-11.373-1.616-5.502-1.33-11.402.859-17.699 1.532-4.408 3.964-9.12 7.296-14.138 3.544-5.12 7.718-10.022 12.521-14.704 4.859-4.84 9.994-8.702 15.407-11.584Z" fill="url(#b)"/>
  </g>
  <defs>
    <linearGradient id="b" x1="68.953" y1="5.117" x2="-249.974" y2="323.507" gradientUnits="userSpaceOnUse">
      <stop stop-color="#FCFCFC" stop-opacity="0"/>
      <stop offset="1" stop-color="#fff" stop-opacity=".5"/>
    </linearGradient>
  </defs>
</svg>