<svg width="104" height="42" fill="none" xmlns="http://www.w3.org/2000/svg"><path fill-rule="evenodd" clip-rule="evenodd" d="M42 21.097V21C42 9.402 32.598 0 21 0 10.176 0 1.264 8.19.123 18.71l11.667 5.704a3.146 3.146 0 012.56-1.314c.893 0 1.699.371 2.272.968l9.278-7.655a3.15 3.15 0 016.276-.354L42 21.097zm-24.514 4.851l9.113-7.519a3.148 3.148 0 005.144-.345l10.134 5.197C40.74 33.806 31.827 42 21 42 9.402 42 0 32.598 0 21v-.123l11.202 5.476a3.15 3.15 0 106.284-.405z" fill="#F8F6FA"/><path d="M58.525 32V11.75H63.5c.9 0 1.708.083 2.425.25.733.167 1.358.45 1.875.85.533.383.942.908 1.225 1.575.283.667.425 1.508.425 2.525 0 .817-.117 1.517-.35 2.1-.217.583-.542 1.05-.975 1.4-.433.333-.975.558-1.625.675.8.133 1.458.417 1.975.85.533.417.925.967 1.175 1.65.267.683.4 1.508.4 2.475 0 .967-.125 1.825-.375 2.575-.233.733-.592 1.35-1.075 1.85-.467.483-1.058.85-1.775 1.1-.7.25-1.525.375-2.475.375h-5.825zm3.7-2.6h1.4c1.117 0 1.875-.267 2.275-.8.4-.55.6-1.392.6-2.525 0-.817-.1-1.475-.3-1.975-.183-.517-.5-.9-.95-1.15-.433-.25-1.017-.375-1.75-.375h-1.275V29.4zm0-9.375h1.25c.733 0 1.3-.108 1.7-.325.4-.217.675-.55.825-1 .167-.45.25-1.017.25-1.7 0-.717-.125-1.267-.375-1.65-.233-.4-.592-.667-1.075-.8-.483-.15-1.1-.225-1.85-.225h-.725v5.7zm12.791 12.2c-.65 0-1.208-.167-1.675-.5a3.523 3.523 0 01-1.075-1.3 3.846 3.846 0 01-.375-1.65c0-.9.167-1.658.5-2.275a4.759 4.759 0 011.325-1.55 8.882 8.882 0 011.875-1.075c.7-.317 1.408-.6 2.125-.85v-1.25c0-.417-.033-.767-.1-1.05-.05-.283-.158-.5-.325-.65-.15-.15-.392-.225-.725-.225-.283 0-.517.067-.7.2a1.197 1.197 0 00-.375.575 3.742 3.742 0 00-.125.825l-.05.875-3.225-.125c.05-1.667.458-2.892 1.225-3.675.783-.8 1.967-1.2 3.55-1.2 1.45 0 2.5.4 3.15 1.2.667.8 1 1.883 1 3.25v6.675c0 .533.008 1.017.025 1.45.033.433.067.825.1 1.175.05.35.092.658.125.925h-3.05c-.05-.333-.117-.708-.2-1.125a87.76 87.76 0 00-.15-.95c-.167.583-.483 1.117-.95 1.6-.467.467-1.1.7-1.9.7zm1.25-2.525c.217 0 .417-.05.6-.15.2-.117.375-.25.525-.4.15-.15.258-.283.325-.4v-4.025a28.91 28.91 0 00-1.05.65 5.13 5.13 0 00-.85.725c-.233.25-.417.525-.55.825-.117.3-.175.65-.175 1.05 0 .533.1.958.3 1.275.217.3.508.45.875.45zm11.179 2.525c-1.217 0-2.217-.325-3-.975-.784-.65-1.342-1.6-1.675-2.85l2.525-.975c.2.783.466 1.383.8 1.8.333.417.766.625 1.3.625.4 0 .7-.1.9-.3.2-.2.3-.475.3-.825 0-.4-.125-.758-.375-1.075-.234-.333-.642-.742-1.225-1.225l-1.75-1.475c-.634-.55-1.15-1.108-1.55-1.675-.384-.583-.575-1.308-.575-2.175 0-.783.175-1.45.525-2 .366-.567.858-1 1.475-1.3a4.63 4.63 0 012.1-.475c1.166 0 2.1.35 2.8 1.05.716.683 1.175 1.583 1.375 2.7l-2.225.95a4.498 4.498 0 00-.375-1.1c-.15-.35-.35-.633-.6-.85a1.294 1.294 0 00-.875-.325c-.35 0-.634.108-.85.325-.2.217-.3.492-.3.825 0 .283.116.575.35.875.25.3.6.642 1.05 1.025l1.775 1.6c.383.333.75.692 1.1 1.075.35.383.641.817.875 1.3.233.467.35 1.008.35 1.625 0 .833-.192 1.533-.575 2.1-.367.567-.875 1-1.525 1.3-.634.283-1.342.425-2.125.425zm10.46 0c-1.084 0-1.967-.2-2.65-.6-.684-.417-1.192-1.017-1.525-1.8-.317-.8-.476-1.758-.476-2.875V22.6c0-1.15.159-2.117.475-2.9.334-.783.842-1.375 1.525-1.775.7-.4 1.584-.6 2.65-.6 1.15 0 2.042.217 2.675.65.65.433 1.109 1.067 1.375 1.9.284.817.425 1.817.425 3v2.05h-5.75v2.85c0 .467.042.85.125 1.15.1.3.25.517.45.65s.442.2.726.2c.3 0 .541-.067.724-.2.184-.15.317-.358.4-.625.084-.283.126-.633.126-1.05v-1.2h3.174v.975c0 1.467-.366 2.592-1.1 3.375-.733.783-1.85 1.175-3.35 1.175zm-1.276-8.975h2.55v-1.375c0-.5-.041-.9-.124-1.2-.084-.317-.217-.542-.4-.675-.184-.15-.442-.225-.776-.225-.3 0-.541.075-.725.225-.183.15-.316.4-.4.75-.083.35-.125.85-.125 1.5v1z" fill="#F8F6FA"/></svg>