<svg width="88" height="100" fill="none" xmlns="http://www.w3.org/2000/svg"><path d="M49.348.186c-1.073.41-2.186 1.483-2.732 2.654-.469 1.015-.508 1.308-.566 4.47-.078 3.865.195 3.435-2.381 3.65-2.03.175-6.13.976-8.588 1.698C21.398 16.659 9.98 26.555 4.085 39.476 2.115 43.81.377 49.821.045 53.607c-.097 1.093-.058 1.367.332 2.03.8 1.347 2.381 1.835 3.787 1.171.41-.195 1.19-.995 1.99-2.01 6.344-8.14 15.85-13.643 26.584-15.361 2.499-.41 8.998-.43 11.516-.039l1.66.254.097 3.708c.117 4.138.293 4.86 1.58 6.129 1.387 1.386 3.143 1.718 5.193.976 1.054-.39 1.717-.996 10.559-9.818 9.72-9.68 10.423-10.481 11.047-12.59.39-1.307.41-3.903.04-5.113-.723-2.381-.898-2.576-10.814-12.492C53.35.205 53.291.166 51.086.01c-.586-.039-1.367.04-1.738.176z" fill="url(#paint0_linear_48_69)"/><path d="M83.412 42.35c-.312.196-1.21 1.133-1.97 2.089-1.66 2.088-5.27 5.621-7.281 7.144-5.582 4.216-12.023 6.948-19.128 8.08-2.498.41-8.998.43-11.516.04l-1.659-.255-.117-3.513c-.137-4.255-.39-5.153-1.776-6.48-1.445-1.405-3.397-1.62-5.446-.624-1.112.546-2.323 1.698-10.442 9.817-6.715 6.695-9.369 9.486-9.818 10.267a9.77 9.77 0 00-.215 9.193c.293.586 3.436 3.865 9.896 10.364C34.11 98.661 34.382 98.876 36.53 99.11c2.185.214 4.098-1.21 4.84-3.611.312-1.015.39-1.815.39-4.158 0-3.337-.253-2.986 2.343-3.2 1.951-.157 5.875-.938 8.353-1.64 18.172-5.212 31.913-20.65 34.977-39.27.39-2.421.332-3.28-.312-4.139-.8-1.073-2.576-1.425-3.709-.742z" fill="url(#paint1_linear_48_69)"/><defs><linearGradient id="paint0_linear_48_69" x1="37.348" y1="57.102" x2="37.348" y2="0" gradientUnits="userSpaceOnUse"><stop stop-color="#AD00FF"/><stop offset="1" stop-color="#3D00FF"/></linearGradient><linearGradient id="paint1_linear_48_69" x1="50.339" y1="99.131" x2="50.339" y2="42" gradientUnits="userSpaceOnUse"><stop stop-color="#AD00FF"/><stop offset="1" stop-color="#3D00FF"/></linearGradient></defs></svg>