<svg fill="none" viewBox="0 0 100 101" xmlns="http://www.w3.org/2000/svg"><path d="M45.659.41c-.45.235-.899.684-1.133 1.153-.372.723-.391 1.134-.391 7.035v6.253H40.03c-4.514 0-4.788.059-5.726 1.173-.625.742-.84 1.72-.547 2.58.157.449 2.404 2.833 7.602 8.011 7.973 7.953 7.914 7.914 9.458 7.406.45-.156 2.833-2.403 8.012-7.601 6.37-6.37 7.367-7.465 7.484-8.09.235-1.27-.488-2.58-1.798-3.264-.273-.137-1.876-.215-4.533-.215H55.86V8.598c0-5.901-.02-6.312-.391-7.035C54.765.176 54.12 0 49.958 0c-3.166.02-3.654.059-4.299.41z" fill="url(#f)"/><path d="M24.845 31.832c-5.393 1.778-9.849 3.303-9.907 3.361s7.816 2.716 17.489 5.921l17.607 5.823 17.568-5.823c9.673-3.205 17.509-5.882 17.43-5.96-.097-.078-4.592-1.602-10.024-3.38l-9.869-3.244-4.983 4.983c-4.396 4.377-5.159 5.041-6.292 5.569-2.599 1.23-5.14 1.23-7.738 0-1.153-.528-1.896-1.192-6.293-5.589-2.755-2.716-5.041-4.963-5.08-4.944-.059.02-4.514 1.485-9.908 3.283z" fill="url(#e)"/><path d="M5.442 43.772C2.922 45.922.654 47.954.42 48.286c-.782 1.094-.43 2.873.703 3.674.724.508 33.982 11.549 34.764 11.549 1.525 0 1.798-.293 5.746-6.214 2.032-3.049 3.634-5.628 3.536-5.706C45.052 51.47 12.44 40.587 10.425 40c-.312-.098-1.407.742-4.983 3.771z" fill="url(#d)"/><path d="M72.332 45.687c-9.595 3.205-17.489 5.862-17.548 5.94-.078.06 1.544 2.62 3.576 5.667 3.947 5.922 4.22 6.215 5.726 6.215.8 0 34.08-11.041 34.783-11.55 1.016-.722 1.446-2.364.879-3.458-.235-.47-9.458-8.5-9.83-8.579-.097 0-7.992 2.58-17.586 5.765z" fill="url(#c)"/><path d="M44.837 63.04c-1.173 1.759-2.501 3.557-2.95 3.967-1.896 1.739-3.948 2.482-6.527 2.306-1.525-.098-2.756-.47-12.526-3.733-5.96-1.993-10.904-3.634-10.982-3.634-.098 0-.157 5.413-.157 12.018 0 11.666.02 12.057.391 12.8.215.43.664.918 1.016 1.094.352.176 8.11 2.99 17.255 6.253l16.61 5.902.059-10.044c.02-5.53.02-14.558 0-20.088l-.059-10.044-2.13 3.205z" fill="url(#b)"/><path d="M52.926 79.865v20.166l1.622-.547c4.924-1.7 31.07-11.06 31.93-11.45.782-.353 1.094-.646 1.407-1.252.41-.762.41-1.055.41-12.819 0-6.605-.058-12.018-.156-12.018-.078 0-5.022 1.642-10.982 3.635-9.77 3.263-11.002 3.635-12.526 3.732-2.54.157-4.573-.547-6.488-2.266-.43-.391-1.778-2.189-3.01-4.026l-2.207-3.322v20.166z" fill="url(#a)"/><defs><linearGradient id="f" x1="50.354" x2="50.354" y1="27.822" y2="-13.315" gradientUnits="userSpaceOnUse"><stop stop-color="#3467FC" offset="0"/><stop stop-color="#BC34FC" offset="1"/></linearGradient><linearGradient id="e" x1="50.757" x2="50.757" y1="43.501" y2="21.366" gradientUnits="userSpaceOnUse"><stop stop-color="#3467FC" offset="0"/><stop stop-color="#BC34FC" offset="1"/></linearGradient><linearGradient id="d" x1="23.084" x2="23.084" y1="59.118" y2="30.841" gradientUnits="userSpaceOnUse"><stop stop-color="#3467FC" offset="0"/><stop stop-color="#BC34FC" offset="1"/></linearGradient><linearGradient id="c" x1="77.889" x2="77.889" y1="59.105" y2="30.742" gradientUnits="userSpaceOnUse"><stop stop-color="#3467FC" offset="0"/><stop stop-color="#BC34FC" offset="1"/></linearGradient><linearGradient id="b" x1="29.757" x2="29.757" y1="92.51" y2="44.198" gradientUnits="userSpaceOnUse"><stop stop-color="#3467FC" offset="0"/><stop stop-color="#BC34FC" offset="1"/></linearGradient><linearGradient id="a" x1="71" x2="71" y1="92.5" y2="44" gradientUnits="userSpaceOnUse"><stop stop-color="#3467FC" offset="0"/><stop stop-color="#BC34FC" offset="1"/></linearGradient></defs></svg>