<svg width="100" height="101" fill="none" xmlns="http://www.w3.org/2000/svg"><path d="M24.712 14.798C10.065 23.566.1 29.661.236 29.746c.136.086 11.286 6.758 24.767 14.82 13.501 8.062 24.613 14.67 24.73 14.67.116 0 11.227-6.608 24.728-14.67a31349.609 31349.609 0 0024.768-14.82C99.48 29.596 50.237 0 49.713 0c-.136 0-11.403 6.672-25.001 14.798z" fill="url(#paint0_linear_47_46)"/><path d="M4.7 47.431C2.233 48.928.193 50.19.193 50.254c0 .064 11.15 6.779 24.768 14.948L49.729 80l24.767-14.798c13.618-8.169 24.768-14.884 24.768-14.948 0-.15-8.78-5.41-9.033-5.41-.117 0-9.227 5.389-20.28 11.996-11.034 6.608-20.145 12.02-20.222 12.02-.078 0-9.053-5.325-19.931-11.826A99944.76 99944.76 0 019.615 44.951c-.33-.193-1.088.192-4.915 2.48z" fill="url(#paint1_linear_47_46)"/><path d="M7.187 66.592c-1.01.62-3.05 1.86-4.506 2.737L0 70.912l24.806 14.84c22.437 13.43 24.826 14.799 25.293 14.607.466-.193 46.951-27.95 48.622-29.02l.7-.449-4.275-2.566c-2.37-1.411-4.448-2.651-4.623-2.737-.252-.15-5.517 2.908-20.552 11.911L49.729 89.602 29.527 77.52C18.416 70.869 9.266 65.437 9.169 65.459c-.078 0-.971.513-1.982 1.133z" fill="url(#paint2_linear_47_46)"/><defs><linearGradient id="paint0_linear_47_46" x1="49.732" y1="59.236" x2="50" y2="-11" gradientUnits="userSpaceOnUse"><stop offset=".13" stop-color="#00A6DA"/><stop offset=".708" stop-color="#02FCB1"/></linearGradient><linearGradient id="paint1_linear_47_46" x1="49.729" y1="80" x2="49.823" y2="38.315" gradientUnits="userSpaceOnUse"><stop offset=".13" stop-color="#00A6DA"/><stop offset=".708" stop-color="#02FCB1"/></linearGradient><linearGradient id="paint2_linear_47_46" x1="49.71" y1="100.374" x2="49.803" y2="58.974" gradientUnits="userSpaceOnUse"><stop offset=".13" stop-color="#00A6DA"/><stop offset=".708" stop-color="#02FCB1"/></linearGradient></defs></svg>