<svg width="99" height="101" fill="none" xmlns="http://www.w3.org/2000/svg"><path d="M39.631.112c-7.098.867-13.309 3.41-19.224 7.867-2.366 1.774-6.21 5.58-8.005 7.907-4.318 5.58-7.63 12.224-9.444 19.007C1.045 42.07 0 49.326 0 55.497c.02 8.124 1.775 13.427 5.679 16.996 2.188 2.011 4.948 3.273 8.399 3.825 2.721.454 3.194.415 4.14-.355 2.07-1.675 5.226-3.47 7.355-4.16.966-.315 2.248-1.577 23.266-22.852a22921.941 22921.941 0 0025.633-25.987l3.41-3.45-1.202-1.775C70.134 8.294 60.709 2.222 49.687.408 47.44.033 41.682-.125 39.631.112zm8.715 9.09c3.806.828 6.763 3.706 7.75 7.57 1.34 5.245-2.012 10.628-7.493 12.028-2.17.552-4.752.256-6.862-.808-1.38-.71-3.687-3.037-4.338-4.417-1.991-4.14-1.301-8.36 1.873-11.515 2.564-2.563 5.758-3.549 9.07-2.859zm-22.28 13.624a7.536 7.536 0 013.53 3.43c.63 1.263.67 1.46.67 3.313 0 1.735-.06 2.13-.513 3.076-2.03 4.279-7.197 5.659-11.12 2.958-1.203-.828-2.17-2.189-2.662-3.727-1.321-4.2 1.084-8.459 5.422-9.563.217-.059 1.124-.059 2.011-.04 1.183.06 1.873.198 2.662.553zm-4.338 25.04c3.825 1.755 5.54 6.448 3.668 10.076-.493.966-1.814 2.425-2.741 3.017-2.03 1.262-4.93 1.4-7.157.296-6.034-2.958-5.324-11.634 1.124-13.743 1.32-.434 3.746-.257 5.106.355z" fill="url(#paint0_linear_47_56)"/><path d="M93.105 12.08c-.473.099-45.645 43.595-45.546 43.851.04.079 2.879 2.701 6.349 5.797 5.264 4.752 6.31 5.62 6.526 5.402.158-.157 8.892-11.495 19.421-25.218 17.627-22.95 19.146-25.001 19.047-25.573-.217-1.479-2.307-3.569-4.12-4.101-.553-.158-1.046-.276-1.105-.276-.06.02-.315.079-.572.118z" fill="url(#paint1_linear_47_56)"/><path d="M38.726 65.494c-3.47 3.864-6.31 7.078-6.349 7.177-.059.138 12.363 11.455 12.639 11.514.158.04 12.757-14.038 12.757-14.255 0-.138-11.594-10.608-12.422-11.2-.296-.216-1.124.632-6.625 6.764zm6.881-1.676c.967.493 1.519 1.222 1.519 1.952 0 .65-.316 1.084-3.214 4.357-2.958 3.332-3.273 3.628-3.924 3.687-.591.06-.868-.059-1.518-.67-.947-.848-1.045-1.479-.355-2.366 1.084-1.46 5.974-6.842 6.329-6.98.572-.237.67-.237 1.163.02z" fill="url(#paint2_linear_47_56)"/><path d="M28.691 76.042c-1.853.513-5.048 2.09-6.546 3.214-2.84 2.15-5.127 5.324-5.895 8.203-.415 1.577-.415 4.377.02 6.013.67 2.603 3.114 6.724 4.258 7.197.73.315 1.696.079 2.05-.473.178-.257.434-.966.592-1.578.611-2.326 1.755-3.864 3.214-4.337.513-.158 2.307-.395 3.983-.493 3.53-.237 4.85-.533 6.723-1.519 1.558-.828 3.392-2.681 4.555-4.574l.73-1.183-5.896-5.343c-3.253-2.958-6.033-5.383-6.151-5.442-.139-.04-.868.099-1.637.315zm-4.83 11.752c1.517.907 2.444 1.065 6.072 1.045 1.873 0 4.003.098 4.732.217 1.183.216 1.262.256.907.512-.73.533-2.405.868-5.816 1.144-4.378.355-5.225.63-7.079 2.386-1.479 1.4-2.07 1.577-2.839.808-.335-.335-.532-.887-.71-1.913-.355-2.129.02-4.16 1.124-6.072l.493-.868 1.203 1.163c.67.651 1.538 1.341 1.912 1.578z" fill="url(#paint3_linear_47_56)"/><defs><linearGradient id="paint0_linear_47_56" x1="38.941" y1="76.612" x2="38.941" y2="0" gradientUnits="userSpaceOnUse"><stop stop-color="#6947CA"/><stop offset="1" stop-color="#CA47A0"/></linearGradient><linearGradient id="paint1_linear_47_56" x1="73.232" y1="67.16" x2="73.232" y2="11.962" gradientUnits="userSpaceOnUse"><stop stop-color="#6947CA"/><stop offset="1" stop-color="#CA47A0"/></linearGradient><linearGradient id="paint2_linear_47_56" x1="45.075" y1="84.186" x2="45.075" y2="58.701" gradientUnits="userSpaceOnUse"><stop stop-color="#6947CA"/><stop offset="1" stop-color="#CA47A0"/></linearGradient><linearGradient id="paint3_linear_47_56" x1="29.158" y1="100.81" x2="29.158" y2="75.72" gradientUnits="userSpaceOnUse"><stop stop-color="#6947CA"/><stop offset="1" stop-color="#CA47A0"/></linearGradient></defs></svg>