<svg width="90" height="90" viewBox="0 0 90 90" fill="none" xmlns="http://www.w3.org/2000/svg">
<circle cx="45" cy="45" r="45" fill="#0C0F35"/>
<path d="M43.75 60H46.25V61.25H43.75V60Z" fill="white"/>
<path d="M43.75 41.875H46.25V43.125H43.75V41.875Z" fill="white"/>
<path d="M61.875 35.625H61.25V34.375H60V35.625H58.25C56.75 33.5 54.75 31.8125 52.5 30.5625V28.125C52.5 27.0625 51.6875 26.25 50.625 26.25H39.375C38.3125 26.25 37.5 27.0625 37.5 28.125V30.5625C34.75 32 32.5 34.1875 30.9375 36.875C28.1875 37.0625 26.125 39.4375 26.25 42.1875C26.375 43.875 27.3125 45.375 28.8125 46.25C28.9375 47.75 29.25 49.25 29.75 50.625C28.0625 51.75 27.5625 54.0625 28.75 55.8125C28.875 56 29.0625 56.1875 29.1875 56.375L31.875 59.0625L33.9375 57C35 58 36.1875 58.8125 37.5 59.5V61.875C37.5 62.9375 38.3125 63.75 39.375 63.75H50.625C51.6875 63.75 52.5 62.9375 52.5 61.875V59.4375C53.4375 58.9375 54.25 58.4375 55.0625 57.75C56.9375 59.8125 60.0625 59.9375 62.125 58.0625C64.1875 56.1875 64.3125 53.0625 62.4375 51C61.9375 50.4375 61.25 50 60.5625 49.6875C60.9375 48.375 61.1875 47 61.25 45.625H61.875C62.9375 45.625 63.75 44.8125 63.75 43.75V37.5C63.75 36.4375 62.9375 35.625 61.875 35.625ZM62.5 37.5V38.125H55V37.5C55 37.125 55.25 36.875 55.625 36.875H61.875C62.25 36.875 62.5 37.125 62.5 37.5ZM38.75 28.125C38.75 27.75 39 27.5 39.375 27.5H50.625C51 27.5 51.25 27.75 51.25 28.125V34.375C51.25 34.75 51 35 50.625 35H46.625L45 36.625L43.375 35H39.375C39 35 38.75 34.75 38.75 34.375V28.125ZM27.5 41.875C27.5 39.8125 29.1875 38.125 31.25 38.125C33.3125 38.125 35 39.8125 35 41.875C35 43.9375 33.3125 45.625 31.25 45.625C29.1875 45.625 27.5 43.9375 27.5 41.875ZM31.875 57.25L30.125 55.5C29.1875 54.5625 29.1875 53 30.125 52C30.5625 51.5625 31.1875 51.25 31.875 51.25H31.9375C33.3125 51.25 34.375 52.375 34.375 53.6875C34.375 54.3125 34.125 55 33.625 55.4375L31.875 57.25ZM51.25 57.5H38.75V41.25C38.75 40.875 39 40.625 39.375 40.625H50.625C51 40.625 51.25 40.875 51.25 41.25V57.5ZM50.625 62.5H39.375C39 62.5 38.75 62.25 38.75 61.875V58.75H51.25V61.875C51.25 62.25 51 62.5 50.625 62.5ZM62.5 54.375C62.5 56.4375 60.8125 58.125 58.75 58.125C56.6875 58.125 55 56.4375 55 54.375C55 52.3125 56.6875 50.625 58.75 50.625C60.8125 50.625 62.5 52.3125 62.5 54.375ZM59.3125 49.4375C56.5625 49.125 54.0625 51.0625 53.75 53.8125C53.625 54.8125 53.8125 55.875 54.3125 56.75C53.75 57.1875 53.125 57.625 52.5 58V41.25C52.5 40.1875 51.6875 39.375 50.625 39.375H39.375C38.3125 39.375 37.5 40.1875 37.5 41.25V58C36.5625 57.4375 35.625 56.75 34.8125 56C36.0625 54.375 35.8125 52.0625 34.1875 50.8125C33.5625 50.3125 32.75 50 31.875 50H31.8125C31.5 50 31.1875 50.0625 30.875 50.125C30.5 49.0625 30.1875 47.875 30.0625 46.75C32.75 47.375 35.4375 45.6875 36.0625 43C36.6875 40.3125 35 37.625 32.3125 37H32.25C33.5625 34.9375 35.3125 33.25 37.4375 32V34.375C37.4375 35.4375 38.25 36.25 39.3125 36.25H42.8125L44.9375 38.375L47.0625 36.25H50.625C51.6875 36.25 52.5 35.4375 52.5 34.375V32C54.125 32.9375 55.5625 34.1875 56.6875 35.625H55.625C54.5625 35.625 53.75 36.4375 53.75 37.5V43.75C53.75 44.8125 54.5625 45.625 55.625 45.625H60C59.9375 46.9375 59.6875 48.1875 59.3125 49.4375ZM61.875 44.375H55.625C55.25 44.375 55 44.125 55 43.75V39.375H62.5V43.75C62.5 44.125 62.25 44.375 61.875 44.375Z" fill="white"/>
<path d="M33.5 42.625L31.875 41.5625V39.375H30.625V42.1875L32.75 43.625L33.5 42.625Z" fill="white"/>
<path d="M56.875 40.625H58.125V43.125H56.875V40.625Z" fill="white"/>
<path d="M59.375 40.625H60.625V43.125H59.375V40.625Z" fill="white"/>
<path d="M29.375 60H34.375V61.25H29.375V60Z" fill="white"/>
<path d="M42.5 29.375H50V30.625H42.5V29.375Z" fill="white"/>
<path d="M42.5 32.5H50V33.75H42.5V32.5Z" fill="white"/>
<path d="M58.125 51.875H59.375V54.375H58.125V51.875Z" fill="white"/>
<path d="M58.125 55.625H59.375V56.875H58.125V55.625Z" fill="white"/>
<path d="M40 29.375H41.25V30.625H40V29.375Z" fill="white"/>
<path d="M40 32.5H41.25V33.75H40V32.5Z" fill="white"/>
</svg>
