<svg width="90" height="90" viewBox="0 0 90 90" fill="none" xmlns="http://www.w3.org/2000/svg">
<circle cx="45" cy="45" r="45" fill="#0C0F35"/>
<path d="M56.2294 37.9003C55.9437 37.5428 55.6375 37.1953 55.3187 36.8672L54.4219 37.7372C54.7125 38.0372 54.9925 38.3547 55.2531 38.6809L56.2294 37.9003Z" fill="white"/>
<path d="M56.6286 40.7828L57.7354 40.2021C57.5217 39.7953 57.2867 39.3953 57.0373 39.0146L55.9917 39.7021C56.2192 40.0471 56.4336 40.4115 56.6286 40.7828Z" fill="white"/>
<path d="M54.3123 35.9246C53.9636 35.6284 53.5973 35.3452 53.2229 35.084L52.5073 36.1077C52.8486 36.3471 53.1836 36.6077 53.5023 36.8771L54.3123 35.9246Z" fill="white"/>
<path d="M58.0624 45.5753L59.3068 45.4503C59.2618 44.9922 59.1943 44.5334 59.1061 44.0859L57.8799 44.3278C57.9586 44.7384 58.0205 45.1572 58.0624 45.5753Z" fill="white"/>
<path d="M57.5768 43.1096L58.7743 42.7509C58.6437 42.3134 58.4893 41.8759 58.3168 41.4521L57.1587 41.9234C57.3168 42.3121 57.4574 42.7096 57.5768 43.1096Z" fill="white"/>
<path d="M58.0698 48.0878L59.3142 48.2022C59.3542 47.7646 59.3767 47.3178 59.3767 46.8271L58.1248 46.8746C58.1248 47.2796 58.1061 47.6872 58.0698 48.0878Z" fill="white"/>
<path d="M41.9375 60.9221C42.3381 61.0089 42.7469 61.0796 43.1531 61.1314L43.3113 59.8921C42.9413 59.8439 42.5681 59.7796 42.2031 59.7002L41.9375 60.9221Z" fill="white"/>
<path d="M44.4313 59.9879L44.377 61.2379C44.584 61.2463 44.7917 61.2504 45.0001 61.2504C45.2045 61.2504 45.4076 61.2461 45.6107 61.2373L45.5576 59.9873C45.1832 60.0048 44.8045 60.0042 44.4313 59.9879Z" fill="white"/>
<path d="M39.5811 60.1933C39.9623 60.3483 40.3529 60.4883 40.7423 60.6083L41.1111 59.4139C40.7567 59.3045 40.4004 59.177 40.0523 59.0352L39.5811 60.1933Z" fill="white"/>
<path d="M48.875 59.4182L49.2431 60.6125C49.6344 60.4919 50.025 60.3519 50.405 60.1975L49.9375 59.04C49.5906 59.1807 49.2337 59.3082 48.875 59.4182Z" fill="white"/>
<path d="M46.6802 59.8928L46.8383 61.1328C47.2439 61.0809 47.6508 61.0078 48.0539 60.924L47.7896 59.7021C47.4233 59.7815 47.0502 59.8459 46.6802 59.8928Z" fill="white"/>
<path d="M31.9294 48.0737C31.8931 47.6781 31.875 47.2744 31.875 46.875V46.8125L30.625 46.875C30.625 47.3125 30.645 47.7531 30.6875 48.1875L31.9294 48.0737Z" fill="white"/>
<path d="M32.8448 41.9136L31.6873 41.4404C31.5148 41.8629 31.3604 42.2998 31.2285 42.7386L32.426 43.0979C32.546 42.6973 32.6873 42.2992 32.8448 41.9136Z" fill="white"/>
<path d="M37.5 36.1041L36.785 35.0791C36.41 35.3416 36.0418 35.6247 35.6943 35.9204L36.5 36.8754C36.82 36.6022 37.1543 36.3435 37.5 36.1041Z" fill="white"/>
<path d="M32.1252 44.3177L30.8977 44.0752C30.8089 44.5239 30.7414 44.9827 30.6958 45.4377L31.9402 45.5627C31.9808 45.1458 32.0433 44.7271 32.1252 44.3177Z" fill="white"/>
<path d="M34.0133 39.6914L32.9683 39.0039C32.7183 39.387 32.482 39.7864 32.2695 40.1914L33.3758 40.7733C33.5702 40.4058 33.7845 40.0414 34.0133 39.6914Z" fill="white"/>
<path d="M35.5839 37.7316L34.6876 36.8604C34.3695 37.1872 34.0626 37.5347 33.7764 37.8916L34.7514 38.6741C35.0139 38.3472 35.2939 38.0304 35.5839 37.7316Z" fill="white"/>
<path d="M57.4998 49.3755C56.5389 49.376 55.5888 49.5787 54.7113 49.9704C53.8338 50.3622 53.0486 50.9342 52.4067 51.6492L48.3298 48.5917C48.6015 48.0681 48.7454 47.4877 48.7498 46.8978C48.7542 46.3079 48.619 45.7254 48.3552 45.1978C48.0914 44.6701 47.7065 44.2124 47.232 43.8621C46.7574 43.5117 46.2067 43.2785 45.6248 43.1817V40.5936C47.3867 40.4328 49.0187 39.5989 50.1815 38.2654C51.3442 36.932 51.9482 35.2016 51.8677 33.4342C51.7872 31.6669 51.0284 29.9986 49.7493 28.7763C48.4701 27.5541 46.769 26.8721 44.9998 26.8721C43.2306 26.8721 41.5295 27.5541 40.2503 28.7763C38.9712 29.9986 38.2124 31.6669 38.1319 33.4342C38.0514 35.2016 38.6553 36.932 39.8181 38.2654C40.9809 39.5989 42.6129 40.4328 44.3748 40.5936V43.1817C43.7929 43.2786 43.2422 43.5118 42.7676 43.8623C42.2931 44.2127 41.9082 44.6705 41.6444 45.1982C41.3806 45.7258 41.2454 46.3084 41.2498 46.8983C41.2542 47.4882 41.3981 48.0687 41.6698 48.5924L37.5935 51.6492C36.4044 50.3318 34.7532 49.5236 32.9834 49.3927C31.2135 49.2618 29.4613 49.8183 28.0914 50.9464C26.7214 52.0746 25.8391 53.6874 25.6281 55.4495C25.417 57.2116 25.8934 58.9872 26.9582 60.4069C28.0231 61.8267 29.5942 62.7812 31.3449 63.072C33.0956 63.3628 34.891 62.9674 36.3576 61.9681C37.8242 60.9688 38.849 59.4425 39.2189 57.7068C39.5888 55.9711 39.2753 54.1596 38.3435 52.6492L42.4204 49.5924C43.1148 50.2562 44.0385 50.6266 44.9992 50.6266C45.9598 50.6266 46.8835 50.2562 47.5779 49.5924L51.6548 52.6492C50.8592 53.9446 50.5159 55.4674 50.6786 56.9789C50.8414 58.4904 51.501 59.9051 52.5541 61.0015C53.6073 62.0978 54.9944 62.8138 56.4981 63.0372C58.0018 63.2606 59.5372 62.9787 60.8635 62.2358C62.1898 61.493 63.2322 60.331 63.8273 58.9321C64.4224 57.5332 64.5366 55.9764 64.1519 54.5057C63.7672 53.0349 62.9054 51.7334 61.7016 50.805C60.4978 49.8766 59.02 49.3738 57.4998 49.3755ZM29.9998 61.2817V60.0005C29.9998 59.3374 30.2632 58.7016 30.732 58.2327C31.2009 57.7639 31.8368 57.5005 32.4998 57.5005C33.1628 57.5005 33.7987 57.7639 34.2676 58.2327C34.7364 58.7016 34.9998 59.3374 34.9998 60.0005V61.2817C34.2242 61.6719 33.368 61.8752 32.4998 61.8752C31.6316 61.8752 30.7754 61.6719 29.9998 61.2817ZM31.2498 55.0005V54.3755C31.2498 54.044 31.3815 53.726 31.6159 53.4916C31.8503 53.2572 32.1683 53.1255 32.4998 53.1255C32.8313 53.1255 33.1493 53.2572 33.3837 53.4916C33.6181 53.726 33.7498 54.044 33.7498 54.3755V55.0005C33.7498 55.332 33.6181 55.6499 33.3837 55.8844C33.1493 56.1188 32.8313 56.2505 32.4998 56.2505C32.1683 56.2505 31.8503 56.1188 31.6159 55.8844C31.3815 55.6499 31.2498 55.332 31.2498 55.0005ZM36.2498 60.4311V60.0005C36.2494 59.3296 36.069 58.671 35.7275 58.0936C35.3859 57.5161 34.8957 57.0408 34.3079 56.7174C34.7509 56.2554 34.9987 55.6405 34.9998 55.0005V54.3755C34.9998 53.7124 34.7364 53.0766 34.2676 52.6077C33.7987 52.1389 33.1628 51.8755 32.4998 51.8755C31.8368 51.8755 31.2009 52.1389 30.732 52.6077C30.2632 53.0766 29.9998 53.7124 29.9998 54.3755V55.0005C30.0008 55.6405 30.2487 56.2554 30.6917 56.7174C30.1039 57.0408 29.6137 57.5161 29.2721 58.0936C28.9306 58.671 28.7502 59.3296 28.7498 60.0005V60.4311C27.9007 59.6716 27.3022 58.6722 27.0335 57.5652C26.7648 56.4581 26.8386 55.2956 27.2451 54.2313C27.6516 53.1671 28.3716 52.2514 29.3099 51.6054C30.2482 50.9594 31.3606 50.6135 32.4998 50.6135C33.639 50.6135 34.7514 50.9594 35.6897 51.6054C36.628 52.2514 37.348 53.1671 37.7545 54.2313C38.161 55.2956 38.2348 56.4581 37.9661 57.5652C37.6974 58.6722 37.0989 59.6716 36.2498 60.4311ZM43.7498 32.5005V31.8755C43.7498 31.544 43.8815 31.226 44.1159 30.9916C44.3503 30.7572 44.6683 30.6255 44.9998 30.6255C45.3313 30.6255 45.6493 30.7572 45.8837 30.9916C46.1181 31.226 46.2498 31.544 46.2498 31.8755V32.5005C46.2498 32.832 46.1181 33.1499 45.8837 33.3844C45.6493 33.6188 45.3313 33.7505 44.9998 33.7505C44.6683 33.7505 44.3503 33.6188 44.1159 33.3844C43.8815 33.1499 43.7498 32.832 43.7498 32.5005ZM44.9998 35.0005C45.6628 35.0005 46.2987 35.2639 46.7676 35.7327C47.2364 36.2016 47.4998 36.8374 47.4998 37.5005V38.7817C46.7242 39.1719 45.868 39.3752 44.9998 39.3752C44.1316 39.3752 43.2754 39.1719 42.4998 38.7817V37.5005C42.4998 36.8374 42.7632 36.2016 43.232 35.7327C43.7009 35.2639 44.3368 35.0005 44.9998 35.0005ZM39.3748 33.7505C39.3728 32.8117 39.6058 31.8873 40.0525 31.0616C40.4993 30.236 41.1456 29.5352 41.9325 29.0233C42.7195 28.5114 43.622 28.2046 44.5579 28.1309C45.4938 28.0571 46.4333 28.2188 47.2907 28.6011C48.1481 28.9835 48.8962 29.5743 49.4667 30.3199C50.0373 31.0654 50.4122 31.9418 50.5572 32.8694C50.7023 33.7969 50.6129 34.746 50.2972 35.6301C49.9815 36.5142 49.4495 37.3052 48.7498 37.9311V37.5005C48.7494 36.8296 48.569 36.171 48.2275 35.5936C47.8859 35.0161 47.3957 34.5408 46.8079 34.2174C47.2509 33.7554 47.4987 33.1405 47.4998 32.5005V31.8755C47.4998 31.2124 47.2364 30.5766 46.7676 30.1077C46.2987 29.6389 45.6628 29.3755 44.9998 29.3755C44.3368 29.3755 43.7009 29.6389 43.232 30.1077C42.7632 30.5766 42.4998 31.2124 42.4998 31.8755V32.5005C42.5008 33.1405 42.7487 33.7554 43.1917 34.2174C42.6039 34.5408 42.1137 35.0161 41.7721 35.5936C41.4306 36.171 41.2502 36.8296 41.2498 37.5005V37.9311C40.6605 37.4056 40.1889 36.7615 39.8658 36.0411C39.5426 35.3206 39.3753 34.5401 39.3748 33.7505ZM44.9998 49.3755C44.5053 49.3755 44.022 49.2289 43.6109 48.9542C43.1997 48.6794 42.8793 48.289 42.6901 47.8322C42.5009 47.3754 42.4514 46.8727 42.5478 46.3878C42.6443 45.9028 42.8824 45.4573 43.232 45.1077C43.5817 44.7581 44.0271 44.52 44.5121 44.4235C44.997 44.3271 45.4997 44.3766 45.9565 44.5658C46.4133 44.755 46.8038 45.0754 47.0785 45.4866C47.3532 45.8977 47.4998 46.381 47.4998 46.8755C47.4998 47.5385 47.2364 48.1744 46.7676 48.6432C46.2987 49.1121 45.6628 49.3755 44.9998 49.3755ZM54.9998 61.2817V60.0005C54.9998 59.3374 55.2632 58.7016 55.732 58.2327C56.2009 57.7639 56.8368 57.5005 57.4998 57.5005C58.1628 57.5005 58.7987 57.7639 59.2676 58.2327C59.7364 58.7016 59.9998 59.3374 59.9998 60.0005V61.2817C59.2242 61.6719 58.368 61.8752 57.4998 61.8752C56.6316 61.8752 55.7754 61.6719 54.9998 61.2817ZM56.2498 55.0005V54.3755C56.2498 54.044 56.3815 53.726 56.6159 53.4916C56.8503 53.2572 57.1683 53.1255 57.4998 53.1255C57.8313 53.1255 58.1493 53.2572 58.3837 53.4916C58.6181 53.726 58.7498 54.044 58.7498 54.3755V55.0005C58.7498 55.332 58.6181 55.6499 58.3837 55.8844C58.1493 56.1188 57.8313 56.2505 57.4998 56.2505C57.1683 56.2505 56.8503 56.1188 56.6159 55.8844C56.3815 55.6499 56.2498 55.332 56.2498 55.0005ZM61.2498 60.4311V60.0005C61.2494 59.3296 61.069 58.671 60.7275 58.0936C60.3859 57.5161 59.8957 57.0408 59.3079 56.7174C59.7509 56.2554 59.9987 55.6405 59.9998 55.0005V54.3755C59.9998 53.7124 59.7364 53.0766 59.2676 52.6077C58.7987 52.1389 58.1628 51.8755 57.4998 51.8755C56.8368 51.8755 56.2009 52.1389 55.732 52.6077C55.2632 53.0766 54.9998 53.7124 54.9998 54.3755V55.0005C55.0008 55.6405 55.2487 56.2554 55.6917 56.7174C55.1039 57.0408 54.6137 57.5161 54.2721 58.0936C53.9306 58.671 53.7502 59.3296 53.7498 60.0005V60.4311C52.9007 59.6716 52.3022 58.6722 52.0335 57.5652C51.7648 56.4581 51.8386 55.2956 52.2451 54.2313C52.6516 53.1671 53.3716 52.2514 54.3099 51.6054C55.2482 50.9594 56.3606 50.6135 57.4998 50.6135C58.639 50.6135 59.7514 50.9594 60.6897 51.6054C61.628 52.2514 62.348 53.1671 62.7545 54.2313C63.161 55.2956 63.2348 56.4581 62.9661 57.5652C62.6974 58.6722 62.0989 59.6716 61.2498 60.4311Z" fill="white"/>
</svg>
