<svg width="90" height="90" viewBox="0 0 90 90" fill="none" xmlns="http://www.w3.org/2000/svg">
<circle cx="45" cy="45" r="45" fill="#0C0F35"/>
<g clip-path="url(#clip0_29_124)">
<path d="M45.0002 49.5166C43.2216 49.5166 41.7744 50.9638 41.7744 52.7424C41.7744 54.521 43.2216 55.9682 45.0002 55.9682C46.7788 55.9682 48.226 54.521 48.226 52.7424C48.226 50.9638 46.7788 49.5166 45.0002 49.5166ZM45.0002 54.6779C43.9332 54.6779 43.0647 53.8094 43.0647 52.7424C43.0647 51.6754 43.9332 50.8069 45.0002 50.8069C46.0672 50.8069 46.9357 51.6754 46.9357 52.7424C46.9357 53.8094 46.0672 54.6779 45.0002 54.6779Z" fill="white"/>
<path d="M44.355 27.5811H49.5163V28.8714H44.355V27.5811Z" fill="white"/>
<path d="M44.355 30.1611H49.5163V31.4515H44.355V30.1611Z" fill="white"/>
<path d="M40.4839 32.7422H49.5161V34.0325H40.4839V32.7422Z" fill="white"/>
<path d="M40.4839 35.3223H49.5161V36.6126H40.4839V35.3223Z" fill="white"/>
<path d="M40.4839 37.9033H49.5161V39.1936H40.4839V37.9033Z" fill="white"/>
<path d="M65 45.6452V40.4839H55.9677V45.6452H59.8387V52.0968H52.0968V50.9863L50.5129 50.458L51.2594 48.9652L48.7768 46.4825L47.2833 47.2297L46.7556 45.6452H45.6452V41.7742H52.0968V34.0323H59.8387V37.6361L58.3594 36.1568L57.4471 37.0691L60.4839 40.1058L63.5207 37.0691L62.6084 36.1568L61.129 37.6361V32.7419H52.0968V25H42.1522L37.9032 29.249V32.7419H28.871V37.6361L27.3916 36.1568L26.4793 37.0691L29.5161 40.1058L32.5529 37.0691L31.6406 36.1568L30.1613 37.6361V34.0323H37.9032V41.7742H44.3548V45.6452H43.2444L42.7167 47.2297L41.2232 46.4825L38.7405 48.9652L39.4871 50.458L37.9032 50.9863V52.0968H30.1613V45.6452H34.0323V40.4839H25V45.6452H28.871V56.0594C27.7605 56.3477 26.9355 57.3497 26.9355 58.5484C26.9355 59.9716 28.0929 61.129 29.5161 61.129C30.9394 61.129 32.0968 59.9716 32.0968 58.5484C32.0968 57.3497 31.2717 56.3477 30.1613 56.0594V53.3871H34.0323V61.2478C33.2831 61.5149 32.7419 62.2247 32.7419 63.0645C32.7419 64.1315 33.6104 65 34.6774 65C35.7444 65 36.6129 64.1315 36.6129 63.0645C36.6129 62.2247 36.0717 61.5149 35.3226 61.2478V53.3871H37.9032V54.4975L39.4871 55.0258L38.7405 56.5187L41.2232 59.0014L42.7167 58.2542L43.2444 59.8387H46.755L47.2826 58.2542L48.7761 59.0014L51.2588 56.5187L50.5122 55.0258L52.0968 54.4975V53.3871H54.6774V61.2478C53.9283 61.5149 53.3871 62.2247 53.3871 63.0645C53.3871 64.1315 54.2556 65 55.3226 65C56.3896 65 57.2581 64.1315 57.2581 63.0645C57.2581 62.2247 56.7169 61.5149 55.9677 61.2478V53.3871H59.8387V56.0594C58.7283 56.3477 57.9032 57.3497 57.9032 58.5484C57.9032 59.9716 59.0606 61.129 60.4839 61.129C61.9071 61.129 63.0645 59.9716 63.0645 58.5484C63.0645 57.3497 62.2395 56.3477 61.129 56.0594V45.6452H65ZM41.7742 27.2026V28.871H40.1058L41.7742 27.2026ZM39.1935 30.1613H43.0645V26.2903H50.8064V40.4839H39.1935V30.1613ZM26.2903 41.7742H32.7419V44.3548H26.2903V41.7742ZM30.8065 58.5484C30.8065 59.26 30.2278 59.8387 29.5161 59.8387C28.8045 59.8387 28.2258 59.26 28.2258 58.5484C28.2258 57.8368 28.8045 57.2581 29.5161 57.2581C30.2278 57.2581 30.8065 57.8368 30.8065 58.5484ZM34.6774 63.7097C34.3214 63.7097 34.0323 63.4199 34.0323 63.0645C34.0323 62.7092 34.3214 62.4194 34.6774 62.4194C35.0334 62.4194 35.3226 62.7092 35.3226 63.0645C35.3226 63.4199 35.0334 63.7097 34.6774 63.7097ZM50.8064 53.567L49.3265 54.0606L49.2175 54.3451C49.185 54.4276 49.1529 54.5098 49.1173 54.5895L48.9923 54.8689L49.6897 56.2639L48.5226 57.431L47.1276 56.7336L46.8485 56.8586C46.7692 56.8942 46.6885 56.9263 46.6066 56.9575L46.3193 57.0659L45.825 58.5484H44.1743L43.6801 57.0659L43.3928 56.9575C43.3109 56.9263 43.2302 56.8942 43.1508 56.8586L42.8717 56.7336L41.4768 57.431L40.3097 56.2639L41.0071 54.8689L40.8821 54.5895C40.8458 54.5089 40.8143 54.4276 40.7819 54.3451L40.6729 54.0606L39.1935 53.567V51.9163L40.6735 51.4226L40.7825 51.1382C40.815 51.0556 40.8471 50.9734 40.8827 50.8934L41.0077 50.6143L40.3103 49.2194L41.4774 48.0522L42.8724 48.7497L43.1515 48.6246C43.2308 48.589 43.3115 48.5569 43.3934 48.5257L43.6807 48.4173L44.175 46.9355H45.8257L46.3199 48.418L46.6072 48.5263C46.6891 48.5575 46.7698 48.5897 46.8492 48.6253L47.1283 48.7503L48.5232 48.0529L49.6903 49.22L48.9929 50.6149L49.1179 50.8943C49.1542 50.975 49.1857 51.0563 49.2181 51.1388L49.3271 51.4233L50.8064 51.9169V53.567ZM55.3226 63.7097C54.9666 63.7097 54.6774 63.4199 54.6774 63.0645C54.6774 62.7092 54.9666 62.4194 55.3226 62.4194C55.6786 62.4194 55.9677 62.7092 55.9677 63.0645C55.9677 63.4199 55.6786 63.7097 55.3226 63.7097ZM61.7742 58.5484C61.7742 59.26 61.1955 59.8387 60.4839 59.8387C59.7722 59.8387 59.1935 59.26 59.1935 58.5484C59.1935 57.8368 59.7722 57.2581 60.4839 57.2581C61.1955 57.2581 61.7742 57.8368 61.7742 58.5484ZM57.2581 41.7742H63.7097V44.3548H57.2581V41.7742Z" fill="white"/>
</g>
<defs>
<clipPath id="clip0_29_124">
<rect width="40" height="40" fill="white" transform="translate(25 25)"/>
</clipPath>
</defs>
</svg>
