<svg width="42" height="42" viewBox="0 0 42 42" fill="none" xmlns="http://www.w3.org/2000/svg">
<circle cx="20.785" cy="20.785" r="20.785" fill="#181B3F"/>
<path d="M28.6912 12.1127H13.0623C12.3722 12.1127 11.8039 12.7217 11.8039 13.4524V29C11.8039 29.7307 12.3722 30.299 13.0623 30.299H28.6912C29.3813 30.299 29.9902 29.7307 29.9902 29V13.4524C29.9902 12.7217 29.3813 12.1127 28.6912 12.1127ZM17.2842 27.701H14.6049V19.0544H17.2842V27.701ZM15.9445 17.8366C15.0515 17.8366 14.3614 17.1464 14.3614 16.294C14.3614 15.4415 15.0515 14.7108 15.9445 14.7108C16.797 14.7108 17.4871 15.4415 17.4871 16.294C17.4871 17.1464 16.797 17.8366 15.9445 17.8366ZM27.3922 27.701H24.6723V23.4792C24.6723 22.5049 24.6723 21.2059 23.2921 21.2059C21.8713 21.2059 21.6683 22.3019 21.6683 23.4386V27.701H18.9891V19.0544H21.5466V20.2316H21.5872C21.9525 19.5415 22.8456 18.8108 24.1446 18.8108C26.8644 18.8108 27.3922 20.6376 27.3922 22.9514V27.701Z" fill="white"/>
</svg>
