<svg width="42" height="42" viewBox="0 0 42 42" fill="none" xmlns="http://www.w3.org/2000/svg">
<circle cx="20.785" cy="20.785" r="20.785" fill="#181B3F"/>
<path d="M20.8971 16.5375C18.299 16.5375 16.2287 18.6484 16.2287 21.2059C16.2287 23.8039 18.299 25.8742 20.8971 25.8742C23.4545 25.8742 25.5654 23.8039 25.5654 21.2059C25.5654 18.6484 23.4545 16.5375 20.8971 16.5375ZM20.8971 24.2505C19.2327 24.2505 17.8525 22.9108 17.8525 21.2059C17.8525 19.5415 19.1921 18.2019 20.8971 18.2019C22.5614 18.2019 23.901 19.5415 23.901 21.2059C23.901 22.9108 22.5614 24.2505 20.8971 24.2505ZM26.8238 16.3752C26.8238 15.7662 26.3367 15.2791 25.7278 15.2791C25.1189 15.2791 24.6317 15.7662 24.6317 16.3752C24.6317 16.9841 25.1189 17.4712 25.7278 17.4712C26.3367 17.4712 26.8238 16.9841 26.8238 16.3752ZM29.909 17.4712C29.8278 16.0098 29.5031 14.7108 28.4476 13.6553C27.3922 12.5999 26.0931 12.2751 24.6317 12.1939C23.1297 12.1127 18.6238 12.1127 17.1218 12.1939C15.6604 12.2751 14.402 12.5999 13.3059 13.6553C12.2505 14.7108 11.9257 16.0098 11.8445 17.4712C11.7633 18.9732 11.7633 23.4792 11.8445 24.9812C11.9257 26.4426 12.2505 27.701 13.3059 28.797C14.402 29.8525 15.6604 30.1772 17.1218 30.2584C18.6238 30.3396 23.1297 30.3396 24.6317 30.2584C26.0931 30.1772 27.3922 29.8525 28.4476 28.797C29.5031 27.701 29.8278 26.4426 29.909 24.9812C29.9902 23.4792 29.9902 18.9732 29.909 17.4712ZM27.9605 26.5643C27.6763 27.3762 27.0268 27.9851 26.2555 28.3099C25.0377 28.797 22.1961 28.6752 20.8971 28.6752C19.5574 28.6752 16.7158 28.797 15.5386 28.3099C14.7267 27.9851 14.1178 27.3762 13.793 26.5643C13.3059 25.3871 13.4277 22.5455 13.4277 21.2059C13.4277 19.9069 13.3059 17.0653 13.793 15.8474C14.1178 15.0761 14.7267 14.4672 15.5386 14.1425C16.7158 13.6553 19.5574 13.7771 20.8971 13.7771C22.1961 13.7771 25.0377 13.6553 26.2555 14.1425C27.0268 14.4266 27.6357 15.0761 27.9605 15.8474C28.4476 17.0653 28.3258 19.9069 28.3258 21.2059C28.3258 22.5455 28.4476 25.3871 27.9605 26.5643Z" fill="white"/>
</svg>
