<svg width="42" height="42" viewBox="0 0 42 42" fill="none" xmlns="http://www.w3.org/2000/svg">
<circle cx="20.785" cy="20.785" r="20.785" fill="#181B3F"/>
<path d="M29.1377 16.9841C29.9496 16.3752 30.6803 15.6445 31.2486 14.792C30.5179 15.1167 29.6654 15.3603 28.813 15.4415C29.706 14.9138 30.3555 14.1019 30.6803 13.087C29.8684 13.5741 28.9347 13.9395 28.0011 14.1425C27.1892 13.29 26.0931 12.8029 24.8753 12.8029C22.5208 12.8029 20.6129 14.7108 20.6129 17.0653C20.6129 17.39 20.6535 17.7148 20.7347 18.0395C17.203 17.8366 14.0366 16.1316 11.9257 13.5741C11.5604 14.1831 11.3574 14.9138 11.3574 15.7256C11.3574 17.187 12.0881 18.4861 13.2653 19.2574C12.5752 19.2168 11.8851 19.0544 11.3168 18.7296V18.7702C11.3168 20.8405 12.7782 22.5455 14.7267 22.9514C14.402 23.0326 13.996 23.1138 13.6307 23.1138C13.3465 23.1138 13.1029 23.0732 12.8188 23.0326C13.3465 24.7376 14.9297 25.9554 16.797 25.996C15.3356 27.1327 13.5089 27.8228 11.5198 27.8228C11.1544 27.8228 10.8297 27.7822 10.5049 27.7416C12.3722 28.9594 14.6049 29.6495 17.0406 29.6495C24.8753 29.6495 29.1377 23.195 29.1377 17.5524C29.1377 17.3494 29.1377 17.187 29.1377 16.9841Z" fill="white"/>
</svg>
