<svg width="42" height="42" viewBox="0 0 42 42" fill="none" xmlns="http://www.w3.org/2000/svg">
<circle cx="20.785" cy="20.785" r="20.785" fill="#181B3F"/>
<path d="M30.8021 21.4495C30.8021 20.7999 30.7209 20.3128 30.6397 19.7851H21.0594V23.2356H26.7426C26.5397 24.7376 25.0377 27.5792 21.0594 27.5792C17.6089 27.5792 14.8079 24.7376 14.8079 21.2059C14.8079 15.5633 21.4654 12.9652 25.0377 16.4158L27.7981 13.7771C26.0525 12.1533 23.7387 11.1385 21.0594 11.1385C15.4574 11.1385 10.992 15.6445 10.992 21.2059C10.992 26.8079 15.4574 31.2733 21.0594 31.2733C26.8644 31.2733 30.8021 27.2138 30.8021 21.4495Z" fill="white"/>
</svg>
