<svg width="25" height="26" viewBox="0 0 25 26" fill="none" xmlns="http://www.w3.org/2000/svg">
<path d="M17.2744 14.758C16.7684 14.2585 16.1368 14.2585 15.634 14.758C15.2505 15.1383 14.867 15.5186 14.49 15.9053C14.3869 16.0116 14.2999 16.0342 14.1742 15.9633C13.926 15.8279 13.6618 15.7184 13.4233 15.5701C12.3115 14.8708 11.3801 13.9717 10.5551 12.9598C10.1458 12.457 9.78168 11.9188 9.52709 11.313C9.47553 11.1905 9.4852 11.1099 9.5851 11.01C9.9686 10.6394 10.3424 10.2592 10.7195 9.87888C11.2448 9.35037 11.2448 8.73161 10.7163 8.19987C10.4165 7.89694 10.1168 7.60046 9.81713 7.29753C9.50776 6.98815 9.2016 6.67555 8.889 6.3694C8.38305 5.87633 7.7514 5.87633 7.24867 6.37262C6.86195 6.7529 6.49134 7.14284 6.09818 7.51667C5.73401 7.86149 5.55032 8.28366 5.51165 8.77673C5.45042 9.57918 5.647 10.3365 5.92415 11.0745C6.49134 12.602 7.35502 13.9588 8.40238 15.2027C9.81713 16.885 11.5058 18.2159 13.4813 19.1763C14.3708 19.6081 15.2924 19.9401 16.2947 19.9948C16.9843 20.0335 17.5838 19.8595 18.0639 19.3213C18.3926 18.9539 18.7633 18.6188 19.1113 18.2675C19.6269 17.7454 19.6301 17.1138 19.1177 16.5981C18.5054 15.9826 17.8899 15.3703 17.2744 14.758Z" fill="#929AA2"/>
</svg>
