<svg width="48" height="48" viewBox="0 0 48 48" fill="none" xmlns="http://www.w3.org/2000/svg">
<circle cx="24" cy="24" r="22" fill="white"/>
<path d="M25.0206 27.0395L34.6843 33.7591V20.3829L30.41 23.327L25.0206 27.0395Z" fill="#131C34"/>
<path d="M24.0005 0C10.7458 0 0 10.7438 0 23.9985C0 37.2533 10.7458 47.999 24.0005 47.999C37.2542 47.999 48 37.2533 48 23.9985C48 10.7438 37.2542 0 24.0005 0ZM35.274 34.8789V34.8796H12.7241H11.8758C10.5652 34.8796 9.49269 33.8072 9.49269 32.4965V16.2178C9.49269 14.9071 10.5651 13.8347 11.8758 13.8347L11.8851 13.8417L11.8758 13.8341H36.1948C37.5054 13.8341 38.5778 14.9064 38.5778 16.217V16.9077L38.5785 16.9073L38.5778 16.9079L38.5817 32.4986C38.5248 34.2315 37.7739 34.85 35.274 34.8789Z" fill="#131C34"/>
<path d="M23.9955 27.6206C23.879 27.6206 23.7625 27.5856 23.6623 27.516L23.4882 27.3948L13.563 34.2963H34.4352L24.5072 27.393C24.5072 27.393 24.1111 27.6206 23.9955 27.6206Z" fill="#131C34"/>
<path d="M36.1941 13.8347L36.1948 13.8341L36.1926 13.8358L36.1941 13.8347Z" fill="#131C34"/>
<path d="M34.4192 14.4173H13.6419L23.9966 22.0946L34.4192 14.4173Z" fill="#131C34"/>
<path d="M22.9679 27.0327L13.3134 20.3826L13.3079 33.7633L22.9775 27.0395L22.9679 27.0327Z" fill="#131C34"/>
</svg>
